<svg xmlns="http://www.w3.org/2000/svg" xmlns:xlink="http://www.w3.org/1999/xlink" version="1.1" width="314pt" height="250pt" viewBox="0 0 314 250">
<path transform="matrix(.75,0,0,.75,0,0)" d="M-.88363638-1.0036364H413.83638V329.23637H-.88363638V-1.0036364Z" fill="#ffffff" fill-rule="evenodd"/>
<path transform="matrix(.75,0,0,.75,0,0)" d="M40.396364 293.71638H406.15635V5.716363H40.396364V293.71638Z" fill="#ffffff" fill-rule="evenodd"/>
<path transform="matrix(.75,0,0,.75,0,0)" d="M40.066366 293.71638V5.7163636H40.726366V293.71638H40.066366Z" fill="#262626" fill-opacity=".14901962"/>
<path transform="matrix(.75,0,0,.75,0,0)" d="M113.21836 293.71638V5.7163636H113.87836V293.71638H113.21836Z" fill="#262626" fill-opacity=".14901962"/>
<path transform="matrix(.75,0,0,.75,0,0)" d="M186.37036 293.71638V5.7163636H187.03035V293.71638H186.37036Z" fill="#262626" fill-opacity=".14901962"/>
<path transform="matrix(.75,0,0,.75,0,0)" d="M259.52238 293.71638V5.7163636H260.18238V293.71638H259.52238Z" fill="#262626" fill-opacity=".14901962"/>
<path transform="matrix(.75,0,0,.75,0,0)" d="M332.67436 293.71638V5.7163636H333.33436V293.71638H332.67436Z" fill="#262626" fill-opacity=".14901962"/>
<path transform="matrix(.75,0,0,.75,0,0)" d="M405.82637 293.71638V5.7163636H406.48637V293.71638H405.82637Z" fill="#262626" fill-opacity=".14901962"/>
<path transform="matrix(.75,0,0,.75,0,0)" d="M406.15638 294.04637H40.396364V293.38636H406.15638V294.04637Z" fill="#262626" fill-opacity=".14901962"/>
<path transform="matrix(.75,0,0,.75,0,0)" d="M406.15638 262.04637H40.396364V261.38636H406.15638V262.04637Z" fill="#262626" fill-opacity=".14901962"/>
<path transform="matrix(.75,0,0,.75,0,0)" d="M406.15638 230.04637H40.396364V229.38637H406.15638V230.04637Z" fill="#262626" fill-opacity=".14901962"/>
<path transform="matrix(.75,0,0,.75,0,0)" d="M406.15638 198.04636H40.396364V197.38637H406.15638V198.04636Z" fill="#262626" fill-opacity=".14901962"/>
<path transform="matrix(.75,0,0,.75,0,0)" d="M406.15638 166.04637H40.396364V165.38637H406.15638V166.04637Z" fill="#262626" fill-opacity=".14901962"/>
<path transform="matrix(.75,0,0,.75,0,0)" d="M406.15638 134.04636H40.396364V133.38636H406.15638V134.04636Z" fill="#262626" fill-opacity=".14901962"/>
<path transform="matrix(.75,0,0,.75,0,0)" d="M406.15638 102.046367H40.396364V101.38636H406.15638V102.046367Z" fill="#262626" fill-opacity=".14901962"/>
<path transform="matrix(.75,0,0,.75,0,0)" d="M406.15638 70.046367H40.396364V69.38636H406.15638V70.046367Z" fill="#262626" fill-opacity=".14901962"/>
<path transform="matrix(.75,0,0,.75,0,0)" d="M406.15638 38.046365H40.396364V37.386365H406.15638V38.046365Z" fill="#262626" fill-opacity=".14901962"/>
<path transform="matrix(.75,0,0,.75,0,0)" d="M406.15638 6.046364H40.396364V5.3863637H406.15638V6.046364Z" fill="#262626" fill-opacity=".14901962"/>
<path transform="matrix(.71999999,0,0,.71999999,-15.782727,-15.872728)" stroke-width=".6875" stroke-linecap="square" stroke-linejoin="round" fill="none" stroke="#262626" d="M64 328H445"/>
<path transform="matrix(.71999999,0,0,.71999999,-15.782727,-15.872728)" stroke-width=".6875" stroke-linecap="square" stroke-linejoin="round" fill="none" stroke="#262626" d="M64 28H445"/>
<path transform="matrix(.71999999,0,0,.71999999,-15.782727,-15.872728)" stroke-width=".6875" stroke-linecap="square" stroke-linejoin="round" fill="none" stroke="#262626" d="M64 328V324.19"/>
<path transform="matrix(.71999999,0,0,.71999999,-15.782727,-15.872728)" stroke-width=".6875" stroke-linecap="square" stroke-linejoin="round" fill="none" stroke="#262626" d="M140.2 328V324.19"/>
<path transform="matrix(.71999999,0,0,.71999999,-15.782727,-15.872728)" stroke-width=".6875" stroke-linecap="square" stroke-linejoin="round" fill="none" stroke="#262626" d="M216.4 328V324.19"/>
<path transform="matrix(.71999999,0,0,.71999999,-15.782727,-15.872728)" stroke-width=".6875" stroke-linecap="square" stroke-linejoin="round" fill="none" stroke="#262626" d="M292.6 328V324.19"/>
<path transform="matrix(.71999999,0,0,.71999999,-15.782727,-15.872728)" stroke-width=".6875" stroke-linecap="square" stroke-linejoin="round" fill="none" stroke="#262626" d="M368.8 328V324.19"/>
<path transform="matrix(.71999999,0,0,.71999999,-15.782727,-15.872728)" stroke-width=".6875" stroke-linecap="square" stroke-linejoin="round" fill="none" stroke="#262626" d="M445 328V324.19"/>
<path transform="matrix(.71999999,0,0,.71999999,-15.782727,-15.872728)" stroke-width=".6875" stroke-linecap="square" stroke-linejoin="round" fill="none" stroke="#262626" d="M64 28V31.810006"/>
<path transform="matrix(.71999999,0,0,.71999999,-15.782727,-15.872728)" stroke-width=".6875" stroke-linecap="square" stroke-linejoin="round" fill="none" stroke="#262626" d="M140.2 28V31.810006"/>
<path transform="matrix(.71999999,0,0,.71999999,-15.782727,-15.872728)" stroke-width=".6875" stroke-linecap="square" stroke-linejoin="round" fill="none" stroke="#262626" d="M216.4 28V31.810006"/>
<path transform="matrix(.71999999,0,0,.71999999,-15.782727,-15.872728)" stroke-width=".6875" stroke-linecap="square" stroke-linejoin="round" fill="none" stroke="#262626" d="M292.6 28V31.810006"/>
<path transform="matrix(.71999999,0,0,.71999999,-15.782727,-15.872728)" stroke-width=".6875" stroke-linecap="square" stroke-linejoin="round" fill="none" stroke="#262626" d="M368.8 28V31.810006"/>
<path transform="matrix(.71999999,0,0,.71999999,-15.782727,-15.872728)" stroke-width=".6875" stroke-linecap="square" stroke-linejoin="round" fill="none" stroke="#262626" d="M445 28V31.810006"/>
<text fill="#262626" xml:space="preserve" transform="matrix(.71999999 0 0 .71999999 27.777272 232.88727)" font-size="13" font-family="LiberationSans"><tspan y="0" x="0">0</tspan></text>
<text fill="#262626" xml:space="preserve" transform="matrix(.71999999 0 0 .71999999 82.64127 232.88727)" font-size="13" font-family="LiberationSans"><tspan y="0" x="0">2</tspan></text>
<text fill="#262626" xml:space="preserve" transform="matrix(.71999999 0 0 .71999999 137.50528 232.88727)" font-size="13" font-family="LiberationSans"><tspan y="0" x="0">4</tspan></text>
<text fill="#262626" xml:space="preserve" transform="matrix(.71999999 0 0 .71999999 192.36928 232.88727)" font-size="13" font-family="LiberationSans"><tspan y="0" x="0">6</tspan></text>
<text fill="#262626" xml:space="preserve" transform="matrix(.71999999 0 0 .71999999 247.23326 232.88727)" font-size="13" font-family="LiberationSans"><tspan y="0" x="0">8</tspan></text>
<text fill="#262626" xml:space="preserve" transform="matrix(.71999999 0 0 .71999999 299.57728 232.88727)" font-size="13" font-family="LiberationSans"><tspan y="0" x="0 7.21875">10</tspan></text>
<text fill="#262626" xml:space="preserve" transform="matrix(.71999999 0 0 .71999999 164.57741 246.11728)" font-size="15" font-family="LiberationSans"><tspan y="0" x="0">x</tspan></text>
<path transform="matrix(.71999999,0,0,.71999999,-15.782727,-15.872728)" stroke-width=".6875" stroke-linecap="square" stroke-linejoin="round" fill="none" stroke="#262626" d="M64 328V28"/>
<path transform="matrix(.71999999,0,0,.71999999,-15.782727,-15.872728)" stroke-width=".6875" stroke-linecap="square" stroke-linejoin="round" fill="none" stroke="#262626" d="M445 328V28"/>
<path transform="matrix(.71999999,0,0,.71999999,-15.782727,-15.872728)" stroke-width=".6875" stroke-linecap="square" stroke-linejoin="round" fill="none" stroke="#262626" d="M64 328H67.81"/>
<path transform="matrix(.71999999,0,0,.71999999,-15.782727,-15.872728)" stroke-width=".6875" stroke-linecap="square" stroke-linejoin="round" fill="none" stroke="#262626" d="M64 294.66667H67.81"/>
<path transform="matrix(.71999999,0,0,.71999999,-15.782727,-15.872728)" stroke-width=".6875" stroke-linecap="square" stroke-linejoin="round" fill="none" stroke="#262626" d="M64 261.33335H67.81"/>
<path transform="matrix(.71999999,0,0,.71999999,-15.782727,-15.872728)" stroke-width=".6875" stroke-linecap="square" stroke-linejoin="round" fill="none" stroke="#262626" d="M64 228H67.81"/>
<path transform="matrix(.71999999,0,0,.71999999,-15.782727,-15.872728)" stroke-width=".6875" stroke-linecap="square" stroke-linejoin="round" fill="none" stroke="#262626" d="M64 194.66667H67.81"/>
<path transform="matrix(.71999999,0,0,.71999999,-15.782727,-15.872728)" stroke-width=".6875" stroke-linecap="square" stroke-linejoin="round" fill="none" stroke="#262626" d="M64 161.33333H67.81"/>
<path transform="matrix(.71999999,0,0,.71999999,-15.782727,-15.872728)" stroke-width=".6875" stroke-linecap="square" stroke-linejoin="round" fill="none" stroke="#262626" d="M64 128H67.81"/>
<path transform="matrix(.71999999,0,0,.71999999,-15.782727,-15.872728)" stroke-width=".6875" stroke-linecap="square" stroke-linejoin="round" fill="none" stroke="#262626" d="M64 94.666667H67.81"/>
<path transform="matrix(.71999999,0,0,.71999999,-15.782727,-15.872728)" stroke-width=".6875" stroke-linecap="square" stroke-linejoin="round" fill="none" stroke="#262626" d="M64 61.333333H67.81"/>
<path transform="matrix(.71999999,0,0,.71999999,-15.782727,-15.872728)" stroke-width=".6875" stroke-linecap="square" stroke-linejoin="round" fill="none" stroke="#262626" d="M64 28H67.81"/>
<path transform="matrix(.71999999,0,0,.71999999,-15.782727,-15.872728)" stroke-width=".6875" stroke-linecap="square" stroke-linejoin="round" fill="none" stroke="#262626" d="M445 328H441.18998"/>
<path transform="matrix(.71999999,0,0,.71999999,-15.782727,-15.872728)" stroke-width=".6875" stroke-linecap="square" stroke-linejoin="round" fill="none" stroke="#262626" d="M445 294.66667H441.18998"/>
<path transform="matrix(.71999999,0,0,.71999999,-15.782727,-15.872728)" stroke-width=".6875" stroke-linecap="square" stroke-linejoin="round" fill="none" stroke="#262626" d="M445 261.33335H441.18998"/>
<path transform="matrix(.71999999,0,0,.71999999,-15.782727,-15.872728)" stroke-width=".6875" stroke-linecap="square" stroke-linejoin="round" fill="none" stroke="#262626" d="M445 228H441.18998"/>
<path transform="matrix(.71999999,0,0,.71999999,-15.782727,-15.872728)" stroke-width=".6875" stroke-linecap="square" stroke-linejoin="round" fill="none" stroke="#262626" d="M445 194.66667H441.18998"/>
<path transform="matrix(.71999999,0,0,.71999999,-15.782727,-15.872728)" stroke-width=".6875" stroke-linecap="square" stroke-linejoin="round" fill="none" stroke="#262626" d="M445 161.33333H441.18998"/>
<path transform="matrix(.71999999,0,0,.71999999,-15.782727,-15.872728)" stroke-width=".6875" stroke-linecap="square" stroke-linejoin="round" fill="none" stroke="#262626" d="M445 128H441.18998"/>
<path transform="matrix(.71999999,0,0,.71999999,-15.782727,-15.872728)" stroke-width=".6875" stroke-linecap="square" stroke-linejoin="round" fill="none" stroke="#262626" d="M445 94.666667H441.18998"/>
<path transform="matrix(.71999999,0,0,.71999999,-15.782727,-15.872728)" stroke-width=".6875" stroke-linecap="square" stroke-linejoin="round" fill="none" stroke="#262626" d="M445 61.333333H441.18998"/>
<path transform="matrix(.71999999,0,0,.71999999,-15.782727,-15.872728)" stroke-width=".6875" stroke-linecap="square" stroke-linejoin="round" fill="none" stroke="#262626" d="M445 28H441.18998"/>
<text fill="#262626" xml:space="preserve" transform="matrix(.71999999 0 0 .71999999 12.657272 223.52729)" font-size="13" font-family="LiberationSans"><tspan y="0" x="0 4.328125 11.546875">-15</tspan></text>
<text fill="#262626" xml:space="preserve" transform="matrix(.71999999 0 0 .71999999 12.657272 199.52725)" font-size="13" font-family="LiberationSans"><tspan y="0" x="0 4.328125 11.546875">-10</tspan></text>
<text fill="#262626" xml:space="preserve" transform="matrix(.71999999 0 0 .71999999 17.697274 175.52729)" font-size="13" font-family="LiberationSans"><tspan y="0" x="0 4.328125">-5</tspan></text>
<text fill="#262626" xml:space="preserve" transform="matrix(.71999999 0 0 .71999999 21.297274 151.52727)" font-size="13" font-family="LiberationSans"><tspan y="0" x="0">0</tspan></text>
<text fill="#262626" xml:space="preserve" transform="matrix(.71999999 0 0 .71999999 21.297274 127.52727)" font-size="13" font-family="LiberationSans"><tspan y="0" x="0">5</tspan></text>
<text fill="#262626" xml:space="preserve" transform="matrix(.71999999 0 0 .71999999 16.257273 103.52727)" font-size="13" font-family="LiberationSans"><tspan y="0" x="0 7.21875">10</tspan></text>
<text fill="#262626" xml:space="preserve" transform="matrix(.71999999 0 0 .71999999 16.257273 79.52727)" font-size="13" font-family="LiberationSans"><tspan y="0" x="0 7.21875">15</tspan></text>
<text fill="#262626" xml:space="preserve" transform="matrix(.71999999 0 0 .71999999 16.257273 55.52727)" font-size="13" font-family="LiberationSans"><tspan y="0" x="0 7.21875">20</tspan></text>
<text fill="#262626" xml:space="preserve" transform="matrix(.71999999 0 0 .71999999 16.257273 31.527268)" font-size="13" font-family="LiberationSans"><tspan y="0" x="0 7.21875">25</tspan></text>
<text fill="#262626" xml:space="preserve" transform="matrix(.71999999 0 0 .71999999 16.257273 7.5272729)" font-size="13" font-family="LiberationSans"><tspan y="0" x="0 7.21875">30</tspan></text>
<text fill="#262626" xml:space="preserve" transform="matrix(0 -.71999999 .71999999 0 6.807273 115.167179)" font-size="15" font-family="LiberationSans"><tspan y="0" x="0">y</tspan></text>
<path transform="matrix(.71999999,0,0,.71999999,-15.782727,-15.872728)" stroke-width=".6875" stroke-linecap="butt" stroke-linejoin="round" fill="none" stroke="#ff0000" d="M64 48 102.1 121.333339 140.2 181.33333 178.3 228 216.4 261.33335 254.5 281.33335 292.6 288 330.7 281.33335 368.8 261.33335 406.9 228 445 181.33333"/>
<path transform="matrix(.71999999,0,0,.71999999,-15.782727,-15.872728)" stroke-width=".6875" stroke-linecap="butt" stroke-miterlimit="2" stroke-linejoin="miter" fill="none" stroke="#ff0000" d="M60.7825 44.7825V51.2175H67.2175V44.7825H60.7825Z"/>
<path transform="matrix(.71999999,0,0,.71999999,-15.782727,-15.872728)" stroke-width=".6875" stroke-linecap="butt" stroke-miterlimit="2" stroke-linejoin="miter" fill="none" stroke="#ff0000" d="M98.8825 118.11584V124.550838H105.3175V118.11584H98.8825Z"/>
<path transform="matrix(.71999999,0,0,.71999999,-15.782727,-15.872728)" stroke-width=".6875" stroke-linecap="butt" stroke-miterlimit="2" stroke-linejoin="miter" fill="none" stroke="#ff0000" d="M136.9825 178.11583V184.55083H143.4175V178.11583H136.9825Z"/>
<path transform="matrix(.71999999,0,0,.71999999,-15.782727,-15.872728)" stroke-width=".6875" stroke-linecap="butt" stroke-miterlimit="2" stroke-linejoin="miter" fill="none" stroke="#ff0000" d="M175.0825 224.7825V231.2175H181.5175V224.7825H175.0825Z"/>
<path transform="matrix(.71999999,0,0,.71999999,-15.782727,-15.872728)" stroke-width=".6875" stroke-linecap="butt" stroke-miterlimit="2" stroke-linejoin="miter" fill="none" stroke="#ff0000" d="M213.1825 258.11585V264.55085H219.6175V258.11585H213.1825Z"/>
<path transform="matrix(.71999999,0,0,.71999999,-15.782727,-15.872728)" stroke-width=".6875" stroke-linecap="butt" stroke-miterlimit="2" stroke-linejoin="miter" fill="none" stroke="#ff0000" d="M251.2825 278.11585V284.55085H257.7175V278.11585H251.2825Z"/>
<path transform="matrix(.71999999,0,0,.71999999,-15.782727,-15.872728)" stroke-width=".6875" stroke-linecap="butt" stroke-miterlimit="2" stroke-linejoin="miter" fill="none" stroke="#ff0000" d="M289.3825 284.7825V291.2175H295.8175V284.7825H289.3825Z"/>
<path transform="matrix(.71999999,0,0,.71999999,-15.782727,-15.872728)" stroke-width=".6875" stroke-linecap="butt" stroke-miterlimit="2" stroke-linejoin="miter" fill="none" stroke="#ff0000" d="M327.4825 278.11585V284.55085H333.9175V278.11585H327.4825Z"/>
<path transform="matrix(.71999999,0,0,.71999999,-15.782727,-15.872728)" stroke-width=".6875" stroke-linecap="butt" stroke-miterlimit="2" stroke-linejoin="miter" fill="none" stroke="#ff0000" d="M365.5825 258.11585V264.55085H372.0175V258.11585H365.5825Z"/>
<path transform="matrix(.71999999,0,0,.71999999,-15.782727,-15.872728)" stroke-width=".6875" stroke-linecap="butt" stroke-miterlimit="2" stroke-linejoin="miter" fill="none" stroke="#ff0000" d="M403.6825 224.7825V231.2175H410.1175V224.7825H403.6825Z"/>
<path transform="matrix(.71999999,0,0,.71999999,-15.782727,-15.872728)" stroke-width=".6875" stroke-linecap="butt" stroke-miterlimit="2" stroke-linejoin="miter" fill="none" stroke="#ff0000" d="M441.7825 178.11583V184.55083H448.2175V178.11583H441.7825Z"/>
<path transform="matrix(.71999999,0,0,.71999999,-15.782727,-15.872728)" stroke-width=".6875" stroke-linecap="butt" stroke-linejoin="round" fill="none" stroke="#0000ff" d="M64 308 102.1 294.66667 140.2 281.33335 178.3 268 216.4 254.66667 254.5 241.33333 292.6 228 330.7 214.66667 368.8 201.33333 406.9 188 445 174.66667"/>
<path transform="matrix(.71999999,0,0,.71999999,-15.782727,-15.872728)" stroke-width=".6875" stroke-linecap="butt" stroke-miterlimit="2" stroke-linejoin="miter" fill="none" stroke="#0000ff" d="M68.125 308C68.125 305.72184 66.278179 303.875 64 303.875 61.721826 303.875 59.875 305.72184 59.875 308 59.875 310.27818 61.721826 312.125 64 312.125 66.278179 312.125 68.125 310.27818 68.125 308Z"/>
<path transform="matrix(.71999999,0,0,.71999999,-15.782727,-15.872728)" stroke-width=".6875" stroke-linecap="butt" stroke-miterlimit="2" stroke-linejoin="miter" fill="none" stroke="#0000ff" d="M106.225 294.66667C106.225 292.3885 104.378177 290.54167 102.1 290.54167 99.82182 290.54167 97.975 292.3885 97.975 294.66667 97.975 296.94483 99.82182 298.79167 102.1 298.79167 104.378177 298.79167 106.225 296.94483 106.225 294.66667Z"/>
<path transform="matrix(.71999999,0,0,.71999999,-15.782727,-15.872728)" stroke-width=".6875" stroke-linecap="butt" stroke-miterlimit="2" stroke-linejoin="miter" fill="none" stroke="#0000ff" d="M144.325 281.33335C144.325 279.05519 142.47817 277.20835 140.2 277.20835 137.92183 277.20835 136.075 279.05519 136.075 281.33335 136.075 283.6115 137.92183 285.45835 140.2 285.45835 142.47817 285.45835 144.325 283.6115 144.325 281.33335Z"/>
<path transform="matrix(.71999999,0,0,.71999999,-15.782727,-15.872728)" stroke-width=".6875" stroke-linecap="butt" stroke-miterlimit="2" stroke-linejoin="miter" fill="none" stroke="#0000ff" d="M182.425 268C182.425 265.72184 180.57817 263.875 178.3 263.875 176.02184 263.875 174.175 265.72184 174.175 268 174.175 270.27818 176.02184 272.125 178.3 272.125 180.57817 272.125 182.425 270.27818 182.425 268Z"/>
<path transform="matrix(.71999999,0,0,.71999999,-15.782727,-15.872728)" stroke-width=".6875" stroke-linecap="butt" stroke-miterlimit="2" stroke-linejoin="miter" fill="none" stroke="#0000ff" d="M220.525 254.66667C220.525 252.3885 218.67816 250.54167 216.4 250.54167 214.12183 250.54167 212.275 252.3885 212.275 254.66667 212.275 256.94486 214.12183 258.79167 216.4 258.79167 218.67816 258.79167 220.525 256.94486 220.525 254.66667Z"/>
<path transform="matrix(.71999999,0,0,.71999999,-15.782727,-15.872728)" stroke-width=".6875" stroke-linecap="butt" stroke-miterlimit="2" stroke-linejoin="miter" fill="none" stroke="#0000ff" d="M258.625 241.33333C258.625 239.05516 256.77818 237.20833 254.5 237.20833 252.22183 237.20833 250.375 239.05516 250.375 241.33333 250.375 243.6115 252.22183 245.45833 254.5 245.45833 256.77818 245.45833 258.625 243.6115 258.625 241.33333Z"/>
<path transform="matrix(.71999999,0,0,.71999999,-15.782727,-15.872728)" stroke-width=".6875" stroke-linecap="butt" stroke-miterlimit="2" stroke-linejoin="miter" fill="none" stroke="#0000ff" d="M296.725 228C296.725 225.72183 294.87818 223.875 292.6 223.875 290.32185 223.875 288.475 225.72183 288.475 228 288.475 230.27817 290.32185 232.125 292.6 232.125 294.87818 232.125 296.725 230.27817 296.725 228Z"/>
<path transform="matrix(.71999999,0,0,.71999999,-15.782727,-15.872728)" stroke-width=".6875" stroke-linecap="butt" stroke-miterlimit="2" stroke-linejoin="miter" fill="none" stroke="#0000ff" d="M334.825 214.66667C334.825 212.3885 332.97819 210.54167 330.7 210.54167 328.42185 210.54167 326.575 212.3885 326.575 214.66667 326.575 216.94484 328.42185 218.79167 330.7 218.79167 332.97819 218.79167 334.825 216.94484 334.825 214.66667Z"/>
<path transform="matrix(.71999999,0,0,.71999999,-15.782727,-15.872728)" stroke-width=".6875" stroke-linecap="butt" stroke-miterlimit="2" stroke-linejoin="miter" fill="none" stroke="#0000ff" d="M372.925 201.33333C372.925 199.05516 371.07817 197.20833 368.8 197.20833 366.52183 197.20833 364.675 199.05516 364.675 201.33333 364.675 203.6115 366.52183 205.45833 368.8 205.45833 371.07817 205.45833 372.925 203.6115 372.925 201.33333Z"/>
<path transform="matrix(.71999999,0,0,.71999999,-15.782727,-15.872728)" stroke-width=".6875" stroke-linecap="butt" stroke-miterlimit="2" stroke-linejoin="miter" fill="none" stroke="#0000ff" d="M411.025 188C411.025 185.72183 409.17817 183.875 406.9 183.875 404.62184 183.875 402.775 185.72183 402.775 188 402.775 190.27817 404.62184 192.125 406.9 192.125 409.17817 192.125 411.025 190.27817 411.025 188Z"/>
<path transform="matrix(.71999999,0,0,.71999999,-15.782727,-15.872728)" stroke-width=".6875" stroke-linecap="butt" stroke-miterlimit="2" stroke-linejoin="miter" fill="none" stroke="#0000ff" d="M449.125 174.66667C449.125 172.3885 447.27818 170.54167 445 170.54167 442.72184 170.54167 440.875 172.3885 440.875 174.66667 440.875 176.94484 442.72184 178.79167 445 178.79167 447.27818 178.79167 449.125 176.94484 449.125 174.66667Z"/>
<path transform="matrix(.75,0,0,.75,0,0)" d="M395.59635 16.276364H325.51637V46.99636H395.59635V16.276364Z" fill="#ffffff" fill-rule="evenodd"/>
<text xml:space="preserve" transform="matrix(.71999999 0 0 .71999999 278.75874 21.467579)" font-size="12" font-family="LiberationSans"><tspan y="0" x="0 6.671875 10.65625 16.65625">p(x)</tspan></text>
<path transform="matrix(.71999999,0,0,.71999999,-15.782727,-15.872728)" stroke-width=".6875" stroke-linecap="butt" stroke-linejoin="round" fill="none" stroke="#ff0000" d="M364.98637 47.861539H406.09556"/>
<path transform="matrix(.71999999,0,0,.71999999,-15.782727,-15.872728)" stroke-width=".6875" stroke-linecap="butt" stroke-miterlimit="2" stroke-linejoin="miter" fill="none" stroke="#ff0000" d="M382.32347 44.64404V51.079038H388.75846V44.64404H382.32347Z"/>
<text xml:space="preserve" transform="matrix(.71999999 0 0 .71999999 278.75874 31.746964)" font-size="12" font-family="LiberationSans"><tspan y="0" x="0 6.671875 10.65625 16.65625">q(x)</tspan></text>
<path transform="matrix(.71999999,0,0,.71999999,-15.782727,-15.872728)" stroke-width=".6875" stroke-linecap="butt" stroke-linejoin="round" fill="none" stroke="#0000ff" d="M364.98637 62.138463H406.09556"/>
<path transform="matrix(.71999999,0,0,.71999999,-15.782727,-15.872728)" stroke-width=".6875" stroke-linecap="butt" stroke-miterlimit="2" stroke-linejoin="miter" fill="none" stroke="#0000ff" d="M389.66596 62.138463C389.66596 59.860288 387.81913 58.013463 385.54096 58.013463 383.2628 58.013463 381.41596 59.860288 381.41596 62.138463 381.41596 64.41663 383.2628 66.26346 385.54096 66.26346 387.81913 66.26346 389.66596 64.41663 389.66596 62.138463Z"/>
<path transform="matrix(.71999999,0,0,.71999999,-15.782727,-15.872728)" stroke-width=".6875" stroke-linecap="butt" stroke-miterlimit="2" stroke-linejoin="miter" fill="none" stroke="#262626" d="M361 71V39H434V71H361Z"/>
</svg>
