<svg xmlns="http://www.w3.org/2000/svg" xmlns:xlink="http://www.w3.org/1999/xlink" version="1.1" width="313pt" height="250pt" viewBox="0 0 313 250">
<path transform="matrix(.75,0,0,.75,0,0)" d="M-.88363638-1.0036364H412.87638V329.23637H-.88363638V-1.0036364Z" fill="#ffffff" fill-rule="evenodd"/>
<path transform="matrix(.75,0,0,.75,0,0)" d="M40.396364 293.71638H405.19636V5.716363H40.396364V293.71638Z" fill="#ffffff" fill-rule="evenodd"/>
<path transform="matrix(.75,0,0,.75,0,0)" d="M40.066366 293.71638V5.7163636H40.726366V293.71638H40.066366Z" fill="#262626" fill-opacity=".14901962"/>
<path transform="matrix(.75,0,0,.75,0,0)" d="M113.02636 293.71638V5.7163636H113.68636V293.71638H113.02636Z" fill="#262626" fill-opacity=".14901962"/>
<path transform="matrix(.75,0,0,.75,0,0)" d="M185.98636 293.71638V5.7163636H186.64636V293.71638H185.98636Z" fill="#262626" fill-opacity=".14901962"/>
<path transform="matrix(.75,0,0,.75,0,0)" d="M258.94636 293.71638V5.7163636H259.60636V293.71638H258.94636Z" fill="#262626" fill-opacity=".14901962"/>
<path transform="matrix(.75,0,0,.75,0,0)" d="M331.90638 293.71638V5.7163636H332.56639V293.71638H331.90638Z" fill="#262626" fill-opacity=".14901962"/>
<path transform="matrix(.75,0,0,.75,0,0)" d="M404.86637 293.71638V5.7163636H405.52638V293.71638H404.86637Z" fill="#262626" fill-opacity=".14901962"/>
<path transform="matrix(.75,0,0,.75,0,0)" d="M405.19636 294.04637H40.396364V293.38636H405.19636V294.04637Z" fill="#262626" fill-opacity=".14901962"/>
<path transform="matrix(.75,0,0,.75,0,0)" d="M405.19636 265.24638H40.396364V264.58638H405.19636V265.24638Z" fill="#262626" fill-opacity=".14901962"/>
<path transform="matrix(.75,0,0,.75,0,0)" d="M405.19636 236.44637H40.396364V235.78636H405.19636V236.44637Z" fill="#262626" fill-opacity=".14901962"/>
<path transform="matrix(.75,0,0,.75,0,0)" d="M405.19636 207.64636H40.396364V206.98636H405.19636V207.64636Z" fill="#262626" fill-opacity=".14901962"/>
<path transform="matrix(.75,0,0,.75,0,0)" d="M405.19636 178.84636H40.396364V178.18636H405.19636V178.84636Z" fill="#262626" fill-opacity=".14901962"/>
<path transform="matrix(.75,0,0,.75,0,0)" d="M405.19636 150.04636H40.396364V149.38637H405.19636V150.04636Z" fill="#262626" fill-opacity=".14901962"/>
<path transform="matrix(.75,0,0,.75,0,0)" d="M405.19636 121.24636H40.396364V120.586368H405.19636V121.24636Z" fill="#262626" fill-opacity=".14901962"/>
<path transform="matrix(.75,0,0,.75,0,0)" d="M405.19636 92.446369H40.396364V91.78636H405.19636V92.446369Z" fill="#262626" fill-opacity=".14901962"/>
<path transform="matrix(.75,0,0,.75,0,0)" d="M405.19636 63.646364H40.396364V62.986364H405.19636V63.646364Z" fill="#262626" fill-opacity=".14901962"/>
<path transform="matrix(.75,0,0,.75,0,0)" d="M405.19636 34.846364H40.396364V34.186365H405.19636V34.846364Z" fill="#262626" fill-opacity=".14901962"/>
<path transform="matrix(.75,0,0,.75,0,0)" d="M405.19636 6.046364H40.396364V5.3863637H405.19636V6.046364Z" fill="#262626" fill-opacity=".14901962"/>
<path transform="matrix(.71999999,0,0,.71999999,-15.782727,-15.872728)" stroke-width=".6875" stroke-linecap="square" stroke-linejoin="round" fill="none" stroke="#262626" d="M64 328H444"/>
<path transform="matrix(.71999999,0,0,.71999999,-15.782727,-15.872728)" stroke-width=".6875" stroke-linecap="square" stroke-linejoin="round" fill="none" stroke="#262626" d="M64 28H444"/>
<path transform="matrix(.71999999,0,0,.71999999,-15.782727,-15.872728)" stroke-width=".6875" stroke-linecap="square" stroke-linejoin="round" fill="none" stroke="#262626" d="M64 328V324.19999"/>
<path transform="matrix(.71999999,0,0,.71999999,-15.782727,-15.872728)" stroke-width=".6875" stroke-linecap="square" stroke-linejoin="round" fill="none" stroke="#262626" d="M140 328V324.19999"/>
<path transform="matrix(.71999999,0,0,.71999999,-15.782727,-15.872728)" stroke-width=".6875" stroke-linecap="square" stroke-linejoin="round" fill="none" stroke="#262626" d="M216 328V324.19999"/>
<path transform="matrix(.71999999,0,0,.71999999,-15.782727,-15.872728)" stroke-width=".6875" stroke-linecap="square" stroke-linejoin="round" fill="none" stroke="#262626" d="M292 328V324.19999"/>
<path transform="matrix(.71999999,0,0,.71999999,-15.782727,-15.872728)" stroke-width=".6875" stroke-linecap="square" stroke-linejoin="round" fill="none" stroke="#262626" d="M368 328V324.19999"/>
<path transform="matrix(.71999999,0,0,.71999999,-15.782727,-15.872728)" stroke-width=".6875" stroke-linecap="square" stroke-linejoin="round" fill="none" stroke="#262626" d="M444 328V324.19999"/>
<path transform="matrix(.71999999,0,0,.71999999,-15.782727,-15.872728)" stroke-width=".6875" stroke-linecap="square" stroke-linejoin="round" fill="none" stroke="#262626" d="M64 28V31.8"/>
<path transform="matrix(.71999999,0,0,.71999999,-15.782727,-15.872728)" stroke-width=".6875" stroke-linecap="square" stroke-linejoin="round" fill="none" stroke="#262626" d="M140 28V31.8"/>
<path transform="matrix(.71999999,0,0,.71999999,-15.782727,-15.872728)" stroke-width=".6875" stroke-linecap="square" stroke-linejoin="round" fill="none" stroke="#262626" d="M216 28V31.8"/>
<path transform="matrix(.71999999,0,0,.71999999,-15.782727,-15.872728)" stroke-width=".6875" stroke-linecap="square" stroke-linejoin="round" fill="none" stroke="#262626" d="M292 28V31.8"/>
<path transform="matrix(.71999999,0,0,.71999999,-15.782727,-15.872728)" stroke-width=".6875" stroke-linecap="square" stroke-linejoin="round" fill="none" stroke="#262626" d="M368 28V31.8"/>
<path transform="matrix(.71999999,0,0,.71999999,-15.782727,-15.872728)" stroke-width=".6875" stroke-linecap="square" stroke-linejoin="round" fill="none" stroke="#262626" d="M444 28V31.8"/>
<text fill="#262626" xml:space="preserve" transform="matrix(.71999999 0 0 .71999999 27.777272 232.88727)" font-size="13" font-family="LiberationSans"><tspan y="0" x="0">0</tspan></text>
<text fill="#262626" xml:space="preserve" transform="matrix(.71999999 0 0 .71999999 82.49727 232.88727)" font-size="13" font-family="LiberationSans"><tspan y="0" x="0">2</tspan></text>
<text fill="#262626" xml:space="preserve" transform="matrix(.71999999 0 0 .71999999 137.21727 232.88727)" font-size="13" font-family="LiberationSans"><tspan y="0" x="0">4</tspan></text>
<text fill="#262626" xml:space="preserve" transform="matrix(.71999999 0 0 .71999999 191.93727 232.88727)" font-size="13" font-family="LiberationSans"><tspan y="0" x="0">6</tspan></text>
<text fill="#262626" xml:space="preserve" transform="matrix(.71999999 0 0 .71999999 246.65729 232.88727)" font-size="13" font-family="LiberationSans"><tspan y="0" x="0">8</tspan></text>
<text fill="#262626" xml:space="preserve" transform="matrix(.71999999 0 0 .71999999 298.85728 232.88727)" font-size="13" font-family="LiberationSans"><tspan y="0" x="0 7.21875">10</tspan></text>
<text fill="#262626" xml:space="preserve" transform="matrix(.71999999 0 0 .71999999 164.2174 246.11728)" font-size="15" font-family="LiberationSans"><tspan y="0" x="0">x</tspan></text>
<path transform="matrix(.71999999,0,0,.71999999,-15.782727,-15.872728)" stroke-width=".6875" stroke-linecap="square" stroke-linejoin="round" fill="none" stroke="#262626" d="M64 328V28"/>
<path transform="matrix(.71999999,0,0,.71999999,-15.782727,-15.872728)" stroke-width=".6875" stroke-linecap="square" stroke-linejoin="round" fill="none" stroke="#262626" d="M444 328V28"/>
<path transform="matrix(.71999999,0,0,.71999999,-15.782727,-15.872728)" stroke-width=".6875" stroke-linecap="square" stroke-linejoin="round" fill="none" stroke="#262626" d="M64 328H67.8"/>
<path transform="matrix(.71999999,0,0,.71999999,-15.782727,-15.872728)" stroke-width=".6875" stroke-linecap="square" stroke-linejoin="round" fill="none" stroke="#262626" d="M64 298H67.8"/>
<path transform="matrix(.71999999,0,0,.71999999,-15.782727,-15.872728)" stroke-width=".6875" stroke-linecap="square" stroke-linejoin="round" fill="none" stroke="#262626" d="M64 268H67.8"/>
<path transform="matrix(.71999999,0,0,.71999999,-15.782727,-15.872728)" stroke-width=".6875" stroke-linecap="square" stroke-linejoin="round" fill="none" stroke="#262626" d="M64 238H67.8"/>
<path transform="matrix(.71999999,0,0,.71999999,-15.782727,-15.872728)" stroke-width=".6875" stroke-linecap="square" stroke-linejoin="round" fill="none" stroke="#262626" d="M64 208H67.8"/>
<path transform="matrix(.71999999,0,0,.71999999,-15.782727,-15.872728)" stroke-width=".6875" stroke-linecap="square" stroke-linejoin="round" fill="none" stroke="#262626" d="M64 178H67.8"/>
<path transform="matrix(.71999999,0,0,.71999999,-15.782727,-15.872728)" stroke-width=".6875" stroke-linecap="square" stroke-linejoin="round" fill="none" stroke="#262626" d="M64 148H67.8"/>
<path transform="matrix(.71999999,0,0,.71999999,-15.782727,-15.872728)" stroke-width=".6875" stroke-linecap="square" stroke-linejoin="round" fill="none" stroke="#262626" d="M64 118H67.8"/>
<path transform="matrix(.71999999,0,0,.71999999,-15.782727,-15.872728)" stroke-width=".6875" stroke-linecap="square" stroke-linejoin="round" fill="none" stroke="#262626" d="M64 88H67.8"/>
<path transform="matrix(.71999999,0,0,.71999999,-15.782727,-15.872728)" stroke-width=".6875" stroke-linecap="square" stroke-linejoin="round" fill="none" stroke="#262626" d="M64 58H67.8"/>
<path transform="matrix(.71999999,0,0,.71999999,-15.782727,-15.872728)" stroke-width=".6875" stroke-linecap="square" stroke-linejoin="round" fill="none" stroke="#262626" d="M64 28H67.8"/>
<path transform="matrix(.71999999,0,0,.71999999,-15.782727,-15.872728)" stroke-width=".6875" stroke-linecap="square" stroke-linejoin="round" fill="none" stroke="#262626" d="M444 328H440.19999"/>
<path transform="matrix(.71999999,0,0,.71999999,-15.782727,-15.872728)" stroke-width=".6875" stroke-linecap="square" stroke-linejoin="round" fill="none" stroke="#262626" d="M444 298H440.19999"/>
<path transform="matrix(.71999999,0,0,.71999999,-15.782727,-15.872728)" stroke-width=".6875" stroke-linecap="square" stroke-linejoin="round" fill="none" stroke="#262626" d="M444 268H440.19999"/>
<path transform="matrix(.71999999,0,0,.71999999,-15.782727,-15.872728)" stroke-width=".6875" stroke-linecap="square" stroke-linejoin="round" fill="none" stroke="#262626" d="M444 238H440.19999"/>
<path transform="matrix(.71999999,0,0,.71999999,-15.782727,-15.872728)" stroke-width=".6875" stroke-linecap="square" stroke-linejoin="round" fill="none" stroke="#262626" d="M444 208H440.19999"/>
<path transform="matrix(.71999999,0,0,.71999999,-15.782727,-15.872728)" stroke-width=".6875" stroke-linecap="square" stroke-linejoin="round" fill="none" stroke="#262626" d="M444 178H440.19999"/>
<path transform="matrix(.71999999,0,0,.71999999,-15.782727,-15.872728)" stroke-width=".6875" stroke-linecap="square" stroke-linejoin="round" fill="none" stroke="#262626" d="M444 148H440.19999"/>
<path transform="matrix(.71999999,0,0,.71999999,-15.782727,-15.872728)" stroke-width=".6875" stroke-linecap="square" stroke-linejoin="round" fill="none" stroke="#262626" d="M444 118H440.19999"/>
<path transform="matrix(.71999999,0,0,.71999999,-15.782727,-15.872728)" stroke-width=".6875" stroke-linecap="square" stroke-linejoin="round" fill="none" stroke="#262626" d="M444 88H440.19999"/>
<path transform="matrix(.71999999,0,0,.71999999,-15.782727,-15.872728)" stroke-width=".6875" stroke-linecap="square" stroke-linejoin="round" fill="none" stroke="#262626" d="M444 58H440.19999"/>
<path transform="matrix(.71999999,0,0,.71999999,-15.782727,-15.872728)" stroke-width=".6875" stroke-linecap="square" stroke-linejoin="round" fill="none" stroke="#262626" d="M444 28H440.19999"/>
<text fill="#262626" xml:space="preserve" transform="matrix(.71999999 0 0 .71999999 12.657272 223.52729)" font-size="13" font-family="LiberationSans"><tspan y="0" x="0 4.328125 11.546875">-35</tspan></text>
<text fill="#262626" xml:space="preserve" transform="matrix(.71999999 0 0 .71999999 12.657272 201.92728)" font-size="13" font-family="LiberationSans"><tspan y="0" x="0 4.328125 11.546875">-30</tspan></text>
<text fill="#262626" xml:space="preserve" transform="matrix(.71999999 0 0 .71999999 12.657272 180.32727)" font-size="13" font-family="LiberationSans"><tspan y="0" x="0 4.328125 11.546875">-25</tspan></text>
<text fill="#262626" xml:space="preserve" transform="matrix(.71999999 0 0 .71999999 12.657272 158.72728)" font-size="13" font-family="LiberationSans"><tspan y="0" x="0 4.328125 11.546875">-20</tspan></text>
<text fill="#262626" xml:space="preserve" transform="matrix(.71999999 0 0 .71999999 12.657272 137.12728)" font-size="13" font-family="LiberationSans"><tspan y="0" x="0 4.328125 11.546875">-15</tspan></text>
<text fill="#262626" xml:space="preserve" transform="matrix(.71999999 0 0 .71999999 12.657272 115.52727)" font-size="13" font-family="LiberationSans"><tspan y="0" x="0 4.328125 11.546875">-10</tspan></text>
<text fill="#262626" xml:space="preserve" transform="matrix(.71999999 0 0 .71999999 17.697274 93.92728)" font-size="13" font-family="LiberationSans"><tspan y="0" x="0 4.328125">-5</tspan></text>
<text fill="#262626" xml:space="preserve" transform="matrix(.71999999 0 0 .71999999 21.297274 72.32727)" font-size="13" font-family="LiberationSans"><tspan y="0" x="0">0</tspan></text>
<text fill="#262626" xml:space="preserve" transform="matrix(.71999999 0 0 .71999999 21.297274 50.727273)" font-size="13" font-family="LiberationSans"><tspan y="0" x="0">5</tspan></text>
<text fill="#262626" xml:space="preserve" transform="matrix(.71999999 0 0 .71999999 16.257273 29.127274)" font-size="13" font-family="LiberationSans"><tspan y="0" x="0 7.21875">10</tspan></text>
<text fill="#262626" xml:space="preserve" transform="matrix(.71999999 0 0 .71999999 16.257273 7.5272729)" font-size="13" font-family="LiberationSans"><tspan y="0" x="0 7.21875">15</tspan></text>
<text fill="#262626" xml:space="preserve" transform="matrix(0 -.71999999 .71999999 0 6.807273 115.167179)" font-size="15" font-family="LiberationSans"><tspan y="0" x="0">y</tspan></text>
<path transform="matrix(.71999999,0,0,.71999999,-15.782727,-15.872728)" stroke-width=".6875" stroke-linecap="butt" stroke-linejoin="round" fill="none" stroke="#ff0000" d="M64 310 102 244 140 190 178 148 216 118 254 100 292 94 330 100 368 118 406 148 444 190"/>
<path transform="matrix(.71999999,0,0,.71999999,-15.782727,-15.872728)" stroke-width=".6875" stroke-linecap="butt" stroke-miterlimit="2" stroke-linejoin="miter" fill="none" stroke="#ff0000" d="M60.7825 306.7825V313.2175H67.2175V306.7825H60.7825Z"/>
<path transform="matrix(.71999999,0,0,.71999999,-15.782727,-15.872728)" stroke-width=".6875" stroke-linecap="butt" stroke-miterlimit="2" stroke-linejoin="miter" fill="none" stroke="#ff0000" d="M98.7825 240.7825V247.2175H105.2175V240.7825H98.7825Z"/>
<path transform="matrix(.71999999,0,0,.71999999,-15.782727,-15.872728)" stroke-width=".6875" stroke-linecap="butt" stroke-miterlimit="2" stroke-linejoin="miter" fill="none" stroke="#ff0000" d="M136.7825 186.7825V193.2175H143.2175V186.7825H136.7825Z"/>
<path transform="matrix(.71999999,0,0,.71999999,-15.782727,-15.872728)" stroke-width=".6875" stroke-linecap="butt" stroke-miterlimit="2" stroke-linejoin="miter" fill="none" stroke="#ff0000" d="M174.7825 144.7825V151.2175H181.2175V144.7825H174.7825Z"/>
<path transform="matrix(.71999999,0,0,.71999999,-15.782727,-15.872728)" stroke-width=".6875" stroke-linecap="butt" stroke-miterlimit="2" stroke-linejoin="miter" fill="none" stroke="#ff0000" d="M212.7825 114.7825V121.2175H219.2175V114.7825H212.7825Z"/>
<path transform="matrix(.71999999,0,0,.71999999,-15.782727,-15.872728)" stroke-width=".6875" stroke-linecap="butt" stroke-miterlimit="2" stroke-linejoin="miter" fill="none" stroke="#ff0000" d="M250.7825 96.7825V103.2175H257.2175V96.7825H250.7825Z"/>
<path transform="matrix(.71999999,0,0,.71999999,-15.782727,-15.872728)" stroke-width=".6875" stroke-linecap="butt" stroke-miterlimit="2" stroke-linejoin="miter" fill="none" stroke="#ff0000" d="M288.7825 90.7825V97.2175H295.2175V90.7825H288.7825Z"/>
<path transform="matrix(.71999999,0,0,.71999999,-15.782727,-15.872728)" stroke-width=".6875" stroke-linecap="butt" stroke-miterlimit="2" stroke-linejoin="miter" fill="none" stroke="#ff0000" d="M326.7825 96.7825V103.2175H333.2175V96.7825H326.7825Z"/>
<path transform="matrix(.71999999,0,0,.71999999,-15.782727,-15.872728)" stroke-width=".6875" stroke-linecap="butt" stroke-miterlimit="2" stroke-linejoin="miter" fill="none" stroke="#ff0000" d="M364.7825 114.7825V121.2175H371.2175V114.7825H364.7825Z"/>
<path transform="matrix(.71999999,0,0,.71999999,-15.782727,-15.872728)" stroke-width=".6875" stroke-linecap="butt" stroke-miterlimit="2" stroke-linejoin="miter" fill="none" stroke="#ff0000" d="M402.7825 144.7825V151.2175H409.2175V144.7825H402.7825Z"/>
<path transform="matrix(.71999999,0,0,.71999999,-15.782727,-15.872728)" stroke-width=".6875" stroke-linecap="butt" stroke-miterlimit="2" stroke-linejoin="miter" fill="none" stroke="#ff0000" d="M440.7825 186.7825V193.2175H447.2175V186.7825H440.7825Z"/>
<path transform="matrix(.71999999,0,0,.71999999,-15.782727,-15.872728)" stroke-width=".6875" stroke-linecap="butt" stroke-linejoin="round" fill="none" stroke="#0000ff" d="M64 46 102 58 140 70 178 82 216 94 254 106 292 118 330 130 368 142 406 154 444 166"/>
<path transform="matrix(.71999999,0,0,.71999999,-15.782727,-15.872728)" stroke-width=".6875" stroke-linecap="butt" stroke-miterlimit="2" stroke-linejoin="miter" fill="none" stroke="#0000ff" d="M68.125 46C68.125 43.721826 66.278179 41.875 64 41.875 61.721826 41.875 59.875 43.721826 59.875 46 59.875 48.278177 61.721826 50.125 64 50.125 66.278179 50.125 68.125 48.278177 68.125 46Z"/>
<path transform="matrix(.71999999,0,0,.71999999,-15.782727,-15.872728)" stroke-width=".6875" stroke-linecap="butt" stroke-miterlimit="2" stroke-linejoin="miter" fill="none" stroke="#0000ff" d="M106.125 58C106.125 55.721826 104.278179 53.875 102 53.875 99.721828 53.875 97.875 55.721826 97.875 58 97.875 60.278177 99.721828 62.125 102 62.125 104.278179 62.125 106.125 60.278177 106.125 58Z"/>
<path transform="matrix(.71999999,0,0,.71999999,-15.782727,-15.872728)" stroke-width=".6875" stroke-linecap="butt" stroke-miterlimit="2" stroke-linejoin="miter" fill="none" stroke="#0000ff" d="M144.125 70C144.125 67.721828 142.27817 65.875 140 65.875 137.72183 65.875 135.875 67.721828 135.875 70 135.875 72.278179 137.72183 74.125 140 74.125 142.27817 74.125 144.125 72.278179 144.125 70Z"/>
<path transform="matrix(.71999999,0,0,.71999999,-15.782727,-15.872728)" stroke-width=".6875" stroke-linecap="butt" stroke-miterlimit="2" stroke-linejoin="miter" fill="none" stroke="#0000ff" d="M182.125 82C182.125 79.721828 180.27817 77.875 178 77.875 175.72183 77.875 173.875 79.721828 173.875 82 173.875 84.278179 175.72183 86.125 178 86.125 180.27817 86.125 182.125 84.278179 182.125 82Z"/>
<path transform="matrix(.71999999,0,0,.71999999,-15.782727,-15.872728)" stroke-width=".6875" stroke-linecap="butt" stroke-miterlimit="2" stroke-linejoin="miter" fill="none" stroke="#0000ff" d="M220.125 94C220.125 91.721828 218.27817 89.875 216 89.875 213.72183 89.875 211.875 91.721828 211.875 94 211.875 96.278179 213.72183 98.125 216 98.125 218.27817 98.125 220.125 96.278179 220.125 94Z"/>
<path transform="matrix(.71999999,0,0,.71999999,-15.782727,-15.872728)" stroke-width=".6875" stroke-linecap="butt" stroke-miterlimit="2" stroke-linejoin="miter" fill="none" stroke="#0000ff" d="M258.125 106C258.125 103.721828 256.27818 101.875 254 101.875 251.72183 101.875 249.875 103.721828 249.875 106 249.875 108.278179 251.72183 110.125 254 110.125 256.27818 110.125 258.125 108.278179 258.125 106Z"/>
<path transform="matrix(.71999999,0,0,.71999999,-15.782727,-15.872728)" stroke-width=".6875" stroke-linecap="butt" stroke-miterlimit="2" stroke-linejoin="miter" fill="none" stroke="#0000ff" d="M296.125 118C296.125 115.721828 294.27818 113.875 292 113.875 289.72184 113.875 287.875 115.721828 287.875 118 287.875 120.278179 289.72184 122.125 292 122.125 294.27818 122.125 296.125 120.278179 296.125 118Z"/>
<path transform="matrix(.71999999,0,0,.71999999,-15.782727,-15.872728)" stroke-width=".6875" stroke-linecap="butt" stroke-miterlimit="2" stroke-linejoin="miter" fill="none" stroke="#0000ff" d="M334.125 130C334.125 127.721828 332.27818 125.875 330 125.875 327.72184 125.875 325.875 127.721828 325.875 130 325.875 132.27817 327.72184 134.125 330 134.125 332.27818 134.125 334.125 132.27817 334.125 130Z"/>
<path transform="matrix(.71999999,0,0,.71999999,-15.782727,-15.872728)" stroke-width=".6875" stroke-linecap="butt" stroke-miterlimit="2" stroke-linejoin="miter" fill="none" stroke="#0000ff" d="M372.125 142C372.125 139.72183 370.27818 137.875 368 137.875 365.72184 137.875 363.875 139.72183 363.875 142 363.875 144.27817 365.72184 146.125 368 146.125 370.27818 146.125 372.125 144.27817 372.125 142Z"/>
<path transform="matrix(.71999999,0,0,.71999999,-15.782727,-15.872728)" stroke-width=".6875" stroke-linecap="butt" stroke-miterlimit="2" stroke-linejoin="miter" fill="none" stroke="#0000ff" d="M410.125 154C410.125 151.72183 408.27818 149.875 406 149.875 403.72184 149.875 401.875 151.72183 401.875 154 401.875 156.27817 403.72184 158.125 406 158.125 408.27818 158.125 410.125 156.27817 410.125 154Z"/>
<path transform="matrix(.71999999,0,0,.71999999,-15.782727,-15.872728)" stroke-width=".6875" stroke-linecap="butt" stroke-miterlimit="2" stroke-linejoin="miter" fill="none" stroke="#0000ff" d="M448.125 166C448.125 163.72183 446.27818 161.875 444 161.875 441.72184 161.875 439.875 163.72183 439.875 166 439.875 168.27817 441.72184 170.125 444 170.125 446.27818 170.125 448.125 168.27817 448.125 166Z"/>
<path transform="matrix(.75,0,0,.75,0,0)" d="M394.63636 16.276364H324.55638V46.99636H394.63636V16.276364Z" fill="#ffffff" fill-rule="evenodd"/>
<text xml:space="preserve" transform="matrix(.71999999 0 0 .71999999 278.03874 21.467579)" font-size="12" font-family="LiberationSans"><tspan y="0" x="0 6.671875 10.65625 16.65625">p(x)</tspan></text>
<path transform="matrix(.71999999,0,0,.71999999,-15.782727,-15.872728)" stroke-width=".6875" stroke-linecap="butt" stroke-linejoin="round" fill="none" stroke="#ff0000" d="M363.98637 47.861539H405.09556"/>
<path transform="matrix(.71999999,0,0,.71999999,-15.782727,-15.872728)" stroke-width=".6875" stroke-linecap="butt" stroke-miterlimit="2" stroke-linejoin="miter" fill="none" stroke="#ff0000" d="M381.32347 44.64404V51.079038H387.75846V44.64404H381.32347Z"/>
<text xml:space="preserve" transform="matrix(.71999999 0 0 .71999999 278.03874 31.746964)" font-size="12" font-family="LiberationSans"><tspan y="0" x="0 6.671875 10.65625 16.65625">q(x)</tspan></text>
<path transform="matrix(.71999999,0,0,.71999999,-15.782727,-15.872728)" stroke-width=".6875" stroke-linecap="butt" stroke-linejoin="round" fill="none" stroke="#0000ff" d="M363.98637 62.138463H405.09556"/>
<path transform="matrix(.71999999,0,0,.71999999,-15.782727,-15.872728)" stroke-width=".6875" stroke-linecap="butt" stroke-miterlimit="2" stroke-linejoin="miter" fill="none" stroke="#0000ff" d="M388.66596 62.138463C388.66596 59.860288 386.81913 58.013463 384.54096 58.013463 382.2628 58.013463 380.41596 59.860288 380.41596 62.138463 380.41596 64.41663 382.2628 66.26346 384.54096 66.26346 386.81913 66.26346 388.66596 64.41663 388.66596 62.138463Z"/>
<path transform="matrix(.71999999,0,0,.71999999,-15.782727,-15.872728)" stroke-width=".6875" stroke-linecap="butt" stroke-miterlimit="2" stroke-linejoin="miter" fill="none" stroke="#262626" d="M360 71V39H433V71H360Z"/>
</svg>
