<svg xmlns="http://www.w3.org/2000/svg" xmlns:xlink="http://www.w3.org/1999/xlink" version="1.1" width="337pt" height="273pt" viewBox="0 0 337 273">
<path transform="matrix(.75,0,0,.75,0,0)" d="M-.88363638-1.0168364H443.59638V358.98316H-.88363638V-1.0168364Z" fill="#ffffff" fill-rule="evenodd"/>
<path transform="matrix(.75,0,0,.75,0,0)" d="M35.596364 323.46318H435.91636V6.6631629H35.596364V323.46318Z" fill="#ffffff" fill-rule="evenodd"/>
<path transform="matrix(.75,0,0,.75,0,0)" d="M35.266366 323.46318V6.6631639H35.926366V323.46318H35.266366Z" fill="#262626" fill-opacity=".14901962"/>
<path transform="matrix(.75,0,0,.75,0,0)" d="M115.33036 323.46318V6.6631639H115.99036V323.46318H115.33036Z" fill="#262626" fill-opacity=".14901962"/>
<path transform="matrix(.75,0,0,.75,0,0)" d="M195.39437 323.46318V6.6631639H196.05437V323.46318H195.39437Z" fill="#262626" fill-opacity=".14901962"/>
<path transform="matrix(.75,0,0,.75,0,0)" d="M275.45838 323.46318V6.6631639H276.11839V323.46318H275.45838Z" fill="#262626" fill-opacity=".14901962"/>
<path transform="matrix(.75,0,0,.75,0,0)" d="M355.52238 323.46318V6.6631639H356.18238V323.46318H355.52238Z" fill="#262626" fill-opacity=".14901962"/>
<path transform="matrix(.75,0,0,.75,0,0)" d="M435.58638 323.46318V6.6631639H436.24638V323.46318H435.58638Z" fill="#262626" fill-opacity=".14901962"/>
<path transform="matrix(.75,0,0,.75,0,0)" d="M435.91636 323.79316H35.596364V323.13316H435.91636V323.79316Z" fill="#262626" fill-opacity=".14901962"/>
<path transform="matrix(.75,0,0,.75,0,0)" d="M435.91636 270.99317H35.596364V270.33317H435.91636V270.99317Z" fill="#262626" fill-opacity=".14901962"/>
<path transform="matrix(.75,0,0,.75,0,0)" d="M435.91636 218.19316H35.596364V217.53316H435.91636V218.19316Z" fill="#262626" fill-opacity=".14901962"/>
<path transform="matrix(.75,0,0,.75,0,0)" d="M435.91636 165.39316H35.596364V164.73317H435.91636V165.39316Z" fill="#262626" fill-opacity=".14901962"/>
<path transform="matrix(.75,0,0,.75,0,0)" d="M435.91636 112.59316H35.596364V111.93317H435.91636V112.59316Z" fill="#262626" fill-opacity=".14901962"/>
<path transform="matrix(.75,0,0,.75,0,0)" d="M435.91636 59.793165H35.596364V59.133165H435.91636V59.793165Z" fill="#262626" fill-opacity=".14901962"/>
<path transform="matrix(.75,0,0,.75,0,0)" d="M435.91636 6.9931638H35.596364V6.3331639H435.91636V6.9931638Z" fill="#262626" fill-opacity=".14901962"/>
<path transform="matrix(.71999999,0,0,.71999999,-23.702727,-16.602627)" stroke-width=".6875" stroke-linecap="square" stroke-linejoin="round" fill="none" stroke="#262626" d="M70 360H487"/>
<path transform="matrix(.71999999,0,0,.71999999,-23.702727,-16.602627)" stroke-width=".6875" stroke-linecap="square" stroke-linejoin="round" fill="none" stroke="#262626" d="M70 30H487"/>
<path transform="matrix(.71999999,0,0,.71999999,-23.702727,-16.602627)" stroke-width=".6875" stroke-linecap="square" stroke-linejoin="round" fill="none" stroke="#262626" d="M70 360V355.83"/>
<path transform="matrix(.71999999,0,0,.71999999,-23.702727,-16.602627)" stroke-width=".6875" stroke-linecap="square" stroke-linejoin="round" fill="none" stroke="#262626" d="M153.4 360V355.83"/>
<path transform="matrix(.71999999,0,0,.71999999,-23.702727,-16.602627)" stroke-width=".6875" stroke-linecap="square" stroke-linejoin="round" fill="none" stroke="#262626" d="M236.8 360V355.83"/>
<path transform="matrix(.71999999,0,0,.71999999,-23.702727,-16.602627)" stroke-width=".6875" stroke-linecap="square" stroke-linejoin="round" fill="none" stroke="#262626" d="M320.2 360V355.83"/>
<path transform="matrix(.71999999,0,0,.71999999,-23.702727,-16.602627)" stroke-width=".6875" stroke-linecap="square" stroke-linejoin="round" fill="none" stroke="#262626" d="M403.6 360V355.83"/>
<path transform="matrix(.71999999,0,0,.71999999,-23.702727,-16.602627)" stroke-width=".6875" stroke-linecap="square" stroke-linejoin="round" fill="none" stroke="#262626" d="M487 360V355.83"/>
<path transform="matrix(.71999999,0,0,.71999999,-23.702727,-16.602627)" stroke-width=".6875" stroke-linecap="square" stroke-linejoin="round" fill="none" stroke="#262626" d="M70 30V34.169996"/>
<path transform="matrix(.71999999,0,0,.71999999,-23.702727,-16.602627)" stroke-width=".6875" stroke-linecap="square" stroke-linejoin="round" fill="none" stroke="#262626" d="M153.4 30V34.169996"/>
<path transform="matrix(.71999999,0,0,.71999999,-23.702727,-16.602627)" stroke-width=".6875" stroke-linecap="square" stroke-linejoin="round" fill="none" stroke="#262626" d="M236.8 30V34.169996"/>
<path transform="matrix(.71999999,0,0,.71999999,-23.702727,-16.602627)" stroke-width=".6875" stroke-linecap="square" stroke-linejoin="round" fill="none" stroke="#262626" d="M320.2 30V34.169996"/>
<path transform="matrix(.71999999,0,0,.71999999,-23.702727,-16.602627)" stroke-width=".6875" stroke-linecap="square" stroke-linejoin="round" fill="none" stroke="#262626" d="M403.6 30V34.169996"/>
<path transform="matrix(.71999999,0,0,.71999999,-23.702727,-16.602627)" stroke-width=".6875" stroke-linecap="square" stroke-linejoin="round" fill="none" stroke="#262626" d="M487 30V34.169996"/>
<text fill="#262626" xml:space="preserve" transform="matrix(.71999999 0 0 .71999999 24.177273 255.19736)" font-size="13" font-family="LiberationSans"><tspan y="0" x="0">0</tspan></text>
<text fill="#262626" xml:space="preserve" transform="matrix(.71999999 0 0 .71999999 84.225269 255.19736)" font-size="13" font-family="LiberationSans"><tspan y="0" x="0">2</tspan></text>
<text fill="#262626" xml:space="preserve" transform="matrix(.71999999 0 0 .71999999 144.27327 255.19736)" font-size="13" font-family="LiberationSans"><tspan y="0" x="0">4</tspan></text>
<text fill="#262626" xml:space="preserve" transform="matrix(.71999999 0 0 .71999999 204.32129 255.19736)" font-size="13" font-family="LiberationSans"><tspan y="0" x="0">6</tspan></text>
<text fill="#262626" xml:space="preserve" transform="matrix(.71999999 0 0 .71999999 264.36927 255.19736)" font-size="13" font-family="LiberationSans"><tspan y="0" x="0">8</tspan></text>
<text fill="#262626" xml:space="preserve" transform="matrix(.71999999 0 0 .71999999 321.89729 255.19736)" font-size="13" font-family="LiberationSans"><tspan y="0" x="0 7.21875">10</tspan></text>
<text fill="#262626" xml:space="preserve" transform="matrix(.71999999 0 0 .71999999 173.93743 268.42738)" font-size="15" font-family="LiberationSans"><tspan y="0" x="0">x</tspan></text>
<path transform="matrix(.71999999,0,0,.71999999,-23.702727,-16.602627)" stroke-width=".6875" stroke-linecap="square" stroke-linejoin="round" fill="none" stroke="#262626" d="M70 360V30"/>
<path transform="matrix(.71999999,0,0,.71999999,-23.702727,-16.602627)" stroke-width=".6875" stroke-linecap="square" stroke-linejoin="round" fill="none" stroke="#262626" d="M487 360V30"/>
<path transform="matrix(.71999999,0,0,.71999999,-23.702727,-16.602627)" stroke-width=".6875" stroke-linecap="square" stroke-linejoin="round" fill="none" stroke="#262626" d="M70 360H74.17"/>
<path transform="matrix(.71999999,0,0,.71999999,-23.702727,-16.602627)" stroke-width=".6875" stroke-linecap="square" stroke-linejoin="round" fill="none" stroke="#262626" d="M70 305H74.17"/>
<path transform="matrix(.71999999,0,0,.71999999,-23.702727,-16.602627)" stroke-width=".6875" stroke-linecap="square" stroke-linejoin="round" fill="none" stroke="#262626" d="M70 250H74.17"/>
<path transform="matrix(.71999999,0,0,.71999999,-23.702727,-16.602627)" stroke-width=".6875" stroke-linecap="square" stroke-linejoin="round" fill="none" stroke="#262626" d="M70 195H74.17"/>
<path transform="matrix(.71999999,0,0,.71999999,-23.702727,-16.602627)" stroke-width=".6875" stroke-linecap="square" stroke-linejoin="round" fill="none" stroke="#262626" d="M70 140H74.17"/>
<path transform="matrix(.71999999,0,0,.71999999,-23.702727,-16.602627)" stroke-width=".6875" stroke-linecap="square" stroke-linejoin="round" fill="none" stroke="#262626" d="M70 85H74.17"/>
<path transform="matrix(.71999999,0,0,.71999999,-23.702727,-16.602627)" stroke-width=".6875" stroke-linecap="square" stroke-linejoin="round" fill="none" stroke="#262626" d="M70 30H74.17"/>
<path transform="matrix(.71999999,0,0,.71999999,-23.702727,-16.602627)" stroke-width=".6875" stroke-linecap="square" stroke-linejoin="round" fill="none" stroke="#262626" d="M487 360H482.83"/>
<path transform="matrix(.71999999,0,0,.71999999,-23.702727,-16.602627)" stroke-width=".6875" stroke-linecap="square" stroke-linejoin="round" fill="none" stroke="#262626" d="M487 305H482.83"/>
<path transform="matrix(.71999999,0,0,.71999999,-23.702727,-16.602627)" stroke-width=".6875" stroke-linecap="square" stroke-linejoin="round" fill="none" stroke="#262626" d="M487 250H482.83"/>
<path transform="matrix(.71999999,0,0,.71999999,-23.702727,-16.602627)" stroke-width=".6875" stroke-linecap="square" stroke-linejoin="round" fill="none" stroke="#262626" d="M487 195H482.83"/>
<path transform="matrix(.71999999,0,0,.71999999,-23.702727,-16.602627)" stroke-width=".6875" stroke-linecap="square" stroke-linejoin="round" fill="none" stroke="#262626" d="M487 140H482.83"/>
<path transform="matrix(.71999999,0,0,.71999999,-23.702727,-16.602627)" stroke-width=".6875" stroke-linecap="square" stroke-linejoin="round" fill="none" stroke="#262626" d="M487 85H482.83"/>
<path transform="matrix(.71999999,0,0,.71999999,-23.702727,-16.602627)" stroke-width=".6875" stroke-linecap="square" stroke-linejoin="round" fill="none" stroke="#262626" d="M487 30H482.83"/>
<text fill="#262626" xml:space="preserve" transform="matrix(.71999999 0 0 .71999999 17.697274 245.83737)" font-size="13" font-family="LiberationSans"><tspan y="0" x="0">0</tspan></text>
<text fill="#262626" xml:space="preserve" transform="matrix(.71999999 0 0 .71999999 17.697274 206.23737)" font-size="13" font-family="LiberationSans"><tspan y="0" x="0">2</tspan></text>
<text fill="#262626" xml:space="preserve" transform="matrix(.71999999 0 0 .71999999 17.697274 166.63738)" font-size="13" font-family="LiberationSans"><tspan y="0" x="0">4</tspan></text>
<text fill="#262626" xml:space="preserve" transform="matrix(.71999999 0 0 .71999999 17.697274 127.03737)" font-size="13" font-family="LiberationSans"><tspan y="0" x="0">6</tspan></text>
<text fill="#262626" xml:space="preserve" transform="matrix(.71999999 0 0 .71999999 17.697274 87.43737)" font-size="13" font-family="LiberationSans"><tspan y="0" x="0">8</tspan></text>
<text fill="#262626" xml:space="preserve" transform="matrix(.71999999 0 0 .71999999 12.657272 47.83737)" font-size="13" font-family="LiberationSans"><tspan y="0" x="0 7.21875">10</tspan></text>
<text fill="#262626" xml:space="preserve" transform="matrix(.71999999 0 0 .71999999 12.657272 8.237373)" font-size="13" font-family="LiberationSans"><tspan y="0" x="0 7.21875">12</tspan></text>
<text fill="#262626" xml:space="preserve" transform="matrix(0 -.71999999 .71999999 0 6.807273 126.67726)" font-size="15" font-family="LiberationSans"><tspan y="0" x="0">y</tspan></text>
<path transform="matrix(.71999999,0,0,.71999999,-23.702727,-16.602627)" stroke-width=".6875" stroke-linecap="butt" stroke-linejoin="round" fill="none" stroke="#ff0000" d="M70 360 80.425 358.28126 90.85 353.125 101.275 344.53126 111.7 332.5 122.125 317.03126 132.55 298.125 142.975 275.78126 153.4 250"/>
<path transform="matrix(.71999999,0,0,.71999999,-23.702727,-16.602627)" stroke-width=".6875" stroke-linecap="butt" stroke-miterlimit="2" stroke-linejoin="miter" fill="none" stroke="#ff0000" d="M74.125 360C74.125 357.72184 72.278179 355.875 70 355.875 67.721828 355.875 65.875 357.72184 65.875 360 65.875 362.27818 67.721828 364.125 70 364.125 72.278179 364.125 74.125 362.27818 74.125 360Z"/>
<path transform="matrix(.71999999,0,0,.71999999,-23.702727,-16.602627)" stroke-width=".6875" stroke-linecap="butt" stroke-miterlimit="2" stroke-linejoin="miter" fill="none" stroke="#ff0000" d="M84.55 358.28126C84.55 356.00309 82.70318 354.15626 80.425 354.15626 78.14683 354.15626 76.3 356.00309 76.3 358.28126 76.3 360.55943 78.14683 362.40626 80.425 362.40626 82.70318 362.40626 84.55 360.55943 84.55 358.28126Z"/>
<path transform="matrix(.71999999,0,0,.71999999,-23.702727,-16.602627)" stroke-width=".6875" stroke-linecap="butt" stroke-miterlimit="2" stroke-linejoin="miter" fill="none" stroke="#ff0000" d="M94.975 353.125C94.975 350.84684 93.128177 349 90.85 349 88.57182 349 86.725 350.84684 86.725 353.125 86.725 355.40318 88.57182 357.25 90.85 357.25 93.128177 357.25 94.975 355.40318 94.975 353.125Z"/>
<path transform="matrix(.71999999,0,0,.71999999,-23.702727,-16.602627)" stroke-width=".6875" stroke-linecap="butt" stroke-miterlimit="2" stroke-linejoin="miter" fill="none" stroke="#ff0000" d="M105.4 344.53126C105.4 342.25309 103.55318 340.40626 101.275 340.40626 98.996829 340.40626 97.15 342.25309 97.15 344.53126 97.15 346.80943 98.996829 348.65626 101.275 348.65626 103.55318 348.65626 105.4 346.80943 105.4 344.53126Z"/>
<path transform="matrix(.71999999,0,0,.71999999,-23.702727,-16.602627)" stroke-width=".6875" stroke-linecap="butt" stroke-miterlimit="2" stroke-linejoin="miter" fill="none" stroke="#ff0000" d="M115.825 332.5C115.825 330.22184 113.97817 328.375 111.7 328.375 109.42182 328.375 107.575 330.22184 107.575 332.5 107.575 334.77818 109.42182 336.625 111.7 336.625 113.97817 336.625 115.825 334.77818 115.825 332.5Z"/>
<path transform="matrix(.71999999,0,0,.71999999,-23.702727,-16.602627)" stroke-width=".6875" stroke-linecap="butt" stroke-miterlimit="2" stroke-linejoin="miter" fill="none" stroke="#ff0000" d="M126.25 317.03126C126.25 314.75309 124.403179 312.90626 122.125 312.90626 119.846828 312.90626 118 314.75309 118 317.03126 118 319.30943 119.846828 321.15626 122.125 321.15626 124.403179 321.15626 126.25 319.30943 126.25 317.03126Z"/>
<path transform="matrix(.71999999,0,0,.71999999,-23.702727,-16.602627)" stroke-width=".6875" stroke-linecap="butt" stroke-miterlimit="2" stroke-linejoin="miter" fill="none" stroke="#ff0000" d="M136.675 298.125C136.675 295.84684 134.82817 294 132.55 294 130.27184 294 128.425 295.84684 128.425 298.125 128.425 300.40318 130.27184 302.25 132.55 302.25 134.82817 302.25 136.675 300.40318 136.675 298.125Z"/>
<path transform="matrix(.71999999,0,0,.71999999,-23.702727,-16.602627)" stroke-width=".6875" stroke-linecap="butt" stroke-miterlimit="2" stroke-linejoin="miter" fill="none" stroke="#ff0000" d="M147.1 275.78126C147.1 273.50309 145.25318 271.65626 142.975 271.65626 140.69684 271.65626 138.85 273.50309 138.85 275.78126 138.85 278.05943 140.69684 279.90626 142.975 279.90626 145.25318 279.90626 147.1 278.05943 147.1 275.78126Z"/>
<path transform="matrix(.71999999,0,0,.71999999,-23.702727,-16.602627)" stroke-width=".6875" stroke-linecap="butt" stroke-miterlimit="2" stroke-linejoin="miter" fill="none" stroke="#ff0000" d="M157.525 250C157.525 247.72183 155.67816 245.875 153.4 245.875 151.12183 245.875 149.275 247.72183 149.275 250 149.275 252.27817 151.12183 254.125 153.4 254.125 155.67816 254.125 157.525 252.27817 157.525 250Z"/>
<path transform="matrix(.71999999,0,0,.71999999,-23.702727,-16.602627)" stroke-width=".6875" stroke-linecap="butt" stroke-linejoin="round" fill="none" stroke="#00ff00" d="M153.4 250 163.825 222.5 174.25 195 184.675 167.5 195.1 140"/>
<path transform="matrix(.71999999,0,0,.71999999,-23.702727,-16.602627)" stroke-width=".6875" stroke-linecap="butt" stroke-miterlimit="2" stroke-linejoin="miter" fill="none" stroke="#00ff00" d="M153.4 245V255"/>
<path transform="matrix(.71999999,0,0,.71999999,-23.702727,-16.602627)" stroke-width=".6875" stroke-linecap="butt" stroke-miterlimit="2" stroke-linejoin="miter" fill="none" stroke="#00ff00" d="M148.4 250H158.4"/>
<path transform="matrix(.71999999,0,0,.71999999,-23.702727,-16.602627)" stroke-width=".6875" stroke-linecap="butt" stroke-miterlimit="2" stroke-linejoin="miter" fill="none" stroke="#00ff00" d="M150.48319 247.08319 156.3168 252.91681"/>
<path transform="matrix(.71999999,0,0,.71999999,-23.702727,-16.602627)" stroke-width=".6875" stroke-linecap="butt" stroke-miterlimit="2" stroke-linejoin="miter" fill="none" stroke="#00ff00" d="M150.48319 252.91681 156.3168 247.08319"/>
<path transform="matrix(.71999999,0,0,.71999999,-23.702727,-16.602627)" stroke-width=".6875" stroke-linecap="butt" stroke-miterlimit="2" stroke-linejoin="miter" fill="none" stroke="#00ff00" d="M163.825 217.5V227.5"/>
<path transform="matrix(.71999999,0,0,.71999999,-23.702727,-16.602627)" stroke-width=".6875" stroke-linecap="butt" stroke-miterlimit="2" stroke-linejoin="miter" fill="none" stroke="#00ff00" d="M158.825 222.5H168.825"/>
<path transform="matrix(.71999999,0,0,.71999999,-23.702727,-16.602627)" stroke-width=".6875" stroke-linecap="butt" stroke-miterlimit="2" stroke-linejoin="miter" fill="none" stroke="#00ff00" d="M160.90819 219.58319 166.7418 225.41681"/>
<path transform="matrix(.71999999,0,0,.71999999,-23.702727,-16.602627)" stroke-width=".6875" stroke-linecap="butt" stroke-miterlimit="2" stroke-linejoin="miter" fill="none" stroke="#00ff00" d="M160.90819 225.41681 166.7418 219.58319"/>
<path transform="matrix(.71999999,0,0,.71999999,-23.702727,-16.602627)" stroke-width=".6875" stroke-linecap="butt" stroke-miterlimit="2" stroke-linejoin="miter" fill="none" stroke="#00ff00" d="M174.25 190V200"/>
<path transform="matrix(.71999999,0,0,.71999999,-23.702727,-16.602627)" stroke-width=".6875" stroke-linecap="butt" stroke-miterlimit="2" stroke-linejoin="miter" fill="none" stroke="#00ff00" d="M169.25 195H179.25"/>
<path transform="matrix(.71999999,0,0,.71999999,-23.702727,-16.602627)" stroke-width=".6875" stroke-linecap="butt" stroke-miterlimit="2" stroke-linejoin="miter" fill="none" stroke="#00ff00" d="M171.33319 192.08319 177.16681 197.91681"/>
<path transform="matrix(.71999999,0,0,.71999999,-23.702727,-16.602627)" stroke-width=".6875" stroke-linecap="butt" stroke-miterlimit="2" stroke-linejoin="miter" fill="none" stroke="#00ff00" d="M171.33319 197.91681 177.16681 192.08319"/>
<path transform="matrix(.71999999,0,0,.71999999,-23.702727,-16.602627)" stroke-width=".6875" stroke-linecap="butt" stroke-miterlimit="2" stroke-linejoin="miter" fill="none" stroke="#00ff00" d="M184.675 162.5V172.5"/>
<path transform="matrix(.71999999,0,0,.71999999,-23.702727,-16.602627)" stroke-width=".6875" stroke-linecap="butt" stroke-miterlimit="2" stroke-linejoin="miter" fill="none" stroke="#00ff00" d="M179.675 167.5H189.675"/>
<path transform="matrix(.71999999,0,0,.71999999,-23.702727,-16.602627)" stroke-width=".6875" stroke-linecap="butt" stroke-miterlimit="2" stroke-linejoin="miter" fill="none" stroke="#00ff00" d="M181.7582 164.58319 187.59181 170.41681"/>
<path transform="matrix(.71999999,0,0,.71999999,-23.702727,-16.602627)" stroke-width=".6875" stroke-linecap="butt" stroke-miterlimit="2" stroke-linejoin="miter" fill="none" stroke="#00ff00" d="M181.7582 170.41681 187.59181 164.58319"/>
<path transform="matrix(.71999999,0,0,.71999999,-23.702727,-16.602627)" stroke-width=".6875" stroke-linecap="butt" stroke-miterlimit="2" stroke-linejoin="miter" fill="none" stroke="#00ff00" d="M195.1 135V145"/>
<path transform="matrix(.71999999,0,0,.71999999,-23.702727,-16.602627)" stroke-width=".6875" stroke-linecap="butt" stroke-miterlimit="2" stroke-linejoin="miter" fill="none" stroke="#00ff00" d="M190.1 140H200.1"/>
<path transform="matrix(.71999999,0,0,.71999999,-23.702727,-16.602627)" stroke-width=".6875" stroke-linecap="butt" stroke-miterlimit="2" stroke-linejoin="miter" fill="none" stroke="#00ff00" d="M192.1832 137.08319 198.01682 142.91681"/>
<path transform="matrix(.71999999,0,0,.71999999,-23.702727,-16.602627)" stroke-width=".6875" stroke-linecap="butt" stroke-miterlimit="2" stroke-linejoin="miter" fill="none" stroke="#00ff00" d="M192.1832 142.91681 198.01682 137.08319"/>
<path transform="matrix(.71999999,0,0,.71999999,-23.702727,-16.602627)" stroke-width=".6875" stroke-linecap="butt" stroke-linejoin="round" fill="none" stroke="#0000ff" d="M195.1 140 205.525 114.21875 215.95 91.875 226.375 72.96875 236.8 57.5 247.225 45.46875 257.65 36.875 268.075 31.71875 278.5 30"/>
<path transform="matrix(.71999999,0,0,.71999999,-23.702727,-16.602627)" stroke-width=".6875" stroke-linecap="butt" stroke-miterlimit="2" stroke-linejoin="miter" fill="none" stroke="#0000ff" d="M191.8825 136.7825V143.2175H198.3175V136.7825H191.8825Z"/>
<path transform="matrix(.71999999,0,0,.71999999,-23.702727,-16.602627)" stroke-width=".6875" stroke-linecap="butt" stroke-miterlimit="2" stroke-linejoin="miter" fill="none" stroke="#0000ff" d="M202.3075 111.00125V117.43625H208.7425V111.00125H202.3075Z"/>
<path transform="matrix(.71999999,0,0,.71999999,-23.702727,-16.602627)" stroke-width=".6875" stroke-linecap="butt" stroke-miterlimit="2" stroke-linejoin="miter" fill="none" stroke="#0000ff" d="M212.7325 88.6575V95.0925H219.1675V88.6575H212.7325Z"/>
<path transform="matrix(.71999999,0,0,.71999999,-23.702727,-16.602627)" stroke-width=".6875" stroke-linecap="butt" stroke-miterlimit="2" stroke-linejoin="miter" fill="none" stroke="#0000ff" d="M223.1575 69.75125V76.18625H229.5925V69.75125H223.1575Z"/>
<path transform="matrix(.71999999,0,0,.71999999,-23.702727,-16.602627)" stroke-width=".6875" stroke-linecap="butt" stroke-miterlimit="2" stroke-linejoin="miter" fill="none" stroke="#0000ff" d="M233.5825 54.2825V60.7175H240.0175V54.2825H233.5825Z"/>
<path transform="matrix(.71999999,0,0,.71999999,-23.702727,-16.602627)" stroke-width=".6875" stroke-linecap="butt" stroke-miterlimit="2" stroke-linejoin="miter" fill="none" stroke="#0000ff" d="M244.0075 42.25125V48.68625H250.4425V42.25125H244.0075Z"/>
<path transform="matrix(.71999999,0,0,.71999999,-23.702727,-16.602627)" stroke-width=".6875" stroke-linecap="butt" stroke-miterlimit="2" stroke-linejoin="miter" fill="none" stroke="#0000ff" d="M254.4325 33.6575V40.0925H260.8675V33.6575H254.4325Z"/>
<path transform="matrix(.71999999,0,0,.71999999,-23.702727,-16.602627)" stroke-width=".6875" stroke-linecap="butt" stroke-miterlimit="2" stroke-linejoin="miter" fill="none" stroke="#0000ff" d="M264.8575 28.50125V34.93625H271.2925V28.50125H264.8575Z"/>
<path transform="matrix(.71999999,0,0,.71999999,-23.702727,-16.602627)" stroke-width=".6875" stroke-linecap="butt" stroke-miterlimit="2" stroke-linejoin="miter" fill="none" stroke="#0000ff" d="M275.2825 26.7825V33.2175H281.7175V26.7825H275.2825Z"/>
<path transform="matrix(.71999999,0,0,.71999999,-23.702727,-16.602627)" stroke-width=".6875" stroke-linecap="butt" stroke-linejoin="round" fill="none" stroke="#ff00ff" d="M278.5 30H288.925 299.35 309.775 320.2"/>
<path transform="matrix(.71999999,0,0,.71999999,-23.702727,-16.602627)" stroke-width=".6875" stroke-linecap="butt" stroke-miterlimit="2" stroke-linejoin="miter" fill="none" stroke="#ff00ff" d="M278.5 25V35"/>
<path transform="matrix(.71999999,0,0,.71999999,-23.702727,-16.602627)" stroke-width=".6875" stroke-linecap="butt" stroke-miterlimit="2" stroke-linejoin="miter" fill="none" stroke="#ff00ff" d="M273.5 30H283.5"/>
<path transform="matrix(.71999999,0,0,.71999999,-23.702727,-16.602627)" stroke-width=".6875" stroke-linecap="butt" stroke-miterlimit="2" stroke-linejoin="miter" fill="none" stroke="#ff00ff" d="M288.925 25V35"/>
<path transform="matrix(.71999999,0,0,.71999999,-23.702727,-16.602627)" stroke-width=".6875" stroke-linecap="butt" stroke-miterlimit="2" stroke-linejoin="miter" fill="none" stroke="#ff00ff" d="M283.925 30H293.925"/>
<path transform="matrix(.71999999,0,0,.71999999,-23.702727,-16.602627)" stroke-width=".6875" stroke-linecap="butt" stroke-miterlimit="2" stroke-linejoin="miter" fill="none" stroke="#ff00ff" d="M299.35 25V35"/>
<path transform="matrix(.71999999,0,0,.71999999,-23.702727,-16.602627)" stroke-width=".6875" stroke-linecap="butt" stroke-miterlimit="2" stroke-linejoin="miter" fill="none" stroke="#ff00ff" d="M294.35 30H304.35"/>
<path transform="matrix(.71999999,0,0,.71999999,-23.702727,-16.602627)" stroke-width=".6875" stroke-linecap="butt" stroke-miterlimit="2" stroke-linejoin="miter" fill="none" stroke="#ff00ff" d="M309.775 25V35"/>
<path transform="matrix(.71999999,0,0,.71999999,-23.702727,-16.602627)" stroke-width=".6875" stroke-linecap="butt" stroke-miterlimit="2" stroke-linejoin="miter" fill="none" stroke="#ff00ff" d="M304.775 30H314.775"/>
<path transform="matrix(.71999999,0,0,.71999999,-23.702727,-16.602627)" stroke-width=".6875" stroke-linecap="butt" stroke-miterlimit="2" stroke-linejoin="miter" fill="none" stroke="#ff00ff" d="M320.2 25V35"/>
<path transform="matrix(.71999999,0,0,.71999999,-23.702727,-16.602627)" stroke-width=".6875" stroke-linecap="butt" stroke-miterlimit="2" stroke-linejoin="miter" fill="none" stroke="#ff00ff" d="M315.2 30H325.2"/>
<path transform="matrix(.71999999,0,0,.71999999,-23.702727,-16.602627)" stroke-width=".6875" stroke-linecap="butt" stroke-linejoin="round" fill="none" stroke="#000000" d="M320.2 30 330.625 31.71875 341.05 36.875 351.475 45.46875 361.9 57.5 372.325 72.96875 382.75 91.875 393.175 114.21875 403.6 140"/>
<path transform="matrix(.71999999,0,0,.71999999,-23.702727,-16.602627)" stroke-width=".6875" stroke-linecap="butt" stroke-miterlimit="2" stroke-linejoin="miter" fill="none" stroke="#000000" d="M316.075 30 320.2 35.48625 324.325 30 320.2 24.51375 316.075 30Z"/>
<path transform="matrix(.71999999,0,0,.71999999,-23.702727,-16.602627)" stroke-width=".6875" stroke-linecap="butt" stroke-miterlimit="2" stroke-linejoin="miter" fill="none" stroke="#000000" d="M326.5 31.71875 330.625 37.205 334.75 31.71875 330.625 26.2325 326.5 31.71875Z"/>
<path transform="matrix(.71999999,0,0,.71999999,-23.702727,-16.602627)" stroke-width=".6875" stroke-linecap="butt" stroke-miterlimit="2" stroke-linejoin="miter" fill="none" stroke="#000000" d="M336.925 36.875 341.05 42.36125 345.175 36.875 341.05 31.38875 336.925 36.875Z"/>
<path transform="matrix(.71999999,0,0,.71999999,-23.702727,-16.602627)" stroke-width=".6875" stroke-linecap="butt" stroke-miterlimit="2" stroke-linejoin="miter" fill="none" stroke="#000000" d="M347.35 45.46875 351.475 50.955 355.6 45.46875 351.475 39.9825 347.35 45.46875Z"/>
<path transform="matrix(.71999999,0,0,.71999999,-23.702727,-16.602627)" stroke-width=".6875" stroke-linecap="butt" stroke-miterlimit="2" stroke-linejoin="miter" fill="none" stroke="#000000" d="M357.775 57.5 361.9 62.98625 366.025 57.5 361.9 52.01375 357.775 57.5Z"/>
<path transform="matrix(.71999999,0,0,.71999999,-23.702727,-16.602627)" stroke-width=".6875" stroke-linecap="butt" stroke-miterlimit="2" stroke-linejoin="miter" fill="none" stroke="#000000" d="M368.2 72.96875 372.325 78.455 376.45 72.96875 372.325 67.4825 368.2 72.96875Z"/>
<path transform="matrix(.71999999,0,0,.71999999,-23.702727,-16.602627)" stroke-width=".6875" stroke-linecap="butt" stroke-miterlimit="2" stroke-linejoin="miter" fill="none" stroke="#000000" d="M378.625 91.875 382.75 97.36125 386.875 91.875 382.75 86.38875 378.625 91.875Z"/>
<path transform="matrix(.71999999,0,0,.71999999,-23.702727,-16.602627)" stroke-width=".6875" stroke-linecap="butt" stroke-miterlimit="2" stroke-linejoin="miter" fill="none" stroke="#000000" d="M389.05 114.21875 393.175 119.705 397.3 114.21875 393.175 108.7325 389.05 114.21875Z"/>
<path transform="matrix(.71999999,0,0,.71999999,-23.702727,-16.602627)" stroke-width=".6875" stroke-linecap="butt" stroke-miterlimit="2" stroke-linejoin="miter" fill="none" stroke="#000000" d="M399.475 140 403.6 145.48625 407.725 140 403.6 134.51375 399.475 140Z"/>
<path transform="matrix(.71999999,0,0,.71999999,-23.702727,-16.602627)" stroke-width=".6875" stroke-linecap="butt" stroke-linejoin="round" fill="none" stroke="#00ffff" d="M403.6 140 414.025 164.0625 424.45 181.25 434.875 191.5625 445.3 195 455.725 191.5625 466.15 181.25 476.575 164.0625 487 140"/>
<path transform="matrix(.71999999,0,0,.71999999,-23.702727,-16.602627)" stroke-width=".6875" stroke-linecap="butt" stroke-miterlimit="2" stroke-linejoin="miter" fill="none" stroke="#00ffff" d="M400.6832 137.08319 406.5168 142.91681"/>
<path transform="matrix(.71999999,0,0,.71999999,-23.702727,-16.602627)" stroke-width=".6875" stroke-linecap="butt" stroke-miterlimit="2" stroke-linejoin="miter" fill="none" stroke="#00ffff" d="M400.6832 142.91681 406.5168 137.08319"/>
<path transform="matrix(.71999999,0,0,.71999999,-23.702727,-16.602627)" stroke-width=".6875" stroke-linecap="butt" stroke-miterlimit="2" stroke-linejoin="miter" fill="none" stroke="#00ffff" d="M411.1082 161.14569 416.9418 166.97931"/>
<path transform="matrix(.71999999,0,0,.71999999,-23.702727,-16.602627)" stroke-width=".6875" stroke-linecap="butt" stroke-miterlimit="2" stroke-linejoin="miter" fill="none" stroke="#00ffff" d="M411.1082 166.97931 416.9418 161.14569"/>
<path transform="matrix(.71999999,0,0,.71999999,-23.702727,-16.602627)" stroke-width=".6875" stroke-linecap="butt" stroke-miterlimit="2" stroke-linejoin="miter" fill="none" stroke="#00ffff" d="M421.5332 178.33319 427.36683 184.16681"/>
<path transform="matrix(.71999999,0,0,.71999999,-23.702727,-16.602627)" stroke-width=".6875" stroke-linecap="butt" stroke-miterlimit="2" stroke-linejoin="miter" fill="none" stroke="#00ffff" d="M421.5332 184.16681 427.36683 178.33319"/>
<path transform="matrix(.71999999,0,0,.71999999,-23.702727,-16.602627)" stroke-width=".6875" stroke-linecap="butt" stroke-miterlimit="2" stroke-linejoin="miter" fill="none" stroke="#00ffff" d="M431.9582 188.64569 437.7918 194.47931"/>
<path transform="matrix(.71999999,0,0,.71999999,-23.702727,-16.602627)" stroke-width=".6875" stroke-linecap="butt" stroke-miterlimit="2" stroke-linejoin="miter" fill="none" stroke="#00ffff" d="M431.9582 194.47931 437.7918 188.64569"/>
<path transform="matrix(.71999999,0,0,.71999999,-23.702727,-16.602627)" stroke-width=".6875" stroke-linecap="butt" stroke-miterlimit="2" stroke-linejoin="miter" fill="none" stroke="#00ffff" d="M442.38319 192.08319 448.2168 197.91681"/>
<path transform="matrix(.71999999,0,0,.71999999,-23.702727,-16.602627)" stroke-width=".6875" stroke-linecap="butt" stroke-miterlimit="2" stroke-linejoin="miter" fill="none" stroke="#00ffff" d="M442.38319 197.91681 448.2168 192.08319"/>
<path transform="matrix(.71999999,0,0,.71999999,-23.702727,-16.602627)" stroke-width=".6875" stroke-linecap="butt" stroke-miterlimit="2" stroke-linejoin="miter" fill="none" stroke="#00ffff" d="M452.8082 188.64569 458.6418 194.47931"/>
<path transform="matrix(.71999999,0,0,.71999999,-23.702727,-16.602627)" stroke-width=".6875" stroke-linecap="butt" stroke-miterlimit="2" stroke-linejoin="miter" fill="none" stroke="#00ffff" d="M452.8082 194.47931 458.6418 188.64569"/>
<path transform="matrix(.71999999,0,0,.71999999,-23.702727,-16.602627)" stroke-width=".6875" stroke-linecap="butt" stroke-miterlimit="2" stroke-linejoin="miter" fill="none" stroke="#00ffff" d="M463.2332 178.33319 469.0668 184.16681"/>
<path transform="matrix(.71999999,0,0,.71999999,-23.702727,-16.602627)" stroke-width=".6875" stroke-linecap="butt" stroke-miterlimit="2" stroke-linejoin="miter" fill="none" stroke="#00ffff" d="M463.2332 184.16681 469.0668 178.33319"/>
<path transform="matrix(.71999999,0,0,.71999999,-23.702727,-16.602627)" stroke-width=".6875" stroke-linecap="butt" stroke-miterlimit="2" stroke-linejoin="miter" fill="none" stroke="#00ffff" d="M473.6582 161.14569 479.49183 166.97931"/>
<path transform="matrix(.71999999,0,0,.71999999,-23.702727,-16.602627)" stroke-width=".6875" stroke-linecap="butt" stroke-miterlimit="2" stroke-linejoin="miter" fill="none" stroke="#00ffff" d="M473.6582 166.97931 479.49183 161.14569"/>
<path transform="matrix(.71999999,0,0,.71999999,-23.702727,-16.602627)" stroke-width=".6875" stroke-linecap="butt" stroke-miterlimit="2" stroke-linejoin="miter" fill="none" stroke="#00ffff" d="M484.0832 137.08319 489.9168 142.91681"/>
<path transform="matrix(.71999999,0,0,.71999999,-23.702727,-16.602627)" stroke-width=".6875" stroke-linecap="butt" stroke-miterlimit="2" stroke-linejoin="miter" fill="none" stroke="#00ffff" d="M484.0832 142.91681 489.9168 137.08319"/>
</svg>
