<svg xmlns="http://www.w3.org/2000/svg" xmlns:xlink="http://www.w3.org/1999/xlink" version="1.1" width="284pt" height="106pt" viewBox="0 0 284 106">
<path transform="matrix(.75,0,0,.75,0,0)" d="M-.6676305-1.0168346H373.73237V139.14316H-.6676305V-1.0168346Z" fill="#ffffff" fill-rule="evenodd"/>
<path transform="matrix(.75,0,0,.75,0,0)" d="M16.612368 123.78316H368.93238V6.663161H16.612368V123.78316Z" fill="#ffffff" fill-rule="evenodd"/>
<path transform="matrix(.75,0,0,.75,0,0)" d="M16.28237 123.783168V6.6631658H16.94237V123.783168H16.28237Z" fill="#262626" fill-opacity=".14901962"/>
<path transform="matrix(.75,0,0,.75,0,0)" d="M86.74639 123.783168V6.6631658H87.406398V123.783168H86.74639Z" fill="#262626" fill-opacity=".14901962"/>
<path transform="matrix(.75,0,0,.75,0,0)" d="M157.21036 123.783168V6.6631658H157.87036V123.783168H157.21036Z" fill="#262626" fill-opacity=".14901962"/>
<path transform="matrix(.75,0,0,.75,0,0)" d="M227.67438 123.783168V6.6631658H228.33438V123.783168H227.67438Z" fill="#262626" fill-opacity=".14901962"/>
<path transform="matrix(.75,0,0,.75,0,0)" d="M298.13835 123.783168V6.6631658H298.79835V123.783168H298.13835Z" fill="#262626" fill-opacity=".14901962"/>
<path transform="matrix(.75,0,0,.75,0,0)" d="M368.60237 123.783168V6.6631658H369.26237V123.783168H368.60237Z" fill="#262626" fill-opacity=".14901962"/>
<path transform="matrix(.75,0,0,.75,0,0)" d="M368.93238 124.11317H16.61237V123.45316H368.93238V124.11317Z" fill="#262626" fill-opacity=".14901962"/>
<path transform="matrix(.75,0,0,.75,0,0)" d="M368.93238 85.07317H16.61237V84.41318H368.93238V85.07317Z" fill="#262626" fill-opacity=".14901962"/>
<path transform="matrix(.75,0,0,.75,0,0)" d="M368.93238 46.03317H16.61237V45.37317H368.93238V46.03317Z" fill="#262626" fill-opacity=".14901962"/>
<path transform="matrix(.75,0,0,.75,0,0)" d="M368.93238 6.9931657H16.61237V6.333165H368.93238V6.9931657Z" fill="#262626" fill-opacity=".14901962"/>
<path transform="matrix(.71999999,0,0,.71999999,-32.180727,-135.40262)" stroke-width=".6875" stroke-linecap="square" stroke-linejoin="round" fill="none" stroke="#262626" d="M62 317H429"/>
<path transform="matrix(.71999999,0,0,.71999999,-32.180727,-135.40262)" stroke-width=".6875" stroke-linecap="square" stroke-linejoin="round" fill="none" stroke="#262626" d="M62 195H429"/>
<path transform="matrix(.71999999,0,0,.71999999,-32.180727,-135.40262)" stroke-width=".6875" stroke-linecap="square" stroke-linejoin="round" fill="none" stroke="#262626" d="M62 317V313.33003"/>
<path transform="matrix(.71999999,0,0,.71999999,-32.180727,-135.40262)" stroke-width=".6875" stroke-linecap="square" stroke-linejoin="round" fill="none" stroke="#262626" d="M135.40003 317V313.33003"/>
<path transform="matrix(.71999999,0,0,.71999999,-32.180727,-135.40262)" stroke-width=".6875" stroke-linecap="square" stroke-linejoin="round" fill="none" stroke="#262626" d="M208.79999 317V313.33003"/>
<path transform="matrix(.71999999,0,0,.71999999,-32.180727,-135.40262)" stroke-width=".6875" stroke-linecap="square" stroke-linejoin="round" fill="none" stroke="#262626" d="M282.2 317V313.33003"/>
<path transform="matrix(.71999999,0,0,.71999999,-32.180727,-135.40262)" stroke-width=".6875" stroke-linecap="square" stroke-linejoin="round" fill="none" stroke="#262626" d="M355.59999 317V313.33003"/>
<path transform="matrix(.71999999,0,0,.71999999,-32.180727,-135.40262)" stroke-width=".6875" stroke-linecap="square" stroke-linejoin="round" fill="none" stroke="#262626" d="M429 317V313.33003"/>
<path transform="matrix(.71999999,0,0,.71999999,-32.180727,-135.40262)" stroke-width=".6875" stroke-linecap="square" stroke-linejoin="round" fill="none" stroke="#262626" d="M62 195V198.67002"/>
<path transform="matrix(.71999999,0,0,.71999999,-32.180727,-135.40262)" stroke-width=".6875" stroke-linecap="square" stroke-linejoin="round" fill="none" stroke="#262626" d="M135.40003 195V198.67002"/>
<path transform="matrix(.71999999,0,0,.71999999,-32.180727,-135.40262)" stroke-width=".6875" stroke-linecap="square" stroke-linejoin="round" fill="none" stroke="#262626" d="M208.79999 195V198.67002"/>
<path transform="matrix(.71999999,0,0,.71999999,-32.180727,-135.40262)" stroke-width=".6875" stroke-linecap="square" stroke-linejoin="round" fill="none" stroke="#262626" d="M282.2 195V198.67002"/>
<path transform="matrix(.71999999,0,0,.71999999,-32.180727,-135.40262)" stroke-width=".6875" stroke-linecap="square" stroke-linejoin="round" fill="none" stroke="#262626" d="M355.59999 195V198.67002"/>
<path transform="matrix(.71999999,0,0,.71999999,-32.180727,-135.40262)" stroke-width=".6875" stroke-linecap="square" stroke-linejoin="round" fill="none" stroke="#262626" d="M429 195V198.67002"/>
<text fill="#262626" xml:space="preserve" transform="matrix(.71999999 0 0 .71999999 9.939277 103.52937)" font-size="12" font-family="LiberationSans"><tspan y="0" x="0">1</tspan></text>
<text fill="#262626" xml:space="preserve" transform="matrix(.71999999 0 0 .71999999 59.187295 103.52937)" font-size="12" font-family="LiberationSans"><tspan y="0" x="0 6.671875 10">1.2</tspan></text>
<text fill="#262626" xml:space="preserve" transform="matrix(.71999999 0 0 .71999999 112.03526 103.52937)" font-size="12" font-family="LiberationSans"><tspan y="0" x="0 6.671875 10">1.4</tspan></text>
<text fill="#262626" xml:space="preserve" transform="matrix(.71999999 0 0 .71999999 164.88329 103.52937)" font-size="12" font-family="LiberationSans"><tspan y="0" x="0 6.671875 10">1.6</tspan></text>
<text fill="#262626" xml:space="preserve" transform="matrix(.71999999 0 0 .71999999 217.73126 103.52937)" font-size="12" font-family="LiberationSans"><tspan y="0" x="0 6.671875 10">1.8</tspan></text>
<text fill="#262626" xml:space="preserve" transform="matrix(.71999999 0 0 .71999999 274.17927 103.52937)" font-size="12" font-family="LiberationSans"><tspan y="0" x="0">2</tspan></text>
<path transform="matrix(.71999999,0,0,.71999999,-32.180727,-135.40262)" stroke-width=".6875" stroke-linecap="square" stroke-linejoin="round" fill="none" stroke="#262626" d="M62 317V195"/>
<path transform="matrix(.71999999,0,0,.71999999,-32.180727,-135.40262)" stroke-width=".6875" stroke-linecap="square" stroke-linejoin="round" fill="none" stroke="#262626" d="M429 317V195"/>
<path transform="matrix(.71999999,0,0,.71999999,-32.180727,-135.40262)" stroke-width=".6875" stroke-linecap="square" stroke-linejoin="round" fill="none" stroke="#262626" d="M62 317H65.67"/>
<path transform="matrix(.71999999,0,0,.71999999,-32.180727,-135.40262)" stroke-width=".6875" stroke-linecap="square" stroke-linejoin="round" fill="none" stroke="#262626" d="M62 276.33335H65.67"/>
<path transform="matrix(.71999999,0,0,.71999999,-32.180727,-135.40262)" stroke-width=".6875" stroke-linecap="square" stroke-linejoin="round" fill="none" stroke="#262626" d="M62 235.66667H65.67"/>
<path transform="matrix(.71999999,0,0,.71999999,-32.180727,-135.40262)" stroke-width=".6875" stroke-linecap="square" stroke-linejoin="round" fill="none" stroke="#262626" d="M62 195H65.67"/>
<path transform="matrix(.71999999,0,0,.71999999,-32.180727,-135.40262)" stroke-width=".6875" stroke-linecap="square" stroke-linejoin="round" fill="none" stroke="#262626" d="M429 317H425.33003"/>
<path transform="matrix(.71999999,0,0,.71999999,-32.180727,-135.40262)" stroke-width=".6875" stroke-linecap="square" stroke-linejoin="round" fill="none" stroke="#262626" d="M429 276.33335H425.33003"/>
<path transform="matrix(.71999999,0,0,.71999999,-32.180727,-135.40262)" stroke-width=".6875" stroke-linecap="square" stroke-linejoin="round" fill="none" stroke="#262626" d="M429 235.66667H425.33003"/>
<path transform="matrix(.71999999,0,0,.71999999,-32.180727,-135.40262)" stroke-width=".6875" stroke-linecap="square" stroke-linejoin="round" fill="none" stroke="#262626" d="M429 195H425.33003"/>
<text fill="#262626" xml:space="preserve" transform="matrix(.71999999 0 0 .71999999 .3272727 95.71737)" font-size="12" font-family="LiberationSans"><tspan y="0" x="0 6.671875">14</tspan></text>
<text fill="#262626" xml:space="preserve" transform="matrix(.71999999 0 0 .71999999 .3272727 66.43738)" font-size="12" font-family="LiberationSans"><tspan y="0" x="0 6.671875">16</tspan></text>
<text fill="#262626" xml:space="preserve" transform="matrix(.71999999 0 0 .71999999 .3272727 37.15738)" font-size="12" font-family="LiberationSans"><tspan y="0" x="0 6.671875">18</tspan></text>
<text fill="#262626" xml:space="preserve" transform="matrix(.71999999 0 0 .71999999 .3272727 7.8773739)" font-size="12" font-family="LiberationSans"><tspan y="0" x="0 6.671875">20</tspan></text>
<path transform="matrix(.71999999,0,0,.71999999,-32.180727,-135.40262)" stroke-width=".6875" stroke-linecap="butt" stroke-miterlimit="2" stroke-linejoin="miter" fill="none" stroke="#ff0000" d="M57.875 195 62 200.48625 66.125 195 62 189.51375 57.875 195Z"/>
<path transform="matrix(.71999999,0,0,.71999999,-32.180727,-135.40262)" stroke-width=".6875" stroke-linecap="butt" stroke-miterlimit="2" stroke-linejoin="miter" fill="none" stroke="#ff0000" d="M424.875 296.66667 429 302.1529 433.125 296.66667 429 291.18043 424.875 296.66667Z"/>
</svg>
