<svg xmlns="http://www.w3.org/2000/svg" xmlns:xlink="http://www.w3.org/1999/xlink" version="1.1" width="272pt" height="218pt" viewBox="0 0 272 218">
<path transform="matrix(.75,0,0,.75,0,0)" d="M-1.00364-1.0036364H358.03636V286.99638H-1.00364V-1.0036364Z" fill="#ffffff" fill-rule="evenodd"/>
<path transform="matrix(.75,0,0,.75,0,0)" d="M19.156359 269.71638H353.23637V5.716363H19.156359V269.71638Z" fill="#ffffff" fill-rule="evenodd"/>
<path transform="matrix(.75,0,0,.75,0,0)" d="M18.82636 269.71638V5.7163636H19.48636V269.71638H18.82636Z" fill="#262626" fill-opacity=".14901962"/>
<path transform="matrix(.75,0,0,.75,0,0)" d="M85.64237 269.71638V5.7163636H86.302379V269.71638H85.64237Z" fill="#262626" fill-opacity=".14901962"/>
<path transform="matrix(.75,0,0,.75,0,0)" d="M152.45836 269.71638V5.7163636H153.11837V269.71638H152.45836Z" fill="#262626" fill-opacity=".14901962"/>
<path transform="matrix(.75,0,0,.75,0,0)" d="M219.27439 269.71638V5.7163636H219.93437V269.71638H219.27439Z" fill="#262626" fill-opacity=".14901962"/>
<path transform="matrix(.75,0,0,.75,0,0)" d="M286.09037 269.71638V5.7163636H286.75038V269.71638H286.09037Z" fill="#262626" fill-opacity=".14901962"/>
<path transform="matrix(.75,0,0,.75,0,0)" d="M352.90638 269.71638V5.7163636H353.56636V269.71638H352.90638Z" fill="#262626" fill-opacity=".14901962"/>
<path transform="matrix(.75,0,0,.75,0,0)" d="M353.23637 270.04637H19.15636V269.38636H353.23637V270.04637Z" fill="#262626" fill-opacity=".14901962"/>
<path transform="matrix(.75,0,0,.75,0,0)" d="M353.23637 240.71305H19.15636V240.05304H353.23637V240.71305Z" fill="#262626" fill-opacity=".14901962"/>
<path transform="matrix(.75,0,0,.75,0,0)" d="M353.23637 211.3797H19.15636V210.7197H353.23637V211.3797Z" fill="#262626" fill-opacity=".14901962"/>
<path transform="matrix(.75,0,0,.75,0,0)" d="M353.23637 182.04636H19.15636V181.38636H353.23637V182.04636Z" fill="#262626" fill-opacity=".14901962"/>
<path transform="matrix(.75,0,0,.75,0,0)" d="M353.23637 152.71303H19.15636V152.05303H353.23637V152.71303Z" fill="#262626" fill-opacity=".14901962"/>
<path transform="matrix(.75,0,0,.75,0,0)" d="M353.23637 123.3797H19.15636V122.7197H353.23637V123.3797Z" fill="#262626" fill-opacity=".14901962"/>
<path transform="matrix(.75,0,0,.75,0,0)" d="M353.23637 94.046367H19.15636V93.38636H353.23637V94.046367Z" fill="#262626" fill-opacity=".14901962"/>
<path transform="matrix(.75,0,0,.75,0,0)" d="M353.23637 64.713039H19.15636V64.05303H353.23637V64.713039Z" fill="#262626" fill-opacity=".14901962"/>
<path transform="matrix(.75,0,0,.75,0,0)" d="M353.23637 35.3797H19.15636V34.7197H353.23637V35.3797Z" fill="#262626" fill-opacity=".14901962"/>
<path transform="matrix(.75,0,0,.75,0,0)" d="M353.23637 6.046364H19.15636V5.3863637H353.23637V6.046364Z" fill="#262626" fill-opacity=".14901962"/>
<path transform="matrix(.71999999,0,0,.71999999,-27.39273,-13.712727)" stroke-width=".6875" stroke-linecap="square" stroke-linejoin="round" fill="none" stroke="#262626" d="M58 300H406"/>
<path transform="matrix(.71999999,0,0,.71999999,-27.39273,-13.712727)" stroke-width=".6875" stroke-linecap="square" stroke-linejoin="round" fill="none" stroke="#262626" d="M58 25H406"/>
<path transform="matrix(.71999999,0,0,.71999999,-27.39273,-13.712727)" stroke-width=".6875" stroke-linecap="square" stroke-linejoin="round" fill="none" stroke="#262626" d="M58 300V296.52"/>
<path transform="matrix(.71999999,0,0,.71999999,-27.39273,-13.712727)" stroke-width=".6875" stroke-linecap="square" stroke-linejoin="round" fill="none" stroke="#262626" d="M127.60001 300V296.52"/>
<path transform="matrix(.71999999,0,0,.71999999,-27.39273,-13.712727)" stroke-width=".6875" stroke-linecap="square" stroke-linejoin="round" fill="none" stroke="#262626" d="M197.2 300V296.52"/>
<path transform="matrix(.71999999,0,0,.71999999,-27.39273,-13.712727)" stroke-width=".6875" stroke-linecap="square" stroke-linejoin="round" fill="none" stroke="#262626" d="M266.80003 300V296.52"/>
<path transform="matrix(.71999999,0,0,.71999999,-27.39273,-13.712727)" stroke-width=".6875" stroke-linecap="square" stroke-linejoin="round" fill="none" stroke="#262626" d="M336.4 300V296.52"/>
<path transform="matrix(.71999999,0,0,.71999999,-27.39273,-13.712727)" stroke-width=".6875" stroke-linecap="square" stroke-linejoin="round" fill="none" stroke="#262626" d="M406 300V296.52"/>
<path transform="matrix(.71999999,0,0,.71999999,-27.39273,-13.712727)" stroke-width=".6875" stroke-linecap="square" stroke-linejoin="round" fill="none" stroke="#262626" d="M58 25V28.479992"/>
<path transform="matrix(.71999999,0,0,.71999999,-27.39273,-13.712727)" stroke-width=".6875" stroke-linecap="square" stroke-linejoin="round" fill="none" stroke="#262626" d="M127.60001 25V28.479992"/>
<path transform="matrix(.71999999,0,0,.71999999,-27.39273,-13.712727)" stroke-width=".6875" stroke-linecap="square" stroke-linejoin="round" fill="none" stroke="#262626" d="M197.2 25V28.479992"/>
<path transform="matrix(.71999999,0,0,.71999999,-27.39273,-13.712727)" stroke-width=".6875" stroke-linecap="square" stroke-linejoin="round" fill="none" stroke="#262626" d="M266.80003 25V28.479992"/>
<path transform="matrix(.71999999,0,0,.71999999,-27.39273,-13.712727)" stroke-width=".6875" stroke-linecap="square" stroke-linejoin="round" fill="none" stroke="#262626" d="M336.4 25V28.479992"/>
<path transform="matrix(.71999999,0,0,.71999999,-27.39273,-13.712727)" stroke-width=".6875" stroke-linecap="square" stroke-linejoin="round" fill="none" stroke="#262626" d="M406 25V28.479992"/>
<text fill="#262626" xml:space="preserve" transform="matrix(.71999999 0 0 .71999999 11.84727 214.88727)" font-size="13" font-family="LiberationSans"><tspan y="0" x="0">1</tspan></text>
<text fill="#262626" xml:space="preserve" transform="matrix(.71999999 0 0 .71999999 57.999284 214.88727)" font-size="13" font-family="LiberationSans"><tspan y="0" x="0 7.21875 10.828125">1.2</tspan></text>
<text fill="#262626" xml:space="preserve" transform="matrix(.71999999 0 0 .71999999 108.11127 214.88727)" font-size="13" font-family="LiberationSans"><tspan y="0" x="0 7.21875 10.828125">1.4</tspan></text>
<text fill="#262626" xml:space="preserve" transform="matrix(.71999999 0 0 .71999999 158.22328 214.88727)" font-size="13" font-family="LiberationSans"><tspan y="0" x="0 7.21875 10.828125">1.6</tspan></text>
<text fill="#262626" xml:space="preserve" transform="matrix(.71999999 0 0 .71999999 208.33527 214.88727)" font-size="13" font-family="LiberationSans"><tspan y="0" x="0 7.21875 10.828125">1.8</tspan></text>
<text fill="#262626" xml:space="preserve" transform="matrix(.71999999 0 0 .71999999 262.4073 214.88727)" font-size="13" font-family="LiberationSans"><tspan y="0" x="0">2</tspan></text>
<path transform="matrix(.71999999,0,0,.71999999,-27.39273,-13.712727)" stroke-width=".6875" stroke-linecap="square" stroke-linejoin="round" fill="none" stroke="#262626" d="M58 300V25"/>
<path transform="matrix(.71999999,0,0,.71999999,-27.39273,-13.712727)" stroke-width=".6875" stroke-linecap="square" stroke-linejoin="round" fill="none" stroke="#262626" d="M406 300V25"/>
<path transform="matrix(.71999999,0,0,.71999999,-27.39273,-13.712727)" stroke-width=".6875" stroke-linecap="square" stroke-linejoin="round" fill="none" stroke="#262626" d="M58 300H61.479997"/>
<path transform="matrix(.71999999,0,0,.71999999,-27.39273,-13.712727)" stroke-width=".6875" stroke-linecap="square" stroke-linejoin="round" fill="none" stroke="#262626" d="M58 269.44447H61.479997"/>
<path transform="matrix(.71999999,0,0,.71999999,-27.39273,-13.712727)" stroke-width=".6875" stroke-linecap="square" stroke-linejoin="round" fill="none" stroke="#262626" d="M58 238.88889H61.479997"/>
<path transform="matrix(.71999999,0,0,.71999999,-27.39273,-13.712727)" stroke-width=".6875" stroke-linecap="square" stroke-linejoin="round" fill="none" stroke="#262626" d="M58 208.33333H61.479997"/>
<path transform="matrix(.71999999,0,0,.71999999,-27.39273,-13.712727)" stroke-width=".6875" stroke-linecap="square" stroke-linejoin="round" fill="none" stroke="#262626" d="M58 177.77777H61.479997"/>
<path transform="matrix(.71999999,0,0,.71999999,-27.39273,-13.712727)" stroke-width=".6875" stroke-linecap="square" stroke-linejoin="round" fill="none" stroke="#262626" d="M58 147.22223H61.479997"/>
<path transform="matrix(.71999999,0,0,.71999999,-27.39273,-13.712727)" stroke-width=".6875" stroke-linecap="square" stroke-linejoin="round" fill="none" stroke="#262626" d="M58 116.666667H61.479997"/>
<path transform="matrix(.71999999,0,0,.71999999,-27.39273,-13.712727)" stroke-width=".6875" stroke-linecap="square" stroke-linejoin="round" fill="none" stroke="#262626" d="M58 86.111118H61.479997"/>
<path transform="matrix(.71999999,0,0,.71999999,-27.39273,-13.712727)" stroke-width=".6875" stroke-linecap="square" stroke-linejoin="round" fill="none" stroke="#262626" d="M58 55.555559H61.479997"/>
<path transform="matrix(.71999999,0,0,.71999999,-27.39273,-13.712727)" stroke-width=".6875" stroke-linecap="square" stroke-linejoin="round" fill="none" stroke="#262626" d="M58 25H61.479997"/>
<path transform="matrix(.71999999,0,0,.71999999,-27.39273,-13.712727)" stroke-width=".6875" stroke-linecap="square" stroke-linejoin="round" fill="none" stroke="#262626" d="M406 300H402.52"/>
<path transform="matrix(.71999999,0,0,.71999999,-27.39273,-13.712727)" stroke-width=".6875" stroke-linecap="square" stroke-linejoin="round" fill="none" stroke="#262626" d="M406 269.44447H402.52"/>
<path transform="matrix(.71999999,0,0,.71999999,-27.39273,-13.712727)" stroke-width=".6875" stroke-linecap="square" stroke-linejoin="round" fill="none" stroke="#262626" d="M406 238.88889H402.52"/>
<path transform="matrix(.71999999,0,0,.71999999,-27.39273,-13.712727)" stroke-width=".6875" stroke-linecap="square" stroke-linejoin="round" fill="none" stroke="#262626" d="M406 208.33333H402.52"/>
<path transform="matrix(.71999999,0,0,.71999999,-27.39273,-13.712727)" stroke-width=".6875" stroke-linecap="square" stroke-linejoin="round" fill="none" stroke="#262626" d="M406 177.77777H402.52"/>
<path transform="matrix(.71999999,0,0,.71999999,-27.39273,-13.712727)" stroke-width=".6875" stroke-linecap="square" stroke-linejoin="round" fill="none" stroke="#262626" d="M406 147.22223H402.52"/>
<path transform="matrix(.71999999,0,0,.71999999,-27.39273,-13.712727)" stroke-width=".6875" stroke-linecap="square" stroke-linejoin="round" fill="none" stroke="#262626" d="M406 116.666667H402.52"/>
<path transform="matrix(.71999999,0,0,.71999999,-27.39273,-13.712727)" stroke-width=".6875" stroke-linecap="square" stroke-linejoin="round" fill="none" stroke="#262626" d="M406 86.111118H402.52"/>
<path transform="matrix(.71999999,0,0,.71999999,-27.39273,-13.712727)" stroke-width=".6875" stroke-linecap="square" stroke-linejoin="round" fill="none" stroke="#262626" d="M406 55.555559H402.52"/>
<path transform="matrix(.71999999,0,0,.71999999,-27.39273,-13.712727)" stroke-width=".6875" stroke-linecap="square" stroke-linejoin="round" fill="none" stroke="#262626" d="M406 25H402.52"/>
<text fill="#262626" xml:space="preserve" transform="matrix(.71999999 0 0 .71999999 .3272727 205.52729)" font-size="13" font-family="LiberationSans"><tspan y="0" x="0 7.21875">14</tspan></text>
<text fill="#262626" xml:space="preserve" transform="matrix(.71999999 0 0 .71999999 .3272727 183.52729)" font-size="13" font-family="LiberationSans"><tspan y="0" x="0 7.21875">16</tspan></text>
<text fill="#262626" xml:space="preserve" transform="matrix(.71999999 0 0 .71999999 .3272727 161.52727)" font-size="13" font-family="LiberationSans"><tspan y="0" x="0 7.21875">18</tspan></text>
<text fill="#262626" xml:space="preserve" transform="matrix(.71999999 0 0 .71999999 .3272727 139.52727)" font-size="13" font-family="LiberationSans"><tspan y="0" x="0 7.21875">20</tspan></text>
<text fill="#262626" xml:space="preserve" transform="matrix(.71999999 0 0 .71999999 .3272727 117.52727)" font-size="13" font-family="LiberationSans"><tspan y="0" x="0 7.21875">22</tspan></text>
<text fill="#262626" xml:space="preserve" transform="matrix(.71999999 0 0 .71999999 .3272727 95.52728)" font-size="13" font-family="LiberationSans"><tspan y="0" x="0 7.21875">24</tspan></text>
<text fill="#262626" xml:space="preserve" transform="matrix(.71999999 0 0 .71999999 .3272727 73.52727)" font-size="13" font-family="LiberationSans"><tspan y="0" x="0 7.21875">26</tspan></text>
<text fill="#262626" xml:space="preserve" transform="matrix(.71999999 0 0 .71999999 .3272727 51.527276)" font-size="13" font-family="LiberationSans"><tspan y="0" x="0 7.21875">28</tspan></text>
<text fill="#262626" xml:space="preserve" transform="matrix(.71999999 0 0 .71999999 .3272727 29.527274)" font-size="13" font-family="LiberationSans"><tspan y="0" x="0 7.21875">30</tspan></text>
<text fill="#262626" xml:space="preserve" transform="matrix(.71999999 0 0 .71999999 .3272727 7.5272729)" font-size="13" font-family="LiberationSans"><tspan y="0" x="0 7.21875">32</tspan></text>
<path transform="matrix(.71999999,0,0,.71999999,-27.39273,-13.712727)" stroke-width=".6875" stroke-linecap="butt" stroke-miterlimit="2" stroke-linejoin="miter" fill="none" stroke="#0000ff" d="M62.125 162.5C62.125 160.22183 60.278177 158.375 58 158.375 55.721826 158.375 53.875 160.22183 53.875 162.5 53.875 164.77817 55.721826 166.625 58 166.625 60.278177 166.625 62.125 164.77817 62.125 162.5Z"/>
<path transform="matrix(.71999999,0,0,.71999999,-27.39273,-13.712727)" stroke-width=".6875" stroke-linecap="butt" stroke-miterlimit="2" stroke-linejoin="miter" fill="none" stroke="#0000ff" d="M410.125 25C410.125 22.721825 408.27818 20.875 406 20.875 403.72184 20.875 401.875 22.721825 401.875 25 401.875 27.278176 403.72184 29.125 406 29.125 408.27818 29.125 410.125 27.278176 410.125 25Z"/>
<path transform="matrix(.71999999,0,0,.71999999,-27.39273,-13.712727)" stroke-width=".6875" stroke-linecap="butt" stroke-miterlimit="2" stroke-linejoin="miter" fill="none" stroke="#ff0000" d="M53.875 208.33333 58 213.81958 62.125 208.33333 58 202.84708 53.875 208.33333Z"/>
<path transform="matrix(.71999999,0,0,.71999999,-27.39273,-13.712727)" stroke-width=".6875" stroke-linecap="butt" stroke-miterlimit="2" stroke-linejoin="miter" fill="none" stroke="#ff0000" d="M401.875 284.72224 406 290.20848 410.125 284.72224 406 279.236 401.875 284.72224Z"/>
</svg>
