<svg xmlns="http://www.w3.org/2000/svg" xmlns:xlink="http://www.w3.org/1999/xlink" version="1.1" width="285pt" height="104pt" viewBox="0 0 285 104">
<path transform="matrix(.75,0,0,.75,0,0)" d="M-.6676305-1.3636364H374.69239V135.91637H-.6676305V-1.3636364Z" fill="#ffffff" fill-rule="evenodd"/>
<path transform="matrix(.75,0,0,.75,0,0)" d="M17.572369 121.51636H369.89237V5.356363H17.572369V121.51636Z" fill="#ffffff" fill-rule="evenodd"/>
<path transform="matrix(.75,0,0,.75,0,0)" d="M17.242369 121.516368V5.356364H17.902369V121.516368H17.242369Z" fill="#262626" fill-opacity=".14901962"/>
<path transform="matrix(.75,0,0,.75,0,0)" d="M87.70639 121.516368V5.356364H88.366397V121.516368H87.70639Z" fill="#262626" fill-opacity=".14901962"/>
<path transform="matrix(.75,0,0,.75,0,0)" d="M158.17037 121.516368V5.356364H158.83036V121.516368H158.17037Z" fill="#262626" fill-opacity=".14901962"/>
<path transform="matrix(.75,0,0,.75,0,0)" d="M228.63439 121.516368V5.356364H229.29439V121.516368H228.63439Z" fill="#262626" fill-opacity=".14901962"/>
<path transform="matrix(.75,0,0,.75,0,0)" d="M299.09837 121.516368V5.356364H299.75834V121.516368H299.09837Z" fill="#262626" fill-opacity=".14901962"/>
<path transform="matrix(.75,0,0,.75,0,0)" d="M369.56239 121.516368V5.356364H370.22239V121.516368H369.56239Z" fill="#262626" fill-opacity=".14901962"/>
<path transform="matrix(.75,0,0,.75,0,0)" d="M369.89237 108.9397H17.572369V108.2797H369.89237V108.9397Z" fill="#262626" fill-opacity=".14901962"/>
<path transform="matrix(.75,0,0,.75,0,0)" d="M369.89237 83.12636H17.572369V82.46636H369.89237V83.12636Z" fill="#262626" fill-opacity=".14901962"/>
<path transform="matrix(.75,0,0,.75,0,0)" d="M369.89237 57.31303H17.572369V56.65303H369.89237V57.31303Z" fill="#262626" fill-opacity=".14901962"/>
<path transform="matrix(.75,0,0,.75,0,0)" d="M369.89237 31.499697H17.572369V30.839697H369.89237V31.499697Z" fill="#262626" fill-opacity=".14901962"/>
<path transform="matrix(.75,0,0,.75,0,0)" d="M369.89237 5.6863639H17.572369V5.026364H369.89237V5.6863639Z" fill="#262626" fill-opacity=".14901962"/>
<path transform="matrix(.71999999,0,0,.71999999,-31.460724,-15.422728)" stroke-width=".6875" stroke-linecap="square" stroke-linejoin="round" fill="none" stroke="#262626" d="M62 148H429"/>
<path transform="matrix(.71999999,0,0,.71999999,-31.460724,-15.422728)" stroke-width=".6875" stroke-linecap="square" stroke-linejoin="round" fill="none" stroke="#262626" d="M62 27H429"/>
<path transform="matrix(.71999999,0,0,.71999999,-31.460724,-15.422728)" stroke-width=".6875" stroke-linecap="square" stroke-linejoin="round" fill="none" stroke="#262626" d="M62 148V144.32999"/>
<path transform="matrix(.71999999,0,0,.71999999,-31.460724,-15.422728)" stroke-width=".6875" stroke-linecap="square" stroke-linejoin="round" fill="none" stroke="#262626" d="M135.40003 148V144.32999"/>
<path transform="matrix(.71999999,0,0,.71999999,-31.460724,-15.422728)" stroke-width=".6875" stroke-linecap="square" stroke-linejoin="round" fill="none" stroke="#262626" d="M208.79999 148V144.32999"/>
<path transform="matrix(.71999999,0,0,.71999999,-31.460724,-15.422728)" stroke-width=".6875" stroke-linecap="square" stroke-linejoin="round" fill="none" stroke="#262626" d="M282.2 148V144.32999"/>
<path transform="matrix(.71999999,0,0,.71999999,-31.460724,-15.422728)" stroke-width=".6875" stroke-linecap="square" stroke-linejoin="round" fill="none" stroke="#262626" d="M355.59999 148V144.32999"/>
<path transform="matrix(.71999999,0,0,.71999999,-31.460724,-15.422728)" stroke-width=".6875" stroke-linecap="square" stroke-linejoin="round" fill="none" stroke="#262626" d="M429 148V144.32999"/>
<path transform="matrix(.71999999,0,0,.71999999,-31.460724,-15.422728)" stroke-width=".6875" stroke-linecap="square" stroke-linejoin="round" fill="none" stroke="#262626" d="M62 27V30.67001"/>
<path transform="matrix(.71999999,0,0,.71999999,-31.460724,-15.422728)" stroke-width=".6875" stroke-linecap="square" stroke-linejoin="round" fill="none" stroke="#262626" d="M135.40003 27V30.67001"/>
<path transform="matrix(.71999999,0,0,.71999999,-31.460724,-15.422728)" stroke-width=".6875" stroke-linecap="square" stroke-linejoin="round" fill="none" stroke="#262626" d="M208.79999 27V30.67001"/>
<path transform="matrix(.71999999,0,0,.71999999,-31.460724,-15.422728)" stroke-width=".6875" stroke-linecap="square" stroke-linejoin="round" fill="none" stroke="#262626" d="M282.2 27V30.67001"/>
<path transform="matrix(.71999999,0,0,.71999999,-31.460724,-15.422728)" stroke-width=".6875" stroke-linecap="square" stroke-linejoin="round" fill="none" stroke="#262626" d="M355.59999 27V30.67001"/>
<path transform="matrix(.71999999,0,0,.71999999,-31.460724,-15.422728)" stroke-width=".6875" stroke-linecap="square" stroke-linejoin="round" fill="none" stroke="#262626" d="M429 27V30.67001"/>
<text fill="#262626" xml:space="preserve" transform="matrix(.71999999 0 0 .71999999 10.659277 101.82928)" font-size="12" font-family="LiberationSans"><tspan y="0" x="0">1</tspan></text>
<text fill="#262626" xml:space="preserve" transform="matrix(.71999999 0 0 .71999999 59.907297 101.82928)" font-size="12" font-family="LiberationSans"><tspan y="0" x="0 6.671875 10">1.2</tspan></text>
<text fill="#262626" xml:space="preserve" transform="matrix(.71999999 0 0 .71999999 112.75527 101.82928)" font-size="12" font-family="LiberationSans"><tspan y="0" x="0 6.671875 10">1.4</tspan></text>
<text fill="#262626" xml:space="preserve" transform="matrix(.71999999 0 0 .71999999 165.60329 101.82928)" font-size="12" font-family="LiberationSans"><tspan y="0" x="0 6.671875 10">1.6</tspan></text>
<text fill="#262626" xml:space="preserve" transform="matrix(.71999999 0 0 .71999999 218.45127 101.82928)" font-size="12" font-family="LiberationSans"><tspan y="0" x="0 6.671875 10">1.8</tspan></text>
<text fill="#262626" xml:space="preserve" transform="matrix(.71999999 0 0 .71999999 274.8993 101.82928)" font-size="12" font-family="LiberationSans"><tspan y="0" x="0">2</tspan></text>
<path transform="matrix(.71999999,0,0,.71999999,-31.460724,-15.422728)" stroke-width=".6875" stroke-linecap="square" stroke-linejoin="round" fill="none" stroke="#262626" d="M62 148V27"/>
<path transform="matrix(.71999999,0,0,.71999999,-31.460724,-15.422728)" stroke-width=".6875" stroke-linecap="square" stroke-linejoin="round" fill="none" stroke="#262626" d="M429 148V27"/>
<path transform="matrix(.71999999,0,0,.71999999,-31.460724,-15.422728)" stroke-width=".6875" stroke-linecap="square" stroke-linejoin="round" fill="none" stroke="#262626" d="M62 134.55556H65.67"/>
<path transform="matrix(.71999999,0,0,.71999999,-31.460724,-15.422728)" stroke-width=".6875" stroke-linecap="square" stroke-linejoin="round" fill="none" stroke="#262626" d="M62 107.666667H65.67"/>
<path transform="matrix(.71999999,0,0,.71999999,-31.460724,-15.422728)" stroke-width=".6875" stroke-linecap="square" stroke-linejoin="round" fill="none" stroke="#262626" d="M62 80.77778H65.67"/>
<path transform="matrix(.71999999,0,0,.71999999,-31.460724,-15.422728)" stroke-width=".6875" stroke-linecap="square" stroke-linejoin="round" fill="none" stroke="#262626" d="M62 53.88889H65.67"/>
<path transform="matrix(.71999999,0,0,.71999999,-31.460724,-15.422728)" stroke-width=".6875" stroke-linecap="square" stroke-linejoin="round" fill="none" stroke="#262626" d="M62 27H65.67"/>
<path transform="matrix(.71999999,0,0,.71999999,-31.460724,-15.422728)" stroke-width=".6875" stroke-linecap="square" stroke-linejoin="round" fill="none" stroke="#262626" d="M429 134.55556H425.33003"/>
<path transform="matrix(.71999999,0,0,.71999999,-31.460724,-15.422728)" stroke-width=".6875" stroke-linecap="square" stroke-linejoin="round" fill="none" stroke="#262626" d="M429 107.666667H425.33003"/>
<path transform="matrix(.71999999,0,0,.71999999,-31.460724,-15.422728)" stroke-width=".6875" stroke-linecap="square" stroke-linejoin="round" fill="none" stroke="#262626" d="M429 80.77778H425.33003"/>
<path transform="matrix(.71999999,0,0,.71999999,-31.460724,-15.422728)" stroke-width=".6875" stroke-linecap="square" stroke-linejoin="round" fill="none" stroke="#262626" d="M429 53.88889H425.33003"/>
<path transform="matrix(.71999999,0,0,.71999999,-31.460724,-15.422728)" stroke-width=".6875" stroke-linecap="square" stroke-linejoin="round" fill="none" stroke="#262626" d="M429 27H425.33003"/>
<text fill="#262626" xml:space="preserve" transform="matrix(.71999999 0 0 .71999999 1.0472727 84.33727)" font-size="12" font-family="LiberationSans"><tspan y="0" x="0 6.671875">24</tspan></text>
<text fill="#262626" xml:space="preserve" transform="matrix(.71999999 0 0 .71999999 1.0472727 64.97727)" font-size="12" font-family="LiberationSans"><tspan y="0" x="0 6.671875">26</tspan></text>
<text fill="#262626" xml:space="preserve" transform="matrix(.71999999 0 0 .71999999 1.0472727 45.617277)" font-size="12" font-family="LiberationSans"><tspan y="0" x="0 6.671875">28</tspan></text>
<text fill="#262626" xml:space="preserve" transform="matrix(.71999999 0 0 .71999999 1.0472727 26.257273)" font-size="12" font-family="LiberationSans"><tspan y="0" x="0 6.671875">30</tspan></text>
<text fill="#262626" xml:space="preserve" transform="matrix(.71999999 0 0 .71999999 1.0472727 6.8972728)" font-size="12" font-family="LiberationSans"><tspan y="0" x="0 6.671875">32</tspan></text>
<path transform="matrix(.71999999,0,0,.71999999,-31.460724,-15.422728)" stroke-width=".6875" stroke-linecap="butt" stroke-miterlimit="2" stroke-linejoin="miter" fill="none" stroke="#0000ff" d="M66.125 148C66.125 145.72183 64.278179 143.875 62 143.875 59.721826 143.875 57.875 145.72183 57.875 148 57.875 150.27817 59.721826 152.125 62 152.125 64.278179 152.125 66.125 150.27817 66.125 148Z"/>
<path transform="matrix(.71999999,0,0,.71999999,-31.460724,-15.422728)" stroke-width=".6875" stroke-linecap="butt" stroke-miterlimit="2" stroke-linejoin="miter" fill="none" stroke="#0000ff" d="M433.125 27C433.125 24.721825 431.27818 22.875 429 22.875 426.72184 22.875 424.875 24.721825 424.875 27 424.875 29.278176 426.72184 31.125 429 31.125 431.27818 31.125 433.125 29.278176 433.125 27Z"/>
</svg>
