<?xml version="1.0" encoding="UTF-8"?>
<!DOCTYPE svg PUBLIC "-//W3C//DTD SVG 1.1//EN" "http://www.w3.org/Graphics/SVG/1.1/DTD/svg11.dtd">
<svg xmlns="http://www.w3.org/2000/svg" version="1.1" width="444px" height="356px" style="shape-rendering:geometricPrecision; text-rendering:geometricPrecision; image-rendering:optimizeQuality; fill-rule:evenodd; clip-rule:evenodd" xmlns:xlink="http://www.w3.org/1999/xlink">
<g><path style="opacity:1" fill="#fefdfd" d="M -0.5,-0.5 C 147.5,-0.5 295.5,-0.5 443.5,-0.5C 443.5,118.167 443.5,236.833 443.5,355.5C 295.5,355.5 147.5,355.5 -0.5,355.5C -0.5,236.833 -0.5,118.167 -0.5,-0.5 Z"/></g>
<g><path style="opacity:1" fill="#434343" d="M 5.5,2.5 C 8.04443,2.10433 10.2111,2.77099 12,4.5C 12.7112,6.36682 12.2112,7.86682 10.5,9C 13.5886,12.8132 12.7552,15.3132 8,16.5C 4.96788,16.3299 3.80122,14.9966 4.5,12.5C 6.17894,14.1045 8.17894,14.7711 10.5,14.5C 10.5,13.1667 10.5,11.8333 10.5,10.5C 5.42102,10.2175 5.25435,9.2175 10,7.5C 10.4828,6.55198 10.6495,5.55198 10.5,4.5C 8.17894,4.22888 6.17894,4.89554 4.5,6.5C 4.16667,6.16667 3.83333,5.83333 3.5,5.5C 4.19251,4.48224 4.85917,3.48224 5.5,2.5 Z"/></g>
<g><path style="opacity:1" fill="#6e6e6e" d="M 17.5,8.5 C 17.189,9.47784 16.5223,10.1445 15.5,10.5C 14.52,7.91355 14.1866,5.24688 14.5,2.5C 17.5719,2.18259 20.5719,2.51592 23.5,3.5C 21.2573,4.47423 18.924,4.80756 16.5,4.5C 16.2322,6.09903 16.5655,7.43236 17.5,8.5 Z"/></g>
<g><path style="opacity:1" fill="#252625" d="M 433.5,50.5 C 433.167,50.5 432.833,50.5 432.5,50.5C 432.5,37.1667 432.5,23.8333 432.5,10.5C 406.167,10.5 379.833,10.5 353.5,10.5C 353.5,11.8333 353.5,13.1667 353.5,14.5C 353.167,14.5 352.833,14.5 352.5,14.5C 352.5,13.1667 352.5,11.8333 352.5,10.5C 326.167,10.5 299.833,10.5 273.5,10.5C 273.5,11.8333 273.5,13.1667 273.5,14.5C 273.167,14.5 272.833,14.5 272.5,14.5C 272.5,13.1667 272.5,11.8333 272.5,10.5C 246.167,10.5 219.833,10.5 193.5,10.5C 193.5,11.8333 193.5,13.1667 193.5,14.5C 193.167,14.5 192.833,14.5 192.5,14.5C 192.5,13.1667 192.5,11.8333 192.5,10.5C 166.167,10.5 139.833,10.5 113.5,10.5C 113.5,11.8333 113.5,13.1667 113.5,14.5C 113.167,14.5 112.833,14.5 112.5,14.5C 112.5,13.1667 112.5,11.8333 112.5,10.5C 86.1667,10.5 59.8333,10.5 33.5,10.5C 33.5,36.1667 33.5,61.8333 33.5,87.5C 34.8333,87.5 36.1667,87.5 37.5,87.5C 37.5,87.8333 37.5,88.1667 37.5,88.5C 36.1667,88.5 34.8333,88.5 33.5,88.5C 33.5,114.5 33.5,140.5 33.5,166.5C 34.8333,166.5 36.1667,166.5 37.5,166.5C 37.5,166.833 37.5,167.167 37.5,167.5C 36.1667,167.5 34.8333,167.5 33.5,167.5C 33.5,175.833 33.5,184.167 33.5,192.5C 33.1667,192.5 32.8333,192.5 32.5,192.5C 32.5,131.5 32.5,70.5 32.5,9.5C 166.167,9.5 299.833,9.5 433.5,9.5C 433.5,23.1667 433.5,36.8333 433.5,50.5 Z"/></g>
<g><path style="opacity:1" fill="#fefffe" d="M 112.5,14.5 C 112.5,38.8333 112.5,63.1667 112.5,87.5C 87.5,87.5 62.5,87.5 37.5,87.5C 36.1667,87.5 34.8333,87.5 33.5,87.5C 33.5,61.8333 33.5,36.1667 33.5,10.5C 59.8333,10.5 86.1667,10.5 112.5,10.5C 112.5,11.8333 112.5,13.1667 112.5,14.5 Z"/></g>
<g><path style="opacity:1" fill="#fefffe" d="M 192.5,14.5 C 192.5,38.8333 192.5,63.1667 192.5,87.5C 166.167,87.5 139.833,87.5 113.5,87.5C 113.5,63.1667 113.5,38.8333 113.5,14.5C 113.5,13.1667 113.5,11.8333 113.5,10.5C 139.833,10.5 166.167,10.5 192.5,10.5C 192.5,11.8333 192.5,13.1667 192.5,14.5 Z"/></g>
<g><path style="opacity:1" fill="#fefffe" d="M 272.5,14.5 C 272.5,38.8333 272.5,63.1667 272.5,87.5C 246.167,87.5 219.833,87.5 193.5,87.5C 193.5,63.1667 193.5,38.8333 193.5,14.5C 193.5,13.1667 193.5,11.8333 193.5,10.5C 219.833,10.5 246.167,10.5 272.5,10.5C 272.5,11.8333 272.5,13.1667 272.5,14.5 Z"/></g>
<g><path style="opacity:1" fill="#fefffe" d="M 352.5,14.5 C 352.5,38.8333 352.5,63.1667 352.5,87.5C 326.167,87.5 299.833,87.5 273.5,87.5C 273.5,63.1667 273.5,38.8333 273.5,14.5C 273.5,13.1667 273.5,11.8333 273.5,10.5C 299.833,10.5 326.167,10.5 352.5,10.5C 352.5,11.8333 352.5,13.1667 352.5,14.5 Z"/></g>
<g><path style="opacity:1" fill="#fefeff" d="M 432.5,50.5 C 432.082,51.2216 431.416,51.7216 430.5,52C 431.704,53.3528 432.371,55.0194 432.5,57C 432.371,58.9806 431.704,60.6472 430.5,62C 431.416,62.2784 432.082,62.7784 432.5,63.5C 432.5,71.5 432.5,79.5 432.5,87.5C 431.167,87.5 429.833,87.5 428.5,87.5C 403.5,87.5 378.5,87.5 353.5,87.5C 353.5,63.1667 353.5,38.8333 353.5,14.5C 353.5,13.1667 353.5,11.8333 353.5,10.5C 379.833,10.5 406.167,10.5 432.5,10.5C 432.5,23.8333 432.5,37.1667 432.5,50.5 Z"/></g>
<g><path style="opacity:1" fill="#424242" d="M 17.5,8.5 C 22.3451,7.18257 24.1784,9.18257 23,14.5C 20.0211,17.2399 17.1878,17.0733 14.5,14C 16.7513,14.2068 19.0846,14.3735 21.5,14.5C 22.4015,10.7593 21.0681,8.75934 17.5,8.5 Z"/></g>
<g><path style="opacity:1" fill="#3a247a" d="M 432.5,50.5 C 432.833,50.5 433.167,50.5 433.5,50.5C 434.239,50.369 434.906,50.5357 435.5,51C 434.267,52.6977 433.6,54.6977 433.5,57C 433.6,59.3023 434.267,61.3023 435.5,63C 434.906,63.4643 434.239,63.631 433.5,63.5C 433.167,63.5 432.833,63.5 432.5,63.5C 432.082,62.7784 431.416,62.2784 430.5,62C 431.704,60.6472 432.371,58.9806 432.5,57C 432.371,55.0194 431.704,53.3528 430.5,52C 431.416,51.7216 432.082,51.2216 432.5,50.5 Z"/></g>
<g><path style="opacity:1" fill="#434343" d="M 5.5,81.5 C 8.04443,81.1043 10.2111,81.771 12,83.5C 12.7112,85.3668 12.2112,86.8668 10.5,88C 13.5886,91.8132 12.7552,94.3132 8,95.5C 4.96788,95.3299 3.80122,93.9966 4.5,91.5C 6.17894,93.1045 8.17894,93.7711 10.5,93.5C 10.5,92.1667 10.5,90.8333 10.5,89.5C 5.42102,89.2175 5.25435,88.2175 10,86.5C 10.4828,85.552 10.6495,84.552 10.5,83.5C 8.17894,83.2289 6.17894,83.8955 4.5,85.5C 4.16667,85.1667 3.83333,84.8333 3.5,84.5C 4.19251,83.4822 4.85917,82.4822 5.5,81.5 Z"/></g>
<g><path style="opacity:1" fill="#fefffe" d="M 37.5,88.5 C 62.5,88.5 87.5,88.5 112.5,88.5C 112.5,114.5 112.5,140.5 112.5,166.5C 87.5,166.5 62.5,166.5 37.5,166.5C 36.1667,166.5 34.8333,166.5 33.5,166.5C 33.5,140.5 33.5,114.5 33.5,88.5C 34.8333,88.5 36.1667,88.5 37.5,88.5 Z"/></g>
<g><path style="opacity:1" fill="#dddcdc" d="M 112.5,14.5 C 112.833,14.5 113.167,14.5 113.5,14.5C 113.5,38.8333 113.5,63.1667 113.5,87.5C 139.833,87.5 166.167,87.5 192.5,87.5C 192.5,63.1667 192.5,38.8333 192.5,14.5C 192.833,14.5 193.167,14.5 193.5,14.5C 193.5,38.8333 193.5,63.1667 193.5,87.5C 219.833,87.5 246.167,87.5 272.5,87.5C 272.5,63.1667 272.5,38.8333 272.5,14.5C 272.833,14.5 273.167,14.5 273.5,14.5C 273.5,38.8333 273.5,63.1667 273.5,87.5C 299.833,87.5 326.167,87.5 352.5,87.5C 352.5,63.1667 352.5,38.8333 352.5,14.5C 352.833,14.5 353.167,14.5 353.5,14.5C 353.5,38.8333 353.5,63.1667 353.5,87.5C 378.5,87.5 403.5,87.5 428.5,87.5C 428.5,87.8333 428.5,88.1667 428.5,88.5C 403.5,88.5 378.5,88.5 353.5,88.5C 353.5,114.5 353.5,140.5 353.5,166.5C 378.5,166.5 403.5,166.5 428.5,166.5C 428.5,166.833 428.5,167.167 428.5,167.5C 403.5,167.5 378.5,167.5 353.5,167.5C 353.5,193.833 353.5,220.167 353.5,246.5C 378.5,246.5 403.5,246.5 428.5,246.5C 428.5,246.833 428.5,247.167 428.5,247.5C 403.5,247.5 378.5,247.5 353.5,247.5C 353.5,271.833 353.5,296.167 353.5,320.5C 353.167,320.5 352.833,320.5 352.5,320.5C 352.5,296.167 352.5,271.833 352.5,247.5C 326.167,247.5 299.833,247.5 273.5,247.5C 273.5,271.833 273.5,296.167 273.5,320.5C 273.167,320.5 272.833,320.5 272.5,320.5C 272.5,296.167 272.5,271.833 272.5,247.5C 246.167,247.5 219.833,247.5 193.5,247.5C 193.5,271.833 193.5,296.167 193.5,320.5C 193.167,320.5 192.833,320.5 192.5,320.5C 192.5,296.167 192.5,271.833 192.5,247.5C 166.167,247.5 139.833,247.5 113.5,247.5C 113.5,271.833 113.5,296.167 113.5,320.5C 113.167,320.5 112.833,320.5 112.5,320.5C 112.5,296.167 112.5,271.833 112.5,247.5C 87.8333,247.5 63.1667,247.5 38.5,247.5C 38.5,247.167 38.5,246.833 38.5,246.5C 62.8608,246.482 87.5275,246.482 112.5,246.5C 112.5,220.167 112.5,193.833 112.5,167.5C 87.5,167.5 62.5,167.5 37.5,167.5C 37.5,167.167 37.5,166.833 37.5,166.5C 62.5,166.5 87.5,166.5 112.5,166.5C 112.5,140.5 112.5,114.5 112.5,88.5C 87.5,88.5 62.5,88.5 37.5,88.5C 37.5,88.1667 37.5,87.8333 37.5,87.5C 62.5,87.5 87.5,87.5 112.5,87.5C 112.5,63.1667 112.5,38.8333 112.5,14.5 Z"/></g>
<g><path style="opacity:1" fill="#fefffe" d="M 193.5,88.5 C 219.833,88.5 246.167,88.5 272.5,88.5C 272.5,114.5 272.5,140.5 272.5,166.5C 246.167,166.5 219.833,166.5 193.5,166.5C 193.5,140.5 193.5,114.5 193.5,88.5 Z"/></g>
<g><path style="opacity:1" fill="#fefffe" d="M 113.5,88.5 C 139.833,88.5 166.167,88.5 192.5,88.5C 192.5,114.5 192.5,140.5 192.5,166.5C 166.167,166.5 139.833,166.5 113.5,166.5C 113.5,140.5 113.5,114.5 113.5,88.5 Z"/></g>
<g><path style="opacity:1" fill="#fefffe" d="M 273.5,88.5 C 299.833,88.5 326.167,88.5 352.5,88.5C 352.5,114.5 352.5,140.5 352.5,166.5C 326.167,166.5 299.833,166.5 273.5,166.5C 273.5,140.5 273.5,114.5 273.5,88.5 Z"/></g>
<g><path style="opacity:1" fill="#fefffe" d="M 428.5,88.5 C 429.833,88.5 431.167,88.5 432.5,88.5C 432.5,114.5 432.5,140.5 432.5,166.5C 431.167,166.5 429.833,166.5 428.5,166.5C 403.5,166.5 378.5,166.5 353.5,166.5C 353.5,140.5 353.5,114.5 353.5,88.5C 378.5,88.5 403.5,88.5 428.5,88.5 Z"/></g>
<g><path style="opacity:1" fill="#4e4e4e" d="M 16.5,81.5 C 19.0444,81.1043 21.2111,81.771 23,83.5C 23.6667,86.8333 23.6667,90.1667 23,93.5C 19.8442,96.3988 17.1775,96.0655 15,92.5C 14.013,88.5252 14.513,84.8585 16.5,81.5 Z"/></g>
<g><path style="opacity:1" fill="#f9f9f9" d="M 16.5,83.5 C 18.1667,83.5 19.8333,83.5 21.5,83.5C 21.5,86.8333 21.5,90.1667 21.5,93.5C 19.8561,93.7135 18.3561,93.3802 17,92.5C 16.502,89.5184 16.3354,86.5184 16.5,83.5 Z"/></g>
<g><path style="opacity:1" fill="#6e6e6e" d="M 17.5,166.5 C 17.189,167.478 16.5223,168.145 15.5,168.5C 14.52,165.914 14.1866,163.247 14.5,160.5C 17.5719,160.183 20.5719,160.516 23.5,161.5C 21.2573,162.474 18.924,162.808 16.5,162.5C 16.2322,164.099 16.5655,165.432 17.5,166.5 Z"/></g>
<g><path style="opacity:1" fill="#4b4b4b" d="M 5.5,160.5 C 10.5011,159.671 12.6678,161.671 12,166.5C 10.1667,168.333 8.33333,170.167 6.5,172C 8.5767,172.192 10.5767,172.692 12.5,173.5C 1.49699,175.418 0.663654,173.084 10,166.5C 10.49,165.207 10.6567,163.873 10.5,162.5C 8.17894,162.229 6.17894,162.896 4.5,164.5C 4.16667,164.167 3.83333,163.833 3.5,163.5C 4.19251,162.482 4.85917,161.482 5.5,160.5 Z"/></g>
<g><path style="opacity:1" fill="#fefefe" d="M 37.5,167.5 C 62.5,167.5 87.5,167.5 112.5,167.5C 112.5,193.833 112.5,220.167 112.5,246.5C 87.5275,246.482 62.8608,246.482 38.5,246.5C 36.8333,246.5 35.1667,246.5 33.5,246.5C 33.6673,232.927 33.6673,219.26 33.5,205.5C 33.5,201.167 33.5,196.833 33.5,192.5C 33.5,184.167 33.5,175.833 33.5,167.5C 34.8333,167.5 36.1667,167.5 37.5,167.5 Z"/></g>
<g><path style="opacity:1" fill="#fefffe" d="M 113.5,167.5 C 139.833,167.5 166.167,167.5 192.5,167.5C 192.5,193.833 192.5,220.167 192.5,246.5C 166.167,246.5 139.833,246.5 113.5,246.5C 113.5,220.167 113.5,193.833 113.5,167.5 Z"/></g>
<g><path style="opacity:1" fill="#fefffe" d="M 193.5,167.5 C 219.833,167.5 246.167,167.5 272.5,167.5C 272.5,193.833 272.5,220.167 272.5,246.5C 246.167,246.5 219.833,246.5 193.5,246.5C 193.5,220.167 193.5,193.833 193.5,167.5 Z"/></g>
<g><path style="opacity:1" fill="#fefffe" d="M 273.5,167.5 C 299.833,167.5 326.167,167.5 352.5,167.5C 352.5,193.833 352.5,220.167 352.5,246.5C 326.167,246.5 299.833,246.5 273.5,246.5C 273.5,220.167 273.5,193.833 273.5,167.5 Z"/></g>
<g><path style="opacity:1" fill="#fefffe" d="M 428.5,167.5 C 429.833,167.5 431.167,167.5 432.5,167.5C 432.5,193.833 432.5,220.167 432.5,246.5C 431.167,246.5 429.833,246.5 428.5,246.5C 403.5,246.5 378.5,246.5 353.5,246.5C 353.5,220.167 353.5,193.833 353.5,167.5C 378.5,167.5 403.5,167.5 428.5,167.5 Z"/></g>
<g><path style="opacity:1" fill="#424242" d="M 17.5,166.5 C 22.3451,165.183 24.1784,167.183 23,172.5C 20.0211,175.24 17.1878,175.073 14.5,172C 16.7513,172.207 19.0846,172.373 21.5,172.5C 22.4015,168.759 21.0681,166.759 17.5,166.5 Z"/></g>
<g><path style="opacity:1" fill="#372560" d="M 32.5,192.5 C 32.8333,192.5 33.1667,192.5 33.5,192.5C 33.5,196.833 33.5,201.167 33.5,205.5C 33.1667,205.5 32.8333,205.5 32.5,205.5C 32.5,201.167 32.5,196.833 32.5,192.5 Z"/></g>
<g><path style="opacity:1" fill="#4b4b4b" d="M 5.5,239.5 C 10.5011,238.671 12.6678,240.671 12,245.5C 10.1667,247.333 8.33333,249.167 6.5,251C 8.5767,251.192 10.5767,251.692 12.5,252.5C 1.49699,254.418 0.663654,252.084 10,245.5C 10.49,244.207 10.6567,242.873 10.5,241.5C 8.17894,241.229 6.17894,241.896 4.5,243.5C 4.16667,243.167 3.83333,242.833 3.5,242.5C 4.19251,241.482 4.85917,240.482 5.5,239.5 Z"/></g>
<g><path style="opacity:1" fill="#4e4e4e" d="M 16.5,239.5 C 19.0444,239.104 21.2111,239.771 23,241.5C 23.6667,244.833 23.6667,248.167 23,251.5C 19.8442,254.399 17.1775,254.065 15,250.5C 14.013,246.525 14.513,242.859 16.5,239.5 Z"/></g>
<g><path style="opacity:1" fill="#f9f9f9" d="M 16.5,241.5 C 18.1667,241.5 19.8333,241.5 21.5,241.5C 21.5,244.833 21.5,248.167 21.5,251.5C 19.8561,251.714 18.3561,251.38 17,250.5C 16.502,247.518 16.3354,244.518 16.5,241.5 Z"/></g>
<g><path style="opacity:1" fill="#2a2625" d="M 432.5,63.5 C 432.833,63.5 433.167,63.5 433.5,63.5C 433.528,151.314 433.528,238.981 433.5,326.5C 431.876,326.36 430.71,327.027 430,328.5C 297.71,326.503 165.21,325.836 32.5,326.5C 32.0553,285.934 32.0553,245.601 32.5,205.5C 32.8333,205.5 33.1667,205.5 33.5,205.5C 33.6673,219.26 33.6673,232.927 33.5,246.5C 35.1667,246.5 36.8333,246.5 38.5,246.5C 38.5,246.833 38.5,247.167 38.5,247.5C 37.1418,247.822 35.4752,247.822 33.5,247.5C 33.5599,273.344 33.5599,299.344 33.5,325.5C 59.8333,325.5 86.1667,325.5 112.5,325.5C 112.5,323.833 112.5,322.167 112.5,320.5C 112.833,320.5 113.167,320.5 113.5,320.5C 113.5,322.167 113.5,323.833 113.5,325.5C 139.833,325.5 166.167,325.5 192.5,325.5C 192.5,323.833 192.5,322.167 192.5,320.5C 192.833,320.5 193.167,320.5 193.5,320.5C 193.5,322.167 193.5,323.833 193.5,325.5C 219.833,325.5 246.167,325.5 272.5,325.5C 272.5,323.833 272.5,322.167 272.5,320.5C 272.833,320.5 273.167,320.5 273.5,320.5C 273.5,322.167 273.5,323.833 273.5,325.5C 299.833,325.5 326.167,325.5 352.5,325.5C 352.5,323.833 352.5,322.167 352.5,320.5C 352.833,320.5 353.167,320.5 353.5,320.5C 353.5,322.167 353.5,323.833 353.5,325.5C 379.993,325.451 406.326,325.451 432.5,325.5C 432.432,299.596 432.432,273.596 432.5,247.5C 431.167,247.5 429.833,247.5 428.5,247.5C 428.5,247.167 428.5,246.833 428.5,246.5C 429.833,246.5 431.167,246.5 432.5,246.5C 432.5,220.167 432.5,193.833 432.5,167.5C 431.167,167.5 429.833,167.5 428.5,167.5C 428.5,167.167 428.5,166.833 428.5,166.5C 429.833,166.5 431.167,166.5 432.5,166.5C 432.5,140.5 432.5,114.5 432.5,88.5C 431.167,88.5 429.833,88.5 428.5,88.5C 428.5,88.1667 428.5,87.8333 428.5,87.5C 429.833,87.5 431.167,87.5 432.5,87.5C 432.5,79.5 432.5,71.5 432.5,63.5 Z"/></g>
<g><path style="opacity:1" fill="#fffefe" d="M 428.5,247.5 C 429.833,247.5 431.167,247.5 432.5,247.5C 432.432,273.596 432.432,299.596 432.5,325.5C 406.326,325.451 379.993,325.451 353.5,325.5C 353.5,323.833 353.5,322.167 353.5,320.5C 353.5,296.167 353.5,271.833 353.5,247.5C 378.5,247.5 403.5,247.5 428.5,247.5 Z"/></g>
<g><path style="opacity:1" fill="#fefffe" d="M 352.5,320.5 C 352.5,322.167 352.5,323.833 352.5,325.5C 326.167,325.5 299.833,325.5 273.5,325.5C 273.5,323.833 273.5,322.167 273.5,320.5C 273.5,296.167 273.5,271.833 273.5,247.5C 299.833,247.5 326.167,247.5 352.5,247.5C 352.5,271.833 352.5,296.167 352.5,320.5 Z"/></g>
<g><path style="opacity:1" fill="#fefffe" d="M 272.5,320.5 C 272.5,322.167 272.5,323.833 272.5,325.5C 246.167,325.5 219.833,325.5 193.5,325.5C 193.5,323.833 193.5,322.167 193.5,320.5C 193.5,296.167 193.5,271.833 193.5,247.5C 219.833,247.5 246.167,247.5 272.5,247.5C 272.5,271.833 272.5,296.167 272.5,320.5 Z"/></g>
<g><path style="opacity:1" fill="#fefffe" d="M 192.5,320.5 C 192.5,322.167 192.5,323.833 192.5,325.5C 166.167,325.5 139.833,325.5 113.5,325.5C 113.5,323.833 113.5,322.167 113.5,320.5C 113.5,296.167 113.5,271.833 113.5,247.5C 139.833,247.5 166.167,247.5 192.5,247.5C 192.5,271.833 192.5,296.167 192.5,320.5 Z"/></g>
<g><path style="opacity:1" fill="#fffefe" d="M 38.5,247.5 C 63.1667,247.5 87.8333,247.5 112.5,247.5C 112.5,271.833 112.5,296.167 112.5,320.5C 112.5,322.167 112.5,323.833 112.5,325.5C 86.1667,325.5 59.8333,325.5 33.5,325.5C 33.5599,299.344 33.5599,273.344 33.5,247.5C 35.4752,247.822 37.1418,247.822 38.5,247.5 Z"/></g>
<g><path style="opacity:1" fill="#6e6e6e" d="M 17.5,324.5 C 17.189,325.478 16.5223,326.145 15.5,326.5C 14.52,323.914 14.1866,321.247 14.5,318.5C 17.5719,318.183 20.5719,318.516 23.5,319.5C 21.2573,320.474 18.924,320.808 16.5,320.5C 16.2322,322.099 16.5655,323.432 17.5,324.5 Z"/></g>
<g><path style="opacity:1" fill="#383838" d="M 6.5,318.5 C 7.5,318.5 8.5,318.5 9.5,318.5C 9.5,322.833 9.5,327.167 9.5,331.5C 8.83333,332.833 8.16667,332.833 7.5,331.5C 7.6653,327.818 7.49863,324.152 7,320.5C 6.18871,321.96 5.35538,322.293 4.5,321.5C 5.19251,320.482 5.85917,319.482 6.5,318.5 Z"/></g>
<g><path style="opacity:1" fill="#424242" d="M 17.5,324.5 C 22.3451,323.183 24.1784,325.183 23,330.5C 20.0211,333.24 17.1878,333.073 14.5,330C 16.7513,330.207 19.0846,330.373 21.5,330.5C 22.4015,326.759 21.0681,324.759 17.5,324.5 Z"/></g>
<g><path style="opacity:1" fill="#282828" d="M 28.5,351.5 C 29.8333,351.5 31.1667,351.5 32.5,351.5C 33.0803,347.351 32.4136,343.684 30.5,340.5C 30.811,339.522 31.4777,338.855 32.5,338.5C 33.4922,342.783 33.8256,347.116 33.5,351.5C 34.6332,352.862 32.9666,352.862 28.5,351.5 Z"/></g>
<g><path style="opacity:1" fill="#909090" d="M 30.5,340.5 C 32.4136,343.684 33.0803,347.351 32.5,351.5C 31.1667,351.5 29.8333,351.5 28.5,351.5C 29.209,350.596 30.209,350.263 31.5,350.5C 31.8174,347.428 31.4841,344.428 30.5,341.5C 29.6043,342.506 28.9377,342.506 28.5,341.5C 28.9569,340.702 29.6236,340.369 30.5,340.5 Z"/></g>
<g><path style="opacity:1" fill="#383838" d="M 102.5,338.5 C 103.5,338.5 104.5,338.5 105.5,338.5C 105.5,342.833 105.5,347.167 105.5,351.5C 104.833,352.833 104.167,352.833 103.5,351.5C 103.665,347.818 103.499,344.152 103,340.5C 102.189,341.96 101.355,342.293 100.5,341.5C 101.193,340.482 101.859,339.482 102.5,338.5 Z"/></g>
<g><path style="opacity:1" fill="#383838" d="M 182.5,338.5 C 183.5,338.5 184.5,338.5 185.5,338.5C 185.5,342.833 185.5,347.167 185.5,351.5C 184.833,352.833 184.167,352.833 183.5,351.5C 183.665,347.818 183.499,344.152 183,340.5C 182.189,341.96 181.355,342.293 180.5,341.5C 181.193,340.482 181.859,339.482 182.5,338.5 Z"/></g>
<g><path style="opacity:1" fill="#383838" d="M 263.5,338.5 C 264.5,338.5 265.5,338.5 266.5,338.5C 266.5,342.833 266.5,347.167 266.5,351.5C 265.833,352.833 265.167,352.833 264.5,351.5C 264.665,347.818 264.499,344.152 264,340.5C 263.189,341.96 262.355,342.293 261.5,341.5C 262.193,340.482 262.859,339.482 263.5,338.5 Z"/></g>
<g><path style="opacity:1" fill="#383838" d="M 343.5,338.5 C 344.5,338.5 345.5,338.5 346.5,338.5C 346.5,342.833 346.5,347.167 346.5,351.5C 345.833,352.833 345.167,352.833 344.5,351.5C 344.665,347.818 344.499,344.152 344,340.5C 343.189,341.96 342.355,342.293 341.5,341.5C 342.193,340.482 342.859,339.482 343.5,338.5 Z"/></g>
<g><path style="opacity:1" fill="#454545" d="M 201.5,338.5 C 202.89,341.853 204.224,345.353 205.5,349C 204.151,349.772 203.318,350.939 203,352.5C 202.517,351.552 202.351,350.552 202.5,349.5C 200.076,349.808 197.743,349.474 195.5,348.5C 197.511,345.139 199.511,341.806 201.5,338.5 Z"/></g>
<g><path style="opacity:1" fill="#ececec" d="M 200.5,342.5 C 201.461,344.265 201.795,346.265 201.5,348.5C 200.127,348.657 198.793,348.49 197.5,348C 198.639,346.22 199.639,344.386 200.5,342.5 Z"/></g>
<g><path style="opacity:1" fill="#464646" d="M 118.5,338.5 C 123.675,337.507 125.509,339.507 124,344.5C 122.167,346.333 120.333,348.167 118.5,350C 120.9,350.186 123.234,350.686 125.5,351.5C 122.572,352.484 119.572,352.817 116.5,352.5C 117.264,349.213 119.097,346.546 122,344.5C 122.49,343.207 122.657,341.873 122.5,340.5C 120.278,340.178 118.444,340.845 117,342.5C 116.7,340.934 117.2,339.601 118.5,338.5 Z"/></g>
<g><path style="opacity:1" fill="#464646" d="M 431.5,338.5 C 436.675,337.507 438.509,339.507 437,344.5C 435.167,346.333 433.333,348.167 431.5,350C 433.9,350.186 436.234,350.686 438.5,351.5C 435.572,352.484 432.572,352.817 429.5,352.5C 430.264,349.213 432.097,346.546 435,344.5C 435.49,343.207 435.657,341.873 435.5,340.5C 433.278,340.178 431.444,340.845 430,342.5C 429.7,340.934 430.2,339.601 431.5,338.5 Z"/></g>
<g><path style="opacity:1" fill="#4e4e4e" d="M 279.5,338.5 C 281.977,338.051 283.977,338.717 285.5,340.5C 283.674,340.92 281.674,340.92 279.5,340.5C 279.5,341.5 279.5,342.5 279.5,343.5C 286.444,343.272 288.11,346.106 284.5,352C 281.975,352.896 279.808,352.396 278,350.5C 276.994,346.198 277.494,342.198 279.5,338.5 Z"/></g>
<g><path style="opacity:1" fill="#f4f4f4" d="M 279.5,345.5 C 281.167,345.5 282.833,345.5 284.5,345.5C 285.167,349.5 283.5,351.167 279.5,350.5C 279.5,348.833 279.5,347.167 279.5,345.5 Z"/></g>
<g><path style="opacity:1" fill="#4d4d4d" d="M 359.5,344.5 C 358.351,344.209 357.684,343.376 357.5,342C 358.812,338.583 361.145,337.749 364.5,339.5C 365.76,341.353 365.76,343.186 364.5,345C 367.167,347.333 367.167,349.667 364.5,352C 356.702,353.07 355.035,350.57 359.5,344.5 Z"/></g>
<g><path style="opacity:1" fill="#e5e5e5" d="M 360.5,345.5 C 363.91,345.384 365.244,347.05 364.5,350.5C 362.5,350.5 360.5,350.5 358.5,350.5C 358.392,348.486 359.058,346.82 360.5,345.5 Z"/></g>
<g><path style="opacity:1" fill="#f3f3f3" d="M 359.5,344.5 C 359.5,343.167 359.5,341.833 359.5,340.5C 360.833,340.5 362.167,340.5 363.5,340.5C 363.5,341.833 363.5,343.167 363.5,344.5C 362.167,344.5 360.833,344.5 359.5,344.5 Z"/></g>
</svg>
