<?xml version="1.0" encoding="UTF-8"?>
<!DOCTYPE svg PUBLIC "-//W3C//DTD SVG 1.1//EN" "http://www.w3.org/Graphics/SVG/1.1/DTD/svg11.dtd">
<svg xmlns="http://www.w3.org/2000/svg" version="1.1" width="617px" height="481px" style="shape-rendering:geometricPrecision; text-rendering:geometricPrecision; image-rendering:optimizeQuality; fill-rule:evenodd; clip-rule:evenodd" xmlns:xlink="http://www.w3.org/1999/xlink">
<g><path style="opacity:1" fill="#fefefe" d="M -0.5,-0.5 C 205.167,-0.5 410.833,-0.5 616.5,-0.5C 616.5,159.833 616.5,320.167 616.5,480.5C 410.833,480.5 205.167,480.5 -0.5,480.5C -0.5,320.167 -0.5,159.833 -0.5,-0.5 Z"/></g>
<g><path style="opacity:1" fill="#3e3e3e" d="M 32.5,2.5 C 33.8904,5.85308 35.2237,9.35308 36.5,13C 35.2298,13.8996 34.2298,15.0663 33.5,16.5C 32.6143,15.675 32.281,14.675 32.5,13.5C 30.396,13.7989 28.396,13.4656 26.5,12.5C 28.5113,9.13894 30.5113,5.80561 32.5,2.5 Z"/></g>
<g><path style="opacity:1" fill="#414141" d="M 12.5,2.5 C 18.7948,2.9836 20.9615,6.31693 19,12.5C 16,17.8333 13,17.8333 10,12.5C 8.86131,8.57891 9.69464,5.24558 12.5,2.5 Z"/></g>
<g><path style="opacity:1" fill="#f4f4f4" d="M 12.5,4.5 C 14.1439,4.28649 15.6439,4.61983 17,5.5C 17.7772,8.42945 17.6105,11.2628 16.5,14C 14.8876,14.7203 13.3876,14.5536 12,13.5C 11.2642,10.408 11.4309,7.40803 12.5,4.5 Z"/></g>
<g><path style="opacity:1" fill="#f2f2f2" d="M 31.5,6.5 C 32.4614,8.26465 32.7947,10.2646 32.5,12.5C 31.0222,12.762 29.6888,12.4287 28.5,11.5C 29.7629,9.97125 30.7629,8.30459 31.5,6.5 Z"/></g>
<g><path style="opacity:1" fill="#444444" d="M 3.5,9.5 C 5.28801,9.21478 6.95467,9.54811 8.5,10.5C 7.66667,10.8333 6.83333,11.1667 6,11.5C 4.62439,11.3158 3.79106,10.6491 3.5,9.5 Z"/></g>
<g><path style="opacity:1" fill="#6b6b6b" d="M 22.5,14.5 C 24.337,14.6395 24.6704,15.3061 23.5,16.5C 22.7025,16.0431 22.3691,15.3764 22.5,14.5 Z"/></g>
<g><path style="opacity:1" fill="#262626" d="M 44.5,9.5 C 230.5,9.5 416.5,9.5 602.5,9.5C 602.5,156.5 602.5,303.5 602.5,450.5C 416.5,450.5 230.5,450.5 44.5,450.5C 44.5,303.5 44.5,156.5 44.5,9.5 Z"/></g>
<g><path style="opacity:1" fill="#fefefe" d="M 601.5,88.5 C 599.538,90.425 598.705,92.7583 599,95.5C 599.608,93.9336 600.442,92.6002 601.5,91.5C 601.5,113.167 601.5,134.833 601.5,156.5C 594.833,156.833 594.833,157.167 601.5,157.5C 601.5,181.5 601.5,205.5 601.5,229.5C 594.833,229.833 594.833,230.167 601.5,230.5C 601.5,254.5 601.5,278.5 601.5,302.5C 594.833,302.833 594.833,303.167 601.5,303.5C 601.5,327.833 601.5,352.167 601.5,376.5C 594.833,376.833 594.833,377.167 601.5,377.5C 601.5,401.5 601.5,425.5 601.5,449.5C 564.833,449.5 528.167,449.5 491.5,449.5C 491.167,442.833 490.833,442.833 490.5,449.5C 453.5,449.5 416.5,449.5 379.5,449.5C 379.167,442.833 378.833,442.833 378.5,449.5C 341.833,449.5 305.167,449.5 268.5,449.5C 268.167,442.833 267.833,442.833 267.5,449.5C 230.5,449.5 193.5,449.5 156.5,449.5C 156.167,442.833 155.833,442.833 155.5,449.5C 118.833,449.5 82.1667,449.5 45.5,449.5C 45.5,425.5 45.5,401.5 45.5,377.5C 52.1667,377.167 52.1667,376.833 45.5,376.5C 45.5,352.167 45.5,327.833 45.5,303.5C 52.1667,303.167 52.1667,302.833 45.5,302.5C 45.5,278.5 45.5,254.5 45.5,230.5C 52.1667,230.167 52.1667,229.833 45.5,229.5C 45.5,205.5 45.5,181.5 45.5,157.5C 52.1667,157.167 52.1667,156.833 45.5,156.5C 45.5,132.167 45.5,107.833 45.5,83.5C 52.1667,83.1667 52.1667,82.8333 45.5,82.5C 46.0994,58.555 46.0994,34.555 45.5,10.5C 82.1667,10.5 118.833,10.5 155.5,10.5C 155.833,17.1667 156.167,17.1667 156.5,10.5C 193.5,10.5 230.5,10.5 267.5,10.5C 267.833,17.1667 268.167,17.1667 268.5,10.5C 305.167,10.5 341.833,10.5 378.5,10.5C 378.833,17.1667 379.167,17.1667 379.5,10.5C 416.5,10.5 453.5,10.5 490.5,10.5C 490.833,17.1667 491.167,17.1667 491.5,10.5C 528.167,10.5 564.833,10.5 601.5,10.5C 601.5,34.5 601.5,58.5 601.5,82.5C 594.833,82.8333 594.833,83.1667 601.5,83.5C 601.5,85.1667 601.5,86.8333 601.5,88.5 Z"/></g>
<g><path style="opacity:1" fill="#0071bd" d="M 52.5,68.5 C 54.0986,69.7985 54.5986,71.4652 54,73.5C 52.9914,71.9751 52.4914,70.3084 52.5,68.5 Z"/></g>
<g><path style="opacity:1" fill="#414141" d="M 12.5,76.5 C 18.7948,76.9836 20.9615,80.3169 19,86.5C 16,91.8333 13,91.8333 10,86.5C 8.86131,82.5789 9.69464,79.2456 12.5,76.5 Z"/></g>
<g><path style="opacity:1" fill="#f4f4f4" d="M 12.5,78.5 C 14.1439,78.2865 15.6439,78.6198 17,79.5C 17.7772,82.4294 17.6105,85.2628 16.5,88C 14.8876,88.7203 13.3876,88.5536 12,87.5C 11.2642,84.408 11.4309,81.408 12.5,78.5 Z"/></g>
<g><path style="opacity:1" fill="#464646" d="M 29.5,76.5 C 31.8273,76.2471 33.8273,76.9137 35.5,78.5C 33.3984,78.4793 31.2317,78.8126 29,79.5C 28.3333,80.5 28.3333,81.5 29,82.5C 34.8484,80.3471 36.8484,82.3471 35,88.5C 29.817,91.5444 26.9837,89.8778 26.5,83.5C 26.6946,80.7819 27.6946,78.4486 29.5,76.5 Z"/></g>
<g><path style="opacity:1" fill="#f3f3f3" d="M 29.5,83.5 C 33.6759,82.8307 35.0093,84.3307 33.5,88C 32.2068,88.49 30.8734,88.6567 29.5,88.5C 29.5,86.8333 29.5,85.1667 29.5,83.5 Z"/></g>
<g><path style="opacity:1" fill="#444444" d="M 3.5,83.5 C 5.28801,83.2148 6.95467,83.5481 8.5,84.5C 7.66667,84.8333 6.83333,85.1667 6,85.5C 4.62439,85.3158 3.79106,84.6491 3.5,83.5 Z"/></g>
<g><path style="opacity:1" fill="#6b6b6b" d="M 22.5,88.5 C 24.337,88.6395 24.6704,89.3061 23.5,90.5C 22.7025,90.0431 22.3691,89.3764 22.5,88.5 Z"/></g>
<g><path style="opacity:1" fill="#0071bd" d="M 601.5,88.5 C 601.5,89.5 601.5,90.5 601.5,91.5C 600.442,92.6002 599.608,93.9336 599,95.5C 598.705,92.7583 599.538,90.425 601.5,88.5 Z"/></g>
<g><path style="opacity:1" fill="#0071bd" d="M 595.5,99.5 C 596.097,99.7352 596.43,100.235 596.5,101C 595.804,102.893 594.97,104.726 594,106.5C 593.865,104.078 594.365,101.745 595.5,99.5 Z"/></g>
<g><path style="opacity:1" fill="#0071bd" d="M 65.5,104.5 C 67.0986,105.799 67.5986,107.465 67,109.5C 65.9914,107.975 65.4914,106.308 65.5,104.5 Z"/></g>
<g><path style="opacity:1" fill="#0071bd" d="M 591.5,108.5 C 592.097,108.735 592.43,109.235 592.5,110C 591.47,112.56 590.303,115.06 589,117.5C 589.206,114.394 590.039,111.394 591.5,108.5 Z"/></g>
<g><path style="opacity:1" fill="#0071bd" d="M 69.5,115.5 C 71.0986,116.799 71.5986,118.465 71,120.5C 69.9914,118.975 69.4914,117.308 69.5,115.5 Z"/></g>
<g><path style="opacity:1" fill="#0071bd" d="M 586.5,119.5 C 587.097,119.735 587.43,120.235 587.5,121C 586.804,122.893 585.97,124.726 585,126.5C 584.865,124.078 585.365,121.745 586.5,119.5 Z"/></g>
<g><path style="opacity:1" fill="#0071bd" d="M 581.5,130.5 C 582.097,130.735 582.43,131.235 582.5,132C 581.804,133.893 580.97,135.726 580,137.5C 579.865,135.078 580.365,132.745 581.5,130.5 Z"/></g>
<g><path style="opacity:1" fill="#0071bd" d="M 577.5,139.5 C 578.097,139.735 578.43,140.235 578.5,141C 577.47,143.56 576.303,146.06 575,148.5C 575.206,145.394 576.039,142.394 577.5,139.5 Z"/></g>
<g><path style="opacity:1" fill="#0071bd" d="M 572.5,150.5 C 573.097,150.735 573.43,151.235 573.5,152C 572.804,153.893 571.97,155.726 571,157.5C 570.865,155.078 571.365,152.745 572.5,150.5 Z"/></g>
<g><path style="opacity:1" fill="#0071bd" d="M 82.5,151.5 C 84.0986,152.799 84.5986,154.465 84,156.5C 82.9914,154.975 82.4914,153.308 82.5,151.5 Z"/></g>
<g><path style="opacity:1" fill="#414141" d="M 12.5,149.5 C 18.7948,149.984 20.9615,153.317 19,159.5C 16,164.833 13,164.833 10,159.5C 8.86131,155.579 9.69464,152.246 12.5,149.5 Z"/></g>
<g><path style="opacity:1" fill="#f4f4f4" d="M 12.5,151.5 C 14.1439,151.286 15.6439,151.62 17,152.5C 17.7772,155.429 17.6105,158.263 16.5,161C 14.8876,161.72 13.3876,161.554 12,160.5C 11.2642,157.408 11.4309,154.408 12.5,151.5 Z"/></g>
<g><path style="opacity:1" fill="#474747" d="M 28.5,149.5 C 30.5914,149.318 32.5914,149.652 34.5,150.5C 35.1815,154.543 35.1815,158.71 34.5,163C 31.6529,163.944 29.1529,163.444 27,161.5C 28.1514,157.694 28.6514,153.694 28.5,149.5 Z"/></g>
<g><path style="opacity:1" fill="#e8e8e8" d="M 28.5,151.5 C 30.1667,151.5 31.8333,151.5 33.5,151.5C 33.5,152.833 33.5,154.167 33.5,155.5C 30.0504,156.244 28.3838,154.91 28.5,151.5 Z"/></g>
<g><path style="opacity:1" fill="#444444" d="M 3.5,156.5 C 5.28801,156.215 6.95467,156.548 8.5,157.5C 7.66667,157.833 6.83333,158.167 6,158.5C 4.62439,158.316 3.79106,157.649 3.5,156.5 Z"/></g>
<g><path style="opacity:1" fill="#f1f1f1" d="M 28.5,157.5 C 30.9775,157.051 32.9775,157.717 34.5,159.5C 32.9775,161.283 30.9775,161.949 28.5,161.5C 28.5,160.167 28.5,158.833 28.5,157.5 Z"/></g>
<g><path style="opacity:1" fill="#6b6b6b" d="M 22.5,161.5 C 24.337,161.639 24.6704,162.306 23.5,163.5C 22.7025,163.043 22.3691,162.376 22.5,161.5 Z"/></g>
<g><path style="opacity:1" fill="#0071bd" d="M 567.5,161.5 C 568.097,161.735 568.43,162.235 568.5,163C 567.804,164.893 566.97,166.726 566,168.5C 565.865,166.078 566.365,163.745 567.5,161.5 Z"/></g>
<g><path style="opacity:1" fill="#0071bd" d="M 86.5,162.5 C 88.0986,163.799 88.5986,165.465 88,167.5C 86.9914,165.975 86.4914,164.308 86.5,162.5 Z"/></g>
<g><path style="opacity:1" fill="#0071bd" d="M 562.5,172.5 C 563.097,172.735 563.43,173.235 563.5,174C 562.804,175.893 561.97,177.726 561,179.5C 560.865,177.078 561.365,174.745 562.5,172.5 Z"/></g>
<g><path style="opacity:1" fill="#0071bd" d="M 558.5,181.5 C 559.097,181.735 559.43,182.235 559.5,183C 558.804,184.893 557.97,186.726 557,188.5C 556.865,186.078 557.365,183.745 558.5,181.5 Z"/></g>
<g><path style="opacity:1" fill="#0071bd" d="M 95.5,187.5 C 97.0986,188.799 97.5986,190.465 97,192.5C 95.9914,190.975 95.4914,189.308 95.5,187.5 Z"/></g>
<g><path style="opacity:1" fill="#0071bd" d="M 553.5,192.5 C 554.097,192.735 554.43,193.235 554.5,194C 553.804,195.893 552.97,197.726 552,199.5C 551.865,197.078 552.365,194.745 553.5,192.5 Z"/></g>
<g><path style="opacity:1" fill="#0071bd" d="M 99.5,198.5 C 101.099,199.799 101.599,201.465 101,203.5C 99.9914,201.975 99.4914,200.308 99.5,198.5 Z"/></g>
<g><path style="opacity:1" fill="#0071bd" d="M 548.5,203.5 C 549.097,203.735 549.43,204.235 549.5,205C 548.804,206.893 547.97,208.726 547,210.5C 546.865,208.078 547.365,205.745 548.5,203.5 Z"/></g>
<g><path style="opacity:1" fill="#0071bd" d="M 103.5,209.5 C 105.099,210.799 105.599,212.465 105,214.5C 103.991,212.975 103.491,211.308 103.5,209.5 Z"/></g>
<g><path style="opacity:1" fill="#0071bd" d="M 544.5,212.5 C 545.097,212.735 545.43,213.235 545.5,214C 544.804,215.893 543.97,217.726 543,219.5C 542.865,217.078 543.365,214.745 544.5,212.5 Z"/></g>
<g><path style="opacity:1" fill="#0071bd" d="M 107.5,220.5 C 109.431,222.794 110.264,225.461 110,228.5C 108.659,225.978 107.826,223.311 107.5,220.5 Z"/></g>
<g><path style="opacity:1" fill="#282828" d="M 31.5,222.5 C 31.5,226.833 31.5,231.167 31.5,235.5C 32.791,235.263 33.791,235.596 34.5,236.5C 31.6146,236.806 28.9479,236.473 26.5,235.5C 27.8333,235.5 29.1667,235.5 30.5,235.5C 31.0803,231.351 30.4136,227.684 28.5,224.5C 28.9731,223.094 29.9731,222.427 31.5,222.5 Z"/></g>
<g><path style="opacity:1" fill="#aeaeae" d="M 31.5,222.5 C 32.4834,226.298 32.8168,230.298 32.5,234.5C 33.675,234.281 34.675,234.614 35.5,235.5C 35.3764,236.107 35.0431,236.44 34.5,236.5C 33.791,235.596 32.791,235.263 31.5,235.5C 31.5,231.167 31.5,226.833 31.5,222.5 Z"/></g>
<g><path style="opacity:1" fill="#0071bd" d="M 539.5,223.5 C 540.097,223.735 540.43,224.235 540.5,225C 539.804,226.893 538.97,228.726 538,230.5C 537.865,228.078 538.365,225.745 539.5,223.5 Z"/></g>
<g><path style="opacity:1" fill="#909090" d="M 28.5,224.5 C 30.4136,227.684 31.0803,231.351 30.5,235.5C 29.1667,235.5 27.8333,235.5 26.5,235.5C 27.209,234.596 28.209,234.263 29.5,234.5C 29.8174,231.428 29.4841,228.428 28.5,225.5C 27.6043,226.506 26.9377,226.506 26.5,225.5C 26.9569,224.702 27.6236,224.369 28.5,224.5 Z"/></g>
<g><path style="opacity:1" fill="#444444" d="M 19.5,229.5 C 21.288,229.215 22.9547,229.548 24.5,230.5C 23.6667,230.833 22.8333,231.167 22,231.5C 20.6244,231.316 19.7911,230.649 19.5,229.5 Z"/></g>
<g><path style="opacity:1" fill="#0071bd" d="M 112.5,234.5 C 114.099,235.799 114.599,237.465 114,239.5C 112.991,237.975 112.491,236.308 112.5,234.5 Z"/></g>
<g><path style="opacity:1" fill="#0071bd" d="M 534.5,234.5 C 535.097,234.735 535.43,235.235 535.5,236C 534.804,237.893 533.97,239.726 533,241.5C 532.865,239.078 533.365,236.745 534.5,234.5 Z"/></g>
<g><path style="opacity:1" fill="#0071bd" d="M 116.5,245.5 C 118.099,246.799 118.599,248.465 118,250.5C 116.991,248.975 116.491,247.308 116.5,245.5 Z"/></g>
<g><path style="opacity:1" fill="#0071bd" d="M 529.5,245.5 C 530.621,247.089 530.454,248.756 529,250.5C 528.616,248.803 528.782,247.137 529.5,245.5 Z"/></g>
<g><path style="opacity:1" fill="#0071bd" d="M 525.5,254.5 C 526.097,254.735 526.43,255.235 526.5,256C 525.804,257.893 524.97,259.726 524,261.5C 523.865,259.078 524.365,256.745 525.5,254.5 Z"/></g>
<g><path style="opacity:1" fill="#0071bd" d="M 120.5,256.5 C 122.431,258.794 123.264,261.461 123,264.5C 121.659,261.978 120.826,259.311 120.5,256.5 Z"/></g>
<g><path style="opacity:1" fill="#0071bd" d="M 520.5,265.5 C 521.097,265.735 521.43,266.235 521.5,267C 520.804,268.893 519.97,270.726 519,272.5C 518.865,270.078 519.365,267.745 520.5,265.5 Z"/></g>
<g><path style="opacity:1" fill="#0071bd" d="M 124.5,267.5 C 126.431,269.794 127.264,272.461 127,275.5C 125.659,272.978 124.826,270.311 124.5,267.5 Z"/></g>
<g><path style="opacity:1" fill="#0071bd" d="M 515.5,276.5 C 516.621,278.089 516.454,279.756 515,281.5C 514.616,279.803 514.782,278.137 515.5,276.5 Z"/></g>
<g><path style="opacity:1" fill="#0071bd" d="M 129.5,281.5 C 131.099,282.799 131.599,284.465 131,286.5C 129.991,284.975 129.491,283.308 129.5,281.5 Z"/></g>
<g><path style="opacity:1" fill="#0071bd" d="M 510.5,287.5 C 511.621,289.089 511.454,290.756 510,292.5C 509.616,290.803 509.782,289.137 510.5,287.5 Z"/></g>
<g><path style="opacity:1" fill="#0071bd" d="M 133.5,292.5 C 135.099,293.799 135.599,295.465 135,297.5C 133.991,295.975 133.491,294.308 133.5,292.5 Z"/></g>
<g><path style="opacity:1" fill="#282828" d="M 15.5,296.5 C 15.5,300.833 15.5,305.167 15.5,309.5C 16.791,309.263 17.791,309.596 18.5,310.5C 15.6146,310.806 12.9479,310.473 10.5,309.5C 11.8333,309.5 13.1667,309.5 14.5,309.5C 15.0803,305.351 14.4136,301.684 12.5,298.5C 12.9731,297.094 13.9731,296.427 15.5,296.5 Z"/></g>
<g><path style="opacity:1" fill="#aeaeae" d="M 15.5,296.5 C 16.4834,300.298 16.8168,304.298 16.5,308.5C 17.675,308.281 18.675,308.614 19.5,309.5C 19.3764,310.107 19.0431,310.44 18.5,310.5C 17.791,309.596 16.791,309.263 15.5,309.5C 15.5,305.167 15.5,300.833 15.5,296.5 Z"/></g>
<g><path style="opacity:1" fill="#0071bd" d="M 504.5,299.5 C 504.461,298.244 504.961,297.244 506,296.5C 506.585,297.998 506.085,298.998 504.5,299.5 Z"/></g>
<g><path style="opacity:1" fill="#909090" d="M 12.5,298.5 C 14.4136,301.684 15.0803,305.351 14.5,309.5C 13.1667,309.5 11.8333,309.5 10.5,309.5C 11.209,308.596 12.209,308.263 13.5,308.5C 13.8174,305.428 13.4841,302.428 12.5,299.5C 11.6043,300.506 10.9377,300.506 10.5,299.5C 10.9569,298.702 11.6236,298.369 12.5,298.5 Z"/></g>
<g><path style="opacity:1" fill="#0071bd" d="M 504.5,299.5 C 504.539,300.756 504.039,301.756 503,302.5C 502.415,301.002 502.915,300.002 504.5,299.5 Z"/></g>
<g><path style="opacity:1" fill="#3d3d3d" d="M 29.5,308.5 C 30.8822,309.277 32.8822,309.944 35.5,310.5C 32.4281,310.817 29.4281,310.484 26.5,309.5C 28.483,307.016 30.6496,304.683 33,302.5C 33.49,301.207 33.6567,299.873 33.5,298.5C 31.2776,298.178 29.4443,298.845 28,300.5C 28.0572,297.035 29.8905,295.869 33.5,297C 34.8045,297.804 35.4712,298.971 35.5,300.5C 33.8937,303.443 31.8937,306.109 29.5,308.5 Z"/></g>
<g><path style="opacity:1" fill="#0071bd" d="M 137.5,304.5 C 139.07,303.441 140.403,303.941 141.5,306C 139.934,306.3 138.601,305.8 137.5,304.5 Z"/></g>
<g><path style="opacity:1" fill="#0071bd" d="M 499.5,306.5 C 499.461,305.244 499.961,304.244 501,303.5C 501.585,304.998 501.085,305.998 499.5,306.5 Z"/></g>
<g><path style="opacity:1" fill="#444444" d="M 3.5,303.5 C 5.28801,303.215 6.95467,303.548 8.5,304.5C 7.66667,304.833 6.83333,305.167 6,305.5C 4.62439,305.316 3.79106,304.649 3.5,303.5 Z"/></g>
<g><path style="opacity:1" fill="#0071bd" d="M 499.5,306.5 C 499.539,307.756 499.039,308.756 498,309.5C 497.415,308.002 497.915,307.002 499.5,306.5 Z"/></g>
<g><path style="opacity:1" fill="#0071bd" d="M 142.5,308.5 C 144.07,307.441 145.403,307.941 146.5,310C 144.934,310.3 143.601,309.8 142.5,308.5 Z"/></g>
<g><path style="opacity:1" fill="#6b6b6b" d="M 22.5,308.5 C 24.337,308.639 24.6704,309.306 23.5,310.5C 22.7025,310.043 22.3691,309.376 22.5,308.5 Z"/></g>
<g><path style="opacity:1" fill="#8e8e8e" d="M 29.5,308.5 C 31.924,308.192 34.2573,308.526 36.5,309.5C 36.3764,310.107 36.0431,310.44 35.5,310.5C 32.8822,309.944 30.8822,309.277 29.5,308.5 Z"/></g>
<g><path style="opacity:1" fill="#0071bd" d="M 147.5,312.5 C 148.497,311.287 149.497,311.454 150.5,313C 149.423,313.47 148.423,313.303 147.5,312.5 Z"/></g>
<g><path style="opacity:1" fill="#0071bd" d="M 492.5,316.5 C 492.461,315.244 492.961,314.244 494,313.5C 494.585,314.998 494.085,315.998 492.5,316.5 Z"/></g>
<g><path style="opacity:1" fill="#0071bd" d="M 152.5,316.5 C 153.497,315.287 154.497,315.454 155.5,317C 154.423,317.47 153.423,317.303 152.5,316.5 Z"/></g>
<g><path style="opacity:1" fill="#0071bd" d="M 492.5,316.5 C 492.539,317.756 492.039,318.756 491,319.5C 490.415,318.002 490.915,317.002 492.5,316.5 Z"/></g>
<g><path style="opacity:1" fill="#0071bd" d="M 156.5,319.5 C 158.07,318.441 159.403,318.941 160.5,321C 158.934,321.3 157.601,320.8 156.5,319.5 Z"/></g>
<g><path style="opacity:1" fill="#0071bd" d="M 161.5,323.5 C 163.07,322.441 164.403,322.941 165.5,325C 163.934,325.3 162.601,324.8 161.5,323.5 Z"/></g>
<g><path style="opacity:1" fill="#0071bd" d="M 485.5,326.5 C 485.461,325.244 485.961,324.244 487,323.5C 487.585,324.998 487.085,325.998 485.5,326.5 Z"/></g>
<g><path style="opacity:1" fill="#0071bd" d="M 166.5,327.5 C 167.497,326.287 168.497,326.454 169.5,328C 168.423,328.47 167.423,328.303 166.5,327.5 Z"/></g>
<g><path style="opacity:1" fill="#0071bd" d="M 485.5,326.5 C 485.539,327.756 485.039,328.756 484,329.5C 483.415,328.002 483.915,327.002 485.5,326.5 Z"/></g>
<g><path style="opacity:1" fill="#0071bd" d="M 171.5,331.5 C 172.497,330.287 173.497,330.454 174.5,332C 173.423,332.47 172.423,332.303 171.5,331.5 Z"/></g>
<g><path style="opacity:1" fill="#0071bd" d="M 480.5,333.5 C 480.461,332.244 480.961,331.244 482,330.5C 482.585,331.998 482.085,332.998 480.5,333.5 Z"/></g>
<g><path style="opacity:1" fill="#0071bd" d="M 175.5,334.5 C 177.07,333.441 178.403,333.941 179.5,336C 177.934,336.3 176.601,335.8 175.5,334.5 Z"/></g>
<g><path style="opacity:1" fill="#0071bd" d="M 480.5,333.5 C 480.573,335.027 479.906,336.027 478.5,336.5C 478.427,334.973 479.094,333.973 480.5,333.5 Z"/></g>
<g><path style="opacity:1" fill="#0071bd" d="M 478.5,336.5 C 478.539,337.756 478.039,338.756 477,339.5C 476.415,338.002 476.915,337.002 478.5,336.5 Z"/></g>
<g><path style="opacity:1" fill="#0071bd" d="M 180.5,338.5 C 182.07,337.441 183.403,337.941 184.5,340C 182.934,340.3 181.601,339.8 180.5,338.5 Z"/></g>
<g><path style="opacity:1" fill="#0071bd" d="M 473.5,343.5 C 473.461,342.244 473.961,341.244 475,340.5C 475.585,341.998 475.085,342.998 473.5,343.5 Z"/></g>
<g><path style="opacity:1" fill="#0071bd" d="M 185.5,342.5 C 187.07,341.441 188.403,341.941 189.5,344C 187.934,344.3 186.601,343.8 185.5,342.5 Z"/></g>
<g><path style="opacity:1" fill="#0071bd" d="M 473.5,343.5 C 473.539,344.756 473.039,345.756 472,346.5C 471.415,345.002 471.915,344.002 473.5,343.5 Z"/></g>
<g><path style="opacity:1" fill="#0071bd" d="M 190.5,346.5 C 191.497,345.287 192.497,345.454 193.5,347C 192.423,347.47 191.423,347.303 190.5,346.5 Z"/></g>
<g><path style="opacity:1" fill="#0071bd" d="M 194.5,349.5 C 196.07,348.441 197.403,348.941 198.5,351C 196.934,351.3 195.601,350.8 194.5,349.5 Z"/></g>
<g><path style="opacity:1" fill="#0071bd" d="M 466.5,353.5 C 466.461,352.244 466.961,351.244 468,350.5C 468.585,351.998 468.085,352.998 466.5,353.5 Z"/></g>
<g><path style="opacity:1" fill="#0071bd" d="M 199.5,353.5 C 201.07,352.441 202.403,352.941 203.5,355C 201.934,355.3 200.601,354.8 199.5,353.5 Z"/></g>
<g><path style="opacity:1" fill="#0071bd" d="M 466.5,353.5 C 466.539,354.756 466.039,355.756 465,356.5C 464.415,355.002 464.915,354.002 466.5,353.5 Z"/></g>
<g><path style="opacity:1" fill="#0071bd" d="M 204.5,357.5 C 206.07,356.441 207.403,356.941 208.5,359C 206.934,359.3 205.601,358.8 204.5,357.5 Z"/></g>
<g><path style="opacity:1" fill="#0071bd" d="M 209.5,361.5 C 210.497,360.287 211.497,360.454 212.5,362C 211.423,362.47 210.423,362.303 209.5,361.5 Z"/></g>
<g><path style="opacity:1" fill="#0071bd" d="M 459.5,363.5 C 459.461,362.244 459.961,361.244 461,360.5C 461.585,361.998 461.085,362.998 459.5,363.5 Z"/></g>
<g><path style="opacity:1" fill="#0071bd" d="M 459.5,363.5 C 459.539,364.756 459.039,365.756 458,366.5C 457.415,365.002 457.915,364.002 459.5,363.5 Z"/></g>
<g><path style="opacity:1" fill="#0071bd" d="M 214.5,365.5 C 215.497,364.287 216.497,364.454 217.5,366C 216.423,366.47 215.423,366.303 214.5,365.5 Z"/></g>
<g><path style="opacity:1" fill="#0071bd" d="M 218.5,368.5 C 220.07,367.441 221.403,367.941 222.5,370C 220.934,370.3 219.601,369.8 218.5,368.5 Z"/></g>
<g><path style="opacity:1" fill="#0071bd" d="M 454.5,370.5 C 454.461,369.244 454.961,368.244 456,367.5C 456.585,368.998 456.085,369.998 454.5,370.5 Z"/></g>
<g><path style="opacity:1" fill="#282828" d="M 15.5,369.5 C 15.5,373.833 15.5,378.167 15.5,382.5C 16.791,382.263 17.791,382.596 18.5,383.5C 15.6146,383.806 12.9479,383.473 10.5,382.5C 11.8333,382.5 13.1667,382.5 14.5,382.5C 15.0803,378.351 14.4136,374.684 12.5,371.5C 12.9731,370.094 13.9731,369.427 15.5,369.5 Z"/></g>
<g><path style="opacity:1" fill="#aeaeae" d="M 15.5,369.5 C 16.4834,373.298 16.8168,377.298 16.5,381.5C 17.675,381.281 18.675,381.614 19.5,382.5C 19.3764,383.107 19.0431,383.44 18.5,383.5C 17.791,382.596 16.791,382.263 15.5,382.5C 15.5,378.167 15.5,373.833 15.5,369.5 Z"/></g>
<g><path style="opacity:1" fill="#3e3e3e" d="M 32.5,369.5 C 33.8904,372.853 35.2237,376.353 36.5,380C 35.2298,380.9 34.2298,382.066 33.5,383.5C 32.6143,382.675 32.281,381.675 32.5,380.5C 30.396,380.799 28.396,380.466 26.5,379.5C 28.5113,376.139 30.5113,372.806 32.5,369.5 Z"/></g>
<g><path style="opacity:1" fill="#0071bd" d="M 454.5,370.5 C 454.573,372.027 453.906,373.027 452.5,373.5C 452.427,371.973 453.094,370.973 454.5,370.5 Z"/></g>
<g><path style="opacity:1" fill="#909090" d="M 12.5,371.5 C 14.4136,374.684 15.0803,378.351 14.5,382.5C 13.1667,382.5 11.8333,382.5 10.5,382.5C 11.209,381.596 12.209,381.263 13.5,381.5C 13.8174,378.428 13.4841,375.428 12.5,372.5C 11.6043,373.506 10.9377,373.506 10.5,372.5C 10.9569,371.702 11.6236,371.369 12.5,371.5 Z"/></g>
<g><path style="opacity:1" fill="#0071bd" d="M 223.5,372.5 C 225.07,371.441 226.403,371.941 227.5,374C 225.934,374.3 224.601,373.8 223.5,372.5 Z"/></g>
<g><path style="opacity:1" fill="#f2f2f2" d="M 31.5,373.5 C 32.4614,375.265 32.7947,377.265 32.5,379.5C 31.0222,379.762 29.6888,379.429 28.5,378.5C 29.7629,376.971 30.7629,375.305 31.5,373.5 Z"/></g>
<g><path style="opacity:1" fill="#0071bd" d="M 452.5,373.5 C 452.539,374.756 452.039,375.756 451,376.5C 450.415,375.002 450.915,374.002 452.5,373.5 Z"/></g>
<g><path style="opacity:1" fill="#0071bd" d="M 231.5,377.5 C 230.244,377.539 229.244,377.039 228.5,376C 229.998,375.415 230.998,375.915 231.5,377.5 Z"/></g>
<g><path style="opacity:1" fill="#444444" d="M 3.5,376.5 C 5.28801,376.215 6.95467,376.548 8.5,377.5C 7.66667,377.833 6.83333,378.167 6,378.5C 4.62439,378.316 3.79106,377.649 3.5,376.5 Z"/></g>
<g><path style="opacity:1" fill="#0071bd" d="M 231.5,377.5 C 233.027,377.427 234.027,378.094 234.5,379.5C 232.973,379.573 231.973,378.906 231.5,377.5 Z"/></g>
<g><path style="opacity:1" fill="#0071bd" d="M 447.5,380.5 C 447.461,379.244 447.961,378.244 449,377.5C 449.585,378.998 449.085,379.998 447.5,380.5 Z"/></g>
<g><path style="opacity:1" fill="#0071bd" d="M 234.5,379.5 C 235.756,379.461 236.756,379.961 237.5,381C 236.002,381.585 235.002,381.085 234.5,379.5 Z"/></g>
<g><path style="opacity:1" fill="#0071bd" d="M 447.5,380.5 C 447.539,381.756 447.039,382.756 446,383.5C 445.415,382.002 445.915,381.002 447.5,380.5 Z"/></g>
<g><path style="opacity:1" fill="#6b6b6b" d="M 22.5,381.5 C 24.337,381.639 24.6704,382.306 23.5,383.5C 22.7025,383.043 22.3691,382.376 22.5,381.5 Z"/></g>
<g><path style="opacity:1" fill="#0071bd" d="M 242.5,384.5 C 241.244,384.539 240.244,384.039 239.5,383C 240.998,382.415 241.998,382.915 242.5,384.5 Z"/></g>
<g><path style="opacity:1" fill="#0071bd" d="M 242.5,384.5 C 243.756,384.461 244.756,384.961 245.5,386C 244.002,386.585 243.002,386.085 242.5,384.5 Z"/></g>
<g><path style="opacity:1" fill="#0071bd" d="M 440.5,390.5 C 440.461,389.244 440.961,388.244 442,387.5C 442.585,388.998 442.085,389.998 440.5,390.5 Z"/></g>
<g><path style="opacity:1" fill="#0071bd" d="M 253.5,391.5 C 252.244,391.539 251.244,391.039 250.5,390C 251.998,389.415 252.998,389.915 253.5,391.5 Z"/></g>
<g><path style="opacity:1" fill="#0071bd" d="M 440.5,390.5 C 440.539,391.756 440.039,392.756 439,393.5C 438.415,392.002 438.915,391.002 440.5,390.5 Z"/></g>
<g><path style="opacity:1" fill="#0071bd" d="M 253.5,391.5 C 254.756,391.461 255.756,391.961 256.5,393C 255.002,393.585 254.002,393.085 253.5,391.5 Z"/></g>
<g><path style="opacity:1" fill="#0071bd" d="M 261.5,396.5 C 260.244,396.539 259.244,396.039 258.5,395C 259.998,394.415 260.998,394.915 261.5,396.5 Z"/></g>
<g><path style="opacity:1" fill="#0071bd" d="M 435.5,397.5 C 435.461,396.244 435.961,395.244 437,394.5C 437.585,395.998 437.085,396.998 435.5,397.5 Z"/></g>
<g><path style="opacity:1" fill="#0071bd" d="M 261.5,396.5 C 262.756,396.461 263.756,396.961 264.5,398C 263.002,398.585 262.002,398.085 261.5,396.5 Z"/></g>
<g><path style="opacity:1" fill="#0071bd" d="M 435.5,397.5 C 435.573,399.027 434.906,400.027 433.5,400.5C 433.427,398.973 434.094,397.973 435.5,397.5 Z"/></g>
<g><path style="opacity:1" fill="#0071bd" d="M 433.5,400.5 C 433.539,401.756 433.039,402.756 432,403.5C 431.415,402.002 431.915,401.002 433.5,400.5 Z"/></g>
<g><path style="opacity:1" fill="#0071bd" d="M 272.5,403.5 C 271.244,403.539 270.244,403.039 269.5,402C 270.998,401.415 271.998,401.915 272.5,403.5 Z"/></g>
<g><path style="opacity:1" fill="#0071bd" d="M 272.5,403.5 C 273.756,403.461 274.756,403.961 275.5,405C 274.002,405.585 273.002,405.085 272.5,403.5 Z"/></g>
<g><path style="opacity:1" fill="#0071bd" d="M 428.5,407.5 C 428.461,406.244 428.961,405.244 430,404.5C 430.585,405.998 430.085,406.998 428.5,407.5 Z"/></g>
<g><path style="opacity:1" fill="#0071bd" d="M 280.5,408.5 C 279.244,408.539 278.244,408.039 277.5,407C 278.998,406.415 279.998,406.915 280.5,408.5 Z"/></g>
<g><path style="opacity:1" fill="#0071bd" d="M 428.5,407.5 C 428.573,409.027 427.906,410.027 426.5,410.5C 426.427,408.973 427.094,407.973 428.5,407.5 Z"/></g>
<g><path style="opacity:1" fill="#0071bd" d="M 280.5,408.5 C 282.027,408.427 283.027,409.094 283.5,410.5C 281.973,410.573 280.973,409.906 280.5,408.5 Z"/></g>
<g><path style="opacity:1" fill="#0071bd" d="M 283.5,410.5 C 284.756,410.461 285.756,410.961 286.5,412C 285.002,412.585 284.002,412.085 283.5,410.5 Z"/></g>
<g><path style="opacity:1" fill="#0071bd" d="M 426.5,410.5 C 426.539,411.756 426.039,412.756 425,413.5C 424.415,412.002 424.915,411.002 426.5,410.5 Z"/></g>
<g><path style="opacity:1" fill="#0071bd" d="M 291.5,415.5 C 290.244,415.539 289.244,415.039 288.5,414C 289.998,413.415 290.998,413.915 291.5,415.5 Z"/></g>
<g><path style="opacity:1" fill="#0071bd" d="M 421.5,417.5 C 421.461,416.244 421.961,415.244 423,414.5C 423.585,415.998 423.085,416.998 421.5,417.5 Z"/></g>
<g><path style="opacity:1" fill="#0071bd" d="M 291.5,415.5 C 292.756,415.461 293.756,415.961 294.5,417C 293.002,417.585 292.002,417.085 291.5,415.5 Z"/></g>
<g><path style="opacity:1" fill="#0071bd" d="M 421.5,417.5 C 421.539,418.756 421.039,419.756 420,420.5C 419.415,419.002 419.915,418.002 421.5,417.5 Z"/></g>
<g><path style="opacity:1" fill="#0071bd" d="M 302.5,422.5 C 301.244,422.539 300.244,422.039 299.5,421C 300.998,420.415 301.998,420.915 302.5,422.5 Z"/></g>
<g><path style="opacity:1" fill="#0071bd" d="M 302.5,422.5 C 303.756,422.461 304.756,422.961 305.5,424C 304.002,424.585 303.002,424.085 302.5,422.5 Z"/></g>
<g><path style="opacity:1" fill="#0071bd" d="M 401.5,426.5 C 406.294,425.112 411.294,424.612 416.5,425C 411.552,426.05 406.552,426.55 401.5,426.5 Z"/></g>
<g><path style="opacity:1" fill="#0071bd" d="M 310.5,427.5 C 309.244,427.539 308.244,427.039 307.5,426C 308.998,425.415 309.998,425.915 310.5,427.5 Z"/></g>
<g><path style="opacity:1" fill="#0071bd" d="M 401.5,426.5 C 396.056,427.884 390.389,428.55 384.5,428.5C 389.944,427.116 395.611,426.45 401.5,426.5 Z"/></g>
<g><path style="opacity:1" fill="#0071bd" d="M 310.5,427.5 C 312.027,427.427 313.027,428.094 313.5,429.5C 311.973,429.573 310.973,428.906 310.5,427.5 Z"/></g>
<g><path style="opacity:1" fill="#0071bd" d="M 384.5,428.5 C 379.056,429.884 373.389,430.55 367.5,430.5C 372.944,429.116 378.611,428.45 384.5,428.5 Z"/></g>
<g><path style="opacity:1" fill="#0071bd" d="M 313.5,429.5 C 314.756,429.461 315.756,429.961 316.5,431C 315.002,431.585 314.002,431.085 313.5,429.5 Z"/></g>
<g><path style="opacity:1" fill="#0071bd" d="M 367.5,430.5 C 353.723,432.884 339.723,434.55 325.5,435.5C 339.277,433.116 353.277,431.45 367.5,430.5 Z"/></g>
<g><path style="opacity:1" fill="#0071bd" d="M 321.5,434.5 C 320.244,434.539 319.244,434.039 318.5,433C 319.998,432.415 320.998,432.915 321.5,434.5 Z"/></g>
<g><path style="opacity:1" fill="#0071bd" d="M 321.5,434.5 C 322.833,434.833 324.167,435.167 325.5,435.5C 323.872,436.853 322.538,436.519 321.5,434.5 Z"/></g>
<g><path style="opacity:1" fill="#282828" d="M 15.5,443.5 C 15.5,447.833 15.5,452.167 15.5,456.5C 16.791,456.263 17.791,456.596 18.5,457.5C 15.6146,457.806 12.9479,457.473 10.5,456.5C 11.8333,456.5 13.1667,456.5 14.5,456.5C 15.0803,452.351 14.4136,448.684 12.5,445.5C 12.9731,444.094 13.9731,443.427 15.5,443.5 Z"/></g>
<g><path style="opacity:1" fill="#aeaeae" d="M 15.5,443.5 C 16.4834,447.298 16.8168,451.298 16.5,455.5C 17.675,455.281 18.675,455.614 19.5,456.5C 19.3764,457.107 19.0431,457.44 18.5,457.5C 17.791,456.596 16.791,456.263 15.5,456.5C 15.5,452.167 15.5,447.833 15.5,443.5 Z"/></g>
<g><path style="opacity:1" fill="#909090" d="M 12.5,445.5 C 14.4136,448.684 15.0803,452.351 14.5,456.5C 13.1667,456.5 11.8333,456.5 10.5,456.5C 11.209,455.596 12.209,455.263 13.5,455.5C 13.8174,452.428 13.4841,449.428 12.5,446.5C 11.6043,447.506 10.9377,447.506 10.5,446.5C 10.9569,445.702 11.6236,445.369 12.5,445.5 Z"/></g>
<g><path style="opacity:1" fill="#464646" d="M 29.5,443.5 C 31.8273,443.247 33.8273,443.914 35.5,445.5C 33.3984,445.479 31.2317,445.813 29,446.5C 28.3333,447.5 28.3333,448.5 29,449.5C 34.8484,447.347 36.8484,449.347 35,455.5C 29.817,458.544 26.9837,456.878 26.5,450.5C 26.6946,447.782 27.6946,445.449 29.5,443.5 Z"/></g>
<g><path style="opacity:1" fill="#f3f3f3" d="M 29.5,450.5 C 33.6759,449.831 35.0093,451.331 33.5,455C 32.2068,455.49 30.8734,455.657 29.5,455.5C 29.5,453.833 29.5,452.167 29.5,450.5 Z"/></g>
<g><path style="opacity:1" fill="#444444" d="M 3.5,450.5 C 5.28801,450.215 6.95467,450.548 8.5,451.5C 7.66667,451.833 6.83333,452.167 6,452.5C 4.62439,452.316 3.79106,451.649 3.5,450.5 Z"/></g>
<g><path style="opacity:1" fill="#6b6b6b" d="M 22.5,455.5 C 24.337,455.639 24.6704,456.306 23.5,457.5C 22.7025,457.043 22.3691,456.376 22.5,455.5 Z"/></g>
<g><path style="opacity:1" fill="#383838" d="M 595.5,463.5 C 596.5,463.5 597.5,463.5 598.5,463.5C 598.5,467.833 598.5,472.167 598.5,476.5C 597.833,477.833 597.167,477.833 596.5,476.5C 596.665,472.818 596.499,469.152 596,465.5C 595.189,466.96 594.355,467.293 593.5,466.5C 594.193,465.482 594.859,464.482 595.5,463.5 Z"/></g>
<g><path style="opacity:1" fill="#414141" d="M 42.5,463.5 C 48.7948,463.984 50.9615,467.317 49,473.5C 46,478.833 43,478.833 40,473.5C 38.8613,469.579 39.6946,466.246 42.5,463.5 Z"/></g>
<g><path style="opacity:1" fill="#f4f4f4" d="M 42.5,465.5 C 44.1439,465.286 45.6439,465.62 47,466.5C 47.7772,469.429 47.6105,472.263 46.5,475C 44.8876,475.72 43.3876,475.554 42,474.5C 41.2642,471.408 41.4309,468.408 42.5,465.5 Z"/></g>
<g><path style="opacity:1" fill="#454545" d="M 268.5,463.5 C 269.89,466.853 271.224,470.353 272.5,474C 271.151,474.772 270.318,475.939 270,477.5C 269.517,476.552 269.351,475.552 269.5,474.5C 267.076,474.808 264.743,474.474 262.5,473.5C 264.511,470.139 266.511,466.806 268.5,463.5 Z"/></g>
<g><path style="opacity:1" fill="#ececec" d="M 267.5,467.5 C 268.461,469.265 268.795,471.265 268.5,473.5C 267.127,473.657 265.793,473.49 264.5,473C 265.639,471.22 266.639,469.386 267.5,467.5 Z"/></g>
<g><path style="opacity:1" fill="#4e4e4e" d="M 605.5,463.5 C 608.044,463.104 610.211,463.771 612,465.5C 612.667,468.833 612.667,472.167 612,475.5C 608.844,478.399 606.178,478.065 604,474.5C 603.013,470.525 603.513,466.859 605.5,463.5 Z"/></g>
<g><path style="opacity:1" fill="#f9f9f9" d="M 605.5,465.5 C 607.167,465.5 608.833,465.5 610.5,465.5C 610.5,468.833 610.5,472.167 610.5,475.5C 608.856,475.714 607.356,475.38 606,474.5C 605.502,471.518 605.335,468.518 605.5,465.5 Z"/></g>
<g><path style="opacity:1" fill="#3c3c3c" d="M 154.5,475.5 C 156.5,476.167 158.5,476.833 160.5,477.5C 157.833,477.5 155.167,477.5 152.5,477.5C 153.264,474.213 155.097,471.546 158,469.5C 158.49,468.207 158.657,466.873 158.5,465.5C 156.278,465.178 154.444,465.845 153,467.5C 152.493,466.004 152.993,464.837 154.5,464C 159.667,462.5 161.5,464.333 160,469.5C 157.96,471.37 156.127,473.37 154.5,475.5 Z"/></g>
<g><path style="opacity:1" fill="#8c8c8c" d="M 154.5,475.5 C 156.924,475.192 159.257,475.526 161.5,476.5C 161.376,477.107 161.043,477.44 160.5,477.5C 158.5,476.833 156.5,476.167 154.5,475.5 Z"/></g>
<g><path style="opacity:1" fill="#4e4e4e" d="M 377.5,463.5 C 379.977,463.051 381.977,463.717 383.5,465.5C 381.674,465.92 379.674,465.92 377.5,465.5C 377.5,466.5 377.5,467.5 377.5,468.5C 384.444,468.272 386.11,471.106 382.5,477C 379.975,477.896 377.808,477.396 376,475.5C 374.994,471.198 375.494,467.198 377.5,463.5 Z"/></g>
<g><path style="opacity:1" fill="#f4f4f4" d="M 377.5,470.5 C 379.167,470.5 380.833,470.5 382.5,470.5C 383.167,474.5 381.5,476.167 377.5,475.5C 377.5,473.833 377.5,472.167 377.5,470.5 Z"/></g>
<g><path style="opacity:1" fill="#4a4a4a" d="M 488.5,469.5 C 487.351,469.209 486.684,468.376 486.5,467C 487.812,463.583 490.145,462.749 493.5,464.5C 494.76,466.353 494.76,468.186 493.5,470C 496.167,472.333 496.167,474.667 493.5,477C 485.702,478.07 484.035,475.57 488.5,469.5 Z"/></g>
<g><path style="opacity:1" fill="#e5e5e5" d="M 489.5,470.5 C 492.91,470.384 494.244,472.05 493.5,475.5C 491.5,475.5 489.5,475.5 487.5,475.5C 487.392,473.486 488.058,471.82 489.5,470.5 Z"/></g>
<g><path style="opacity:1" fill="#f3f3f3" d="M 488.5,469.5 C 488.5,468.167 488.5,466.833 488.5,465.5C 489.833,465.5 491.167,465.5 492.5,465.5C 492.5,466.833 492.5,468.167 492.5,469.5C 491.167,469.5 489.833,469.5 488.5,469.5 Z"/></g>
</svg>
